<svg viewBox="0 0 82 84" fill="none" xmlns="http://www.w3.org/2000/svg">
  <g clip-path="url(#clip0_300_8599)">
  <path d="M55.4379 0H53.8685C52.9786 0 52.0833 0.101572 51.2149 0.29937L0 11.9748L32.3275 22.4581L32.2197 36.3307C32.2197 62.6539 53.7498 83.9947 80.3065 83.9947H81.9946V26.3232C82 11.8465 70.0484 0 55.4379 0Z" fill="#C69754"/>
  <path d="M73.802 14.033C73.802 14.033 64.7466 4.3783 53.5716 4.3783C42.3967 4.3783 33.3413 14.033 33.3413 14.033C33.3413 14.033 42.3967 23.6877 53.5716 23.6877C64.7466 23.6877 73.802 14.033 73.802 14.033Z" fill="#282828" />
  <path d="M53.5718 21.3462C58.3585 21.3462 62.2389 17.9547 62.2389 13.7711C62.2389 9.58742 58.3585 6.19592 53.5718 6.19592C48.7852 6.19592 44.9048 9.58742 44.9048 13.7711C44.9048 17.9547 48.7852 21.3462 53.5718 21.3462Z" fill="#C69754"/>
  </g>
  <defs>
  <clipPath id="clip0_300_8599">
  <rect width="82" height="84" fill="white"/>
  </clipPath>
  </defs>
  </svg>
  