<svg viewBox="0 0 153 158" fill="none" xmlns="http://www.w3.org/2000/svg">
<g id="bird" clip-path="url(#clip0_146_10706)">
<path id="Vector" d="M102.79 0H99.88C98.23 0 96.57 0.19 94.96 0.56L0 22.4L59.94 42.01L59.74 67.96C59.74 117.2 99.66 157.12 148.9 157.12H152.03V49.24C152.04 22.16 129.88 0 102.79 0Z" fill="#282828"/>
<path id="Vector_2" d="M136.84 26.25C136.84 26.25 120.05 8.19 99.33 8.19C78.61 8.19 61.82 26.25 61.82 26.25C61.82 26.25 78.61 44.31 99.33 44.31C120.05 44.31 136.84 26.25 136.84 26.25Z" fill="#FAEBDC"/>
<path id="Vector_3" d="M99.33 39.93C108.205 39.93 115.4 33.5859 115.4 25.76C115.4 17.9341 108.205 11.59 99.33 11.59C90.4548 11.59 83.26 17.9341 83.26 25.76C83.26 33.5859 90.4548 39.93 99.33 39.93Z" fill="#282828"/>
</g>
<defs>
<clipPath id="clip0_146_10706">
<rect width="152.04" height="157.13" fill="white"/>
</clipPath>
</defs>
</svg>
