<svg viewBox="0 0 135 251" fill="none" xmlns="http://www.w3.org/2000/svg">
<g id="hand" clip-path="url(#clip0_146_10703)">
<path id="Vector" d="M134.55 247.62V155.26C134.55 139.32 121.58 126.35 105.64 126.35H93.54V0H84.09C74.32 0 66.23 7.29 64.93 16.71H62.52C51.84 16.71 43.15 25.4 43.15 36.08V77.72H40.94C31.65 77.72 23.87 84.3 22 93.05H19.36C8.67999 93.05 -0.0100098 101.74 -0.0100098 112.42V191.97C-0.0100098 224.04 26.08 250.13 58.15 250.13H134.56L134.54 247.63L134.55 247.62ZM7.23999 186.11H11.79C20.61 186.11 27.88 179.38 28.73 170.78H33.36C42.75 170.78 50.39 163.14 50.39 153.75V142.35C53.08 149.81 60.21 155.17 68.59 155.17H79.9V200.71C79.9 218.54 89.39 234.19 103.59 242.88H58.16C30.08 242.88 7.23999 220.04 7.23999 191.96V186.1V186.11ZM7.23999 152.77V140.9H21.57V169.08C21.57 174.48 17.18 178.87 11.78 178.87H7.22999V152.77H7.23999ZM19.37 100.29H21.58V133.66H7.23999V112.41C7.23999 105.72 12.68 100.28 19.37 100.28V100.29ZM40.95 84.96H43.16V126.36H28.82V97.09C28.82 90.4 34.26 84.96 40.95 84.96ZM50.4 77.72V36.08C50.4 29.39 55.84 23.95 62.53 23.95H64.74V77.89H50.4V77.72ZM71.98 19.37C71.98 12.68 77.42 7.24 84.11 7.24H86.32V83.7H71.99V19.37H71.98ZM86.31 126.36H71.98V90.95H86.31V126.36ZM87.16 200.72V155.18H127.32C127.32 155.18 127.32 155.24 127.32 155.28V242.85C105 241.8 87.16 223.31 87.16 200.73V200.72ZM56.48 133.6H89.85V147.93H68.61C61.92 147.93 56.48 142.49 56.48 135.8V133.59V133.6ZM43.16 133.6V153.76C43.16 159.16 38.77 163.55 33.37 163.55H28.82V133.6H43.16ZM50.4 85.14H64.74V126.37H50.4V85.14ZM97.09 147.94V133.61H105.37H105.65C115.03 133.61 123.03 139.6 126.04 147.95H97.09V147.94Z" fill="#C69754"/>
</g>
<defs>
<clipPath id="clip0_146_10703">
<rect width="134.57" height="250.12" fill="white"/>
</clipPath>
</defs>
</svg>
