<svg viewBox="0 0 270 119" fill="none" xmlns="http://www.w3.org/2000/svg">
<g clip-path="url(#clip0_146_10725)">
<path d="M199.94 54.52H-3V63.52H199.94V54.52Z" fill="currentColor"/>
<path d="M40.34 59.02H31.34V93.99H40.34V59.02Z" fill="currentColor"/>
<path d="M59.21 59.02H50.21V93.99H59.21V59.02Z" fill="currentColor"/>
<path d="M22.23 59.02H13.23V93.99H22.23V59.02Z" fill="currentColor"/>
<path d="M170.46 41.18H161.46V78.5H170.46V41.18Z" fill="currentColor"/>
<path d="M196.439 59.0286C196.062 58.7495 195.711 58.4499 195.39 58.13C191.72 54.46 190.69 47.07 192.63 38.36C194.63 29.38 199.34 20.82 205.9 14.26C220.29 -0.140006 242.42 -3.61001 249.77 3.73999C256.261 10.2312 254.624 27.3384 244.601 41.314C241.215 40.6729 237.59 40.3238 233.821 40.32C245.352 28.0412 245.915 12.6347 243.41 10.12C242.71 9.41999 240.91 8.97999 238.41 8.97999V8.96999C232.01 8.96999 221.03 11.85 212.27 20.62C205.03 27.86 202.37 36.06 201.42 40.31C199.99 46.74 200.94 50.94 201.76 51.77C201.867 51.8768 202.07 52.0013 202.368 52.1266C200.719 54.371 199.81 56.8308 199.81 59.41C199.81 61.7736 200.573 64.0368 201.97 66.126C201.875 66.1835 201.801 66.2388 201.75 66.29C200.93 67.11 199.98 71.32 201.41 77.75C202.35 82 205.02 90.2 212.26 97.44C224.44 109.62 240.91 110.44 243.4 107.95C245.855 105.495 245.363 90.6451 234.494 78.4956C238.198 78.4514 241.755 78.0738 245.075 77.4139C254.668 91.2601 256.157 107.923 249.77 114.31C247.28 116.8 243.08 118.05 238.07 118.05C228.3 118.05 215.41 113.31 205.9 103.8C199.34 97.24 194.63 88.68 192.63 79.7C190.69 70.99 191.73 63.59 195.39 59.93C195.711 59.6091 196.061 59.3085 196.439 59.0286Z" fill="currentColor"/>
<path d="M233.76 83C224.5 83 215.11 80.26 207.33 75.29C199.8 70.48 195.31 64.54 195.31 59.41C195.31 49.01 213.41 35.82 233.76 35.82C254.11 35.82 272.21 49.01 272.21 59.41C272.21 69.81 254.47 83 233.76 83ZM233.76 44.81C216.53 44.81 204.31 55.88 204.31 59.4C204.31 62.92 216.86 73.99 233.76 73.99C250.66 73.99 263.21 63.03 263.21 59.4C263.21 55.77 250.99 44.81 233.76 44.81Z" fill="currentColor"/>
</g>
<defs>
<clipPath id="clip0_146_10725">
<rect width="275.21" height="118.05" fill="white" transform="translate(-3)"/>
</clipPath>
</defs>
</svg>
