<svg viewBox="0 0 188 188" fill="none" xmlns="http://www.w3.org/2000/svg">
<g id="plus" clip-path="url(#clip0_146_10696)">
<path id="Vector" d="M93.99 64.25C89.48 64.25 84.37 60.45 80.32 54.08C76.22 47.63 73.96 39.84 73.96 32.13C73.96 24.42 76.22 16.63 80.32 10.18C84.37 3.81001 89.48 0.0100098 93.99 0.0100098C103.01 0.0100098 114.02 14.83 114.02 32.13C114.02 49.43 102.82 64.25 93.99 64.25ZM93.99 9.00001C93.34 9.08001 90.54 10.74 87.69 15.37C85.92 18.24 82.96 24.23 82.96 32.12C82.96 40.01 85.92 46 87.69 48.87C90.54 53.5 93.34 55.16 94.04 55.24C96.31 54.92 105.03 45.86 105.03 32.12C105.03 18.38 96.74 9.15001 93.99 9.00001Z" fill="#C69754"/>
<path id="Vector_2" d="M93.99 187.99C89.48 187.99 84.37 184.19 80.32 177.82C76.22 171.37 73.96 163.58 73.96 155.87C73.96 148.16 76.22 140.37 80.32 133.92C84.37 127.55 89.48 123.75 93.99 123.75C103.01 123.75 114.02 138.57 114.02 155.87C114.02 173.17 102.82 187.99 93.99 187.99ZM93.99 132.74C93.34 132.82 90.54 134.48 87.69 139.11C85.92 141.98 82.96 147.97 82.96 155.86C82.96 163.75 85.92 169.74 87.69 172.61C90.54 177.24 93.34 178.9 94.04 178.98C96.31 178.66 105.03 169.6 105.03 155.86C105.03 142.12 96.74 132.89 93.99 132.74Z" fill="#C69754"/>
<path id="Vector_3" d="M32.12 114.03C24.41 114.03 16.62 111.77 10.17 107.67C3.8 103.62 0 98.5 0 94C0 84.98 14.82 73.97 32.12 73.97C49.42 73.97 64.24 85.17 64.24 94C64.24 98.51 60.44 103.62 54.07 107.67C47.62 111.77 39.83 114.03 32.12 114.03ZM32.12 82.96C18.71 82.96 9.15 91.25 9 94C9.08 94.65 10.74 97.45 15.37 100.3C18.24 102.07 24.23 105.03 32.12 105.03C40.01 105.03 46 102.07 48.87 100.3C53.5 97.45 55.16 94.65 55.24 93.95C54.92 91.68 45.86 82.96 32.12 82.96Z" fill="#C69754"/>
<path id="Vector_4" d="M155.87 114.03C148.16 114.03 140.37 111.77 133.92 107.67C127.55 103.62 123.75 98.51 123.75 94C123.75 84.98 138.57 73.97 155.87 73.97C173.17 73.97 187.99 85.17 187.99 94C187.99 98.51 184.19 103.62 177.82 107.67C171.37 111.77 163.58 114.03 155.87 114.03ZM155.87 82.96C142.46 82.96 132.9 91.25 132.75 94C132.83 94.65 134.49 97.45 139.12 100.3C141.99 102.07 147.98 105.03 155.87 105.03C163.76 105.03 169.75 102.07 172.62 100.3C177.25 97.45 178.91 94.65 178.99 93.95C178.67 91.68 169.61 82.96 155.87 82.96Z" fill="#C69754"/>
<path id="Vector_5" d="M93.99 130.67L57.32 94L93.99 57.33L130.66 94L93.99 130.67ZM70.04 94L93.99 117.95L117.94 94L93.99 70.05L70.04 94Z" fill="#C69754"/>
</g>
<defs>
<clipPath id="clip0_146_10696">
<rect width="187.99" height="187.99" fill="white"/>
</clipPath>
</defs>
</svg>
