<svg viewBox="0 0 60 60" fill="none" xmlns="http://www.w3.org/2000/svg">
  <g clip-path="url(#clip0_79_9276)">
  <rect x="29" y="-14" width="2" height="88" fill="#C69754"/>
  <rect x="40.4221" y="-12.7595" width="2" height="88" transform="rotate(15 40.4221 -12.7595)" fill="#C69754"/>
  <rect x="67.6052" y="7.13403" width="2" height="88" transform="rotate(60 67.6052 7.13403)" fill="#C69754"/>
  <rect x="72.2419" y="17.647" width="2" height="88" transform="rotate(75 72.2419 17.647)" fill="#C69754"/>
  <rect x="51.134" y="-8.60522" width="2" height="88" transform="rotate(30 51.134 -8.60522)" fill="#C69754"/>
  <rect x="60.4065" y="-1.81982" width="2" height="88" transform="rotate(45 60.4065 -1.81982)" fill="#C69754"/>
  <rect x="74" y="29" width="2" height="88" transform="rotate(90 74 29)" fill="#C69754"/>
  <rect x="72.7595" y="40.4221" width="2" height="88" transform="rotate(105 72.7595 40.4221)" fill="#C69754"/>
  <rect x="52.866" y="67.6052" width="2" height="88" transform="rotate(150 52.866 67.6052)" fill="#C69754"/>
  <rect x="42.353" y="72.2419" width="2" height="88" transform="rotate(165 42.353 72.2419)" fill="#C69754"/>
  <rect x="68.6052" y="51.134" width="2" height="88" transform="rotate(120 68.6052 51.134)" fill="#C69754"/>
  <rect x="61.8198" y="60.4065" width="2" height="88" transform="rotate(135 61.8198 60.4065)" fill="#C69754"/>
  </g>
  <defs>
  <clipPath id="clip0_79_9276">
  <rect width="60" height="60" fill="white"/>
  </clipPath>
  </defs>
  </svg>
  