<svg viewBox="0 0 192 250" fill="none" xmlns="http://www.w3.org/2000/svg">
<g id="time" clip-path="url(#clip0_146_10671)">
<path id="Vector" d="M66.61 172.65C93.1583 172.65 114.68 151.128 114.68 124.58C114.68 98.0317 93.1583 76.51 66.61 76.51C40.0616 76.51 18.54 98.0317 18.54 124.58C18.54 151.128 40.0616 172.65 66.61 172.65Z" fill="#C69754"/>
<path id="Vector_2" d="M71.61 0H61.61V124.58H71.61V0Z" fill="#C69754"/>
<path id="Vector_3" d="M49.9047 1.04745L40.0566 2.78394L61.6863 125.452L71.5343 123.715L49.9047 1.04745Z" fill="#C69754"/>
<path id="Vector_4" d="M28.7088 5.82501L19.3118 9.24521L61.9139 126.293L71.3108 122.873L28.7088 5.82501Z" fill="#C69754"/>
<path id="Vector_5" d="M8.65806 14.205L-0.00219727 19.205L62.2778 127.077L70.9381 122.077L8.65806 14.205Z" fill="#C69754"/>
<path id="Vector_6" d="M71.61 124.58H61.61V249.14H71.61V124.58Z" fill="#C69754"/>
<path id="Vector_7" d="M71.5358 123.708L61.6877 125.444L83.3174 248.112L93.1654 246.376L71.5358 123.708Z" fill="#C69754"/>
<path id="Vector_8" d="M71.3131 122.876L61.9162 126.296L104.518 243.344L113.915 239.924L71.3131 122.876Z" fill="#C69754"/>
<path id="Vector_9" d="M70.9441 122.082L62.2839 127.082L124.564 234.954L133.224 229.954L70.9441 122.082Z" fill="#C69754"/>
<path id="Vector_10" d="M70.4342 121.372L62.7738 127.8L142.839 223.218L150.5 216.79L70.4342 121.372Z" fill="#C69754"/>
<path id="Vector_11" d="M69.8167 120.752L63.3889 128.412L158.807 208.478L165.235 200.818L69.8167 120.752Z" fill="#C69754"/>
<path id="Vector_12" d="M69.1064 120.251L64.1064 128.911L171.979 191.191L176.979 182.531L69.1064 120.251Z" fill="#C69754"/>
<path id="Vector_13" d="M68.3188 119.881L64.8986 129.278L181.947 171.88L185.367 162.483L68.3188 119.881Z" fill="#C69754"/>
<path id="Vector_14" d="M67.4857 119.657L65.7492 129.505L188.417 151.135L190.153 141.287L67.4857 119.657Z" fill="#C69754"/>
<path id="Vector_15" d="M191.17 119.58H66.61V129.58H191.17V119.58Z" fill="#C69754"/>
<path id="Vector_16" d="M188.408 98.0262L65.7402 119.656L67.4767 129.504L190.144 107.874L188.408 98.0262Z" fill="#C69754"/>
<path id="Vector_17" d="M181.942 77.285L64.8934 119.887L68.3136 129.284L185.362 86.6819L181.942 77.285Z" fill="#C69754"/>
<path id="Vector_18" d="M171.985 57.9663L64.1133 120.246L69.1133 128.907L176.985 66.6265L171.985 57.9663Z" fill="#C69754"/>
<path id="Vector_19" d="M158.817 40.6925L63.3987 120.758L69.8266 128.419L165.245 48.353L158.817 40.6925Z" fill="#C69754"/>
<path id="Vector_20" d="M142.845 25.9469L62.7797 121.365L70.4401 127.793L150.506 32.3748L142.845 25.9469Z" fill="#C69754"/>
<path id="Vector_21" d="M124.561 14.21L62.2809 122.082L70.9411 127.082L133.221 19.21L124.561 14.21Z" fill="#C69754"/>
<path id="Vector_22" d="M104.516 5.82131L61.9136 122.869L71.3106 126.29L113.913 9.24151L104.516 5.82131Z" fill="#C69754"/>
<path id="Vector_23" d="M83.3237 1.04738L61.6941 123.715L71.5422 125.452L93.1718 2.78386L83.3237 1.04738Z" fill="#C69754"/>
</g>
<defs>
<clipPath id="clip0_146_10671">
<rect width="191.17" height="249.14" fill="white"/>
</clipPath>
</defs>
</svg>
