<svg viewBox="0 0 149 435" fill="none" xmlns="http://www.w3.org/2000/svg">
<g clip-path="url(#clip0_146_10711)">
<path d="M74.57 85.18C98.0918 85.18 117.16 66.1118 117.16 42.59C117.16 19.0682 98.0918 0 74.57 0C51.0482 0 31.98 19.0682 31.98 42.59C31.98 66.1118 51.0482 85.18 74.57 85.18Z" fill="#C69754"/>
<path d="M73.87 109.26C35.45 109.26 4.19 78 4.19 39.58H14.19C14.19 72.49 40.96 99.26 73.87 99.26C106.78 99.26 133.55 72.49 133.55 39.58H143.55C143.55 78 112.29 109.26 73.87 109.26Z" fill="#282828"/>
<path d="M79.11 74.59H69.11V434.41H79.11V74.59Z" fill="#C69754"/>
<path d="M143.67 114.6C136.84 114.84 130.31 114.67 124 114.51C106.8 114.06 91.94 113.68 82.68 122.71C78.13 127.14 75.41 133.47 74.43 141.91C73.45 133.47 70.73 127.14 66.18 122.71C56.91 113.68 42.06 114.07 24.86 114.51C18.55 114.67 12.02 114.84 5.19 114.6L0 114.42V124.09C0 138.26 2.84 147.55 8.96 153.3C14.93 158.92 23.15 160.29 32.75 160.29C37.11 160.29 41.75 160.01 46.6 159.71C53.57 159.29 61.47 158.81 69.68 159.08L72.24 159.17C73.69 159.22 75.15 159.22 76.6 159.17L79.16 159.08C87.36 158.81 95.27 159.29 102.24 159.71C107.09 160 111.74 160.29 116.09 160.29C125.7 160.29 133.91 158.92 139.88 153.3C145.99 147.55 148.84 138.26 148.84 124.09V114.42L143.66 114.61L143.67 114.6ZM46 149.72C32.23 150.55 21.35 151.22 15.81 146.01C11.97 142.4 10.07 135.43 10 124.71C15.23 124.76 20.23 124.63 25.11 124.51C40.66 124.1 52.95 123.79 59.19 129.87C62.91 133.5 64.77 139.76 64.84 149C58.09 149.01 51.73 149.38 45.99 149.73L46 149.72ZM133.04 146.01C127.51 151.22 116.62 150.56 102.85 149.72C97.15 149.37 90.86 148.99 84.17 148.99H84C84.08 139.75 85.93 133.49 89.65 129.86C95.9 123.78 108.18 124.09 123.73 124.5C128.61 124.63 133.61 124.76 138.84 124.7C138.77 135.42 136.87 142.39 133.03 146L133.04 146.01Z" fill="#282828"/>
<path d="M143.67 167.43C136.84 167.67 130.31 167.5 124 167.34C106.8 166.89 91.94 166.51 82.68 175.54C78.13 179.97 75.41 186.3 74.43 194.74C73.45 186.3 70.73 179.97 66.18 175.54C56.91 166.51 42.06 166.9 24.86 167.34C18.55 167.5 12.02 167.67 5.19 167.43L0 167.24V176.91C0 191.08 2.84 200.37 8.96 206.12C14.93 211.74 23.15 213.11 32.75 213.11C37.11 213.11 41.75 212.83 46.6 212.53C53.57 212.11 61.47 211.63 69.68 211.9L72.24 211.99C73.69 212.04 75.15 212.04 76.6 211.99L79.16 211.9C87.36 211.63 95.27 212.11 102.24 212.53C107.09 212.82 111.74 213.11 116.09 213.11C125.7 213.11 133.91 211.74 139.88 206.12C145.99 200.37 148.84 191.08 148.84 176.91V167.24L143.66 167.43H143.67ZM46 202.55C32.23 203.38 21.35 204.05 15.81 198.84C11.97 195.23 10.07 188.26 10 177.54C15.23 177.59 20.23 177.46 25.11 177.34C40.66 176.93 52.95 176.62 59.19 182.7C62.91 186.33 64.77 192.59 64.84 201.83C58.09 201.84 51.73 202.21 45.99 202.56L46 202.55ZM133.04 198.84C127.51 204.05 116.62 203.39 102.85 202.55C97.15 202.2 90.86 201.82 84.17 201.82H84C84.08 192.58 85.93 186.32 89.65 182.69C95.9 176.61 108.18 176.92 123.73 177.33C128.61 177.46 133.61 177.59 138.84 177.53C138.77 188.25 136.87 195.22 133.03 198.83L133.04 198.84Z" fill="#282828"/>
<path d="M143.67 220.25C136.84 220.49 130.31 220.32 124 220.16C106.8 219.71 91.94 219.33 82.68 228.36C78.13 232.79 75.41 239.12 74.43 247.56C73.45 239.12 70.73 232.79 66.18 228.36C56.91 219.33 42.06 219.72 24.86 220.16C18.55 220.32 12.02 220.49 5.19 220.25L0 220.06V229.73C0 243.9 2.84 253.19 8.96 258.94C14.93 264.56 23.15 265.93 32.75 265.93C37.11 265.93 41.75 265.65 46.6 265.35C53.57 264.93 61.47 264.45 69.68 264.72L72.24 264.81C73.69 264.86 75.15 264.86 76.6 264.81L79.16 264.72C87.36 264.45 95.27 264.93 102.24 265.35C107.09 265.64 111.74 265.93 116.09 265.93C125.7 265.93 133.91 264.56 139.88 258.94C145.99 253.19 148.84 243.9 148.84 229.73V220.06L143.66 220.25H143.67ZM46 255.37C32.23 256.2 21.35 256.87 15.81 251.66C11.97 248.05 10.07 241.08 10 230.36C15.23 230.41 20.23 230.28 25.11 230.16C40.66 229.75 52.95 229.44 59.19 235.52C62.91 239.15 64.77 245.41 64.84 254.65C58.09 254.66 51.73 255.03 45.99 255.38L46 255.37ZM133.04 251.66C127.51 256.87 116.62 256.21 102.85 255.37C97.15 255.02 90.86 254.64 84.17 254.64H84C84.08 245.4 85.93 239.14 89.65 235.51C95.9 229.43 108.18 229.74 123.73 230.15C128.61 230.28 133.61 230.41 138.84 230.35C138.77 241.07 136.87 248.04 133.03 251.65L133.04 251.66Z" fill="#282828"/>
<path d="M143.67 273.07C136.84 273.31 130.31 273.14 124 272.98C106.8 272.53 91.94 272.15 82.68 281.18C78.13 285.61 75.41 291.94 74.43 300.38C73.45 291.94 70.73 285.61 66.18 281.18C56.91 272.15 42.06 272.54 24.86 272.98C18.55 273.14 12.02 273.31 5.19 273.07L0 272.88V282.55C0 296.72 2.84 306.01 8.96 311.76C14.93 317.38 23.15 318.75 32.75 318.75C37.11 318.75 41.75 318.47 46.6 318.17C53.57 317.75 61.47 317.27 69.68 317.54L72.24 317.63C73.69 317.68 75.15 317.68 76.6 317.63L79.16 317.54C87.36 317.27 95.27 317.75 102.24 318.17C107.09 318.46 111.74 318.75 116.09 318.75C125.7 318.75 133.91 317.38 139.88 311.76C145.99 306.01 148.84 296.72 148.84 282.55V272.88L143.66 273.07H143.67ZM46 308.19C32.23 309.02 21.35 309.69 15.81 304.48C11.97 300.87 10.07 293.9 10 283.18C15.23 283.23 20.23 283.1 25.11 282.98C40.66 282.57 52.95 282.26 59.19 288.34C62.91 291.97 64.77 298.23 64.84 307.47C58.09 307.48 51.73 307.85 45.99 308.2L46 308.19ZM133.04 304.48C127.51 309.69 116.62 309.03 102.85 308.19C97.15 307.84 90.86 307.46 84.17 307.46H84C84.08 298.22 85.93 291.96 89.65 288.33C95.9 282.25 108.18 282.56 123.73 282.97C128.61 283.1 133.61 283.23 138.84 283.17C138.77 293.89 136.87 300.86 133.03 304.47L133.04 304.48Z" fill="#282828"/>
<path d="M143.67 325.89C136.84 326.13 130.31 325.96 124 325.8C106.8 325.35 91.94 324.97 82.68 334C78.13 338.43 75.41 344.76 74.43 353.2C73.45 344.76 70.73 338.43 66.18 334C56.91 324.97 42.06 325.36 24.86 325.8C18.55 325.96 12.02 326.13 5.19 325.89L0 325.71V335.38C0 349.55 2.84 358.84 8.96 364.59C14.93 370.21 23.15 371.58 32.75 371.58C37.11 371.58 41.75 371.3 46.6 371C53.57 370.58 61.47 370.1 69.68 370.37L72.24 370.46C73.69 370.51 75.15 370.51 76.6 370.46L79.16 370.37C87.36 370.1 95.27 370.58 102.24 371C107.09 371.29 111.74 371.58 116.09 371.58C125.7 371.58 133.91 370.21 139.88 364.59C145.99 358.84 148.84 349.55 148.84 335.38V325.71L143.66 325.9L143.67 325.89ZM46 361.01C32.23 361.84 21.35 362.51 15.81 357.3C11.97 353.69 10.07 346.72 10 336C15.23 336.05 20.23 335.92 25.11 335.8C40.66 335.39 52.95 335.08 59.19 341.16C62.91 344.79 64.77 351.05 64.84 360.29C58.09 360.3 51.73 360.67 45.99 361.02L46 361.01ZM133.04 357.3C127.51 362.51 116.62 361.85 102.85 361.01C97.15 360.66 90.86 360.28 84.17 360.28H84C84.08 351.04 85.93 344.78 89.65 341.15C95.9 335.07 108.18 335.38 123.73 335.79C128.61 335.92 133.61 336.05 138.84 335.99C138.77 346.71 136.87 353.68 133.03 357.29L133.04 357.3Z" fill="#282828"/>
</g>
<defs>
<clipPath id="clip0_146_10711">
<rect width="148.85" height="434.42" fill="white"/>
</clipPath>
</defs>
</svg>
