<svg width="144" height="44" viewBox="0 0 144 44" fill="none" xmlns="http://www.w3.org/2000/svg">
<path d="M143.024 15.4279C142.984 12.7344 142.418 10.1213 141.069 7.74898C138.416 3.07259 134.161 0.929074 128.995 0.736399C123.118 0.519639 117.226 0.672174 111.345 0.66816C111.225 0.66816 111.104 0.7083 110.936 0.736399V26.6111L111.494 42.9524C111.743 43.3377 112.004 43.4902 112.465 43.4862C116.66 43.4662 120.855 43.4983 125.049 43.4662C126.908 43.4501 128.786 43.4662 130.617 43.2052C134.607 42.6473 137.975 40.9052 140.335 37.5133C142.233 34.7797 142.948 31.6728 143.02 28.4335C143.117 24.1023 143.092 19.7631 143.024 15.4279ZM133.342 26.6031C133.298 27.8996 133.186 29.2122 132.913 30.4766C132.259 33.5394 130.139 35.5946 127.012 35.8675C124.403 36.0963 121.762 35.9157 119.056 35.9157V8.15038C119.217 8.13031 119.377 8.0982 119.538 8.0982C121.593 8.09419 123.648 8.06609 125.7 8.0982C127.803 8.1263 129.686 8.72439 131.211 10.2738C132.471 11.5503 132.965 13.1359 133.166 14.8338C133.627 18.7515 133.479 22.6813 133.338 26.6071L133.342 26.6031Z" fill="black"/>
<path d="M95.1442 17.6396L94.8552 17.4751L111.514 42.9804C106.163 34.6673 100.796 26.3622 95.4292 18.0571C95.3369 17.9166 95.2406 17.7801 95.1482 17.6396H95.1442Z" fill="black"/>
<path d="M86.6104 43.4942C89.1071 43.4902 91.6079 43.4942 94.1046 43.4942C94.3334 43.4942 94.5582 43.4942 94.8553 43.4942V17.4791L111.514 42.9845L110.936 26.6151C105.557 18.318 99.6641 9.49107 94.2973 1.18998C94.0645 0.828711 93.8196 0.672163 93.3781 0.676177C91.3028 0.700261 89.2275 0.684205 87.1523 0.688219C86.9475 0.688219 86.7428 0.716317 86.4739 0.736388V31.3035" fill="black"/>
<path d="M51.6838 42.9484C51.8886 43.3698 52.1174 43.5224 52.595 43.5143C55.4209 43.4822 58.2428 43.4822 61.0687 43.4983C61.5303 43.4983 61.7391 43.3618 61.8876 42.9203C62.6061 40.7527 63.3648 38.6011 64.0873 36.4375C64.2158 36.0522 64.3844 35.9037 64.8018 35.9077C69.5304 35.9197 74.259 35.9197 78.9915 35.9077C79.405 35.9077 79.5856 36.0401 79.7141 36.4335C80.4085 38.5851 81.1551 40.7206 81.8415 42.8721C81.9981 43.3658 82.2309 43.5103 82.7447 43.5063C84.0332 43.4983 85.3217 43.4903 86.6102 43.4903L86.4698 31.2955C86.257 31.0627 86.1567 30.8178 86.0643 30.565C82.4958 20.8108 78.9233 11.0606 75.3709 1.3024C75.1942 0.820711 74.9735 0.656135 74.4556 0.664163C72.7015 0.700289 70.9473 0.696275 69.1932 0.664163C68.7115 0.656135 68.4988 0.800641 68.3302 1.26627C64.5088 11.7912 60.6633 22.304 56.8259 32.8209C56.7496 33.0296 56.6613 33.2383 56.5288 33.5835M66.6282 28.855C68.4225 23.7049 70.2048 18.591 71.983 13.4811C72.0271 13.4731 72.0713 13.469 72.1154 13.461C73.8335 18.5709 75.5555 23.6768 77.2976 28.855H66.6282Z" fill="black"/>
<path d="M29.2093 37.1399V43.446H37.5545V26.4063C39.3327 26.4063 41.0427 26.4344 42.7527 26.3902C43.3709 26.3742 43.688 26.5548 43.965 27.1288C46.5219 32.4113 49.119 37.6738 51.684 42.9483L56.521 33.5915C55.0077 30.6732 53.5586 27.8875 52.1015 25.0776C52.242 25.0014 52.3142 24.9572 52.3865 24.9251C58.1226 22.4725 60.9124 17.1258 59.6399 11.0284C58.5681 5.88235 54.6665 1.0735 47.2966 0.764413C41.4 0.515541 35.4873 0.696174 29.5826 0.688146C29.4621 0.688146 29.3457 0.724272 29.1812 0.752371V19.486M51.5275 14.2718C51.387 16.7846 49.5244 18.8518 46.9233 19.2934C46.1285 19.4298 45.3057 19.4338 44.4988 19.4419C42.275 19.4579 40.0512 19.4419 37.8275 19.4338C37.7632 19.4338 37.703 19.4138 37.5665 19.3937V8.1784C37.7552 8.16234 37.9398 8.13023 38.1205 8.13023C40.6012 8.12622 43.0819 8.10614 45.5586 8.13023C46.2128 8.13826 46.8872 8.22255 47.5134 8.39917C50.1948 9.16184 51.688 11.3816 51.5275 14.2677V14.2718Z" fill="black"/>
<path d="M29.1851 19.4821H15.8785V26.4505H23.4169C23.4169 27.2613 23.437 28.0039 23.4169 28.7465C23.2925 32.9091 20.7716 35.719 16.6371 36.1565C12.7475 36.5659 9.43189 34.3702 8.87795 30.4726C8.68929 29.1439 8.50063 27.7992 8.51267 26.4625C8.54478 22.2799 8.60901 18.0972 8.78563 13.9186C8.86992 11.9477 9.75302 10.2658 11.3586 9.0214C13.7631 7.15888 17.6366 7.00634 20.3542 8.76049C21.4219 9.45091 22.3773 10.322 23.2684 11.0244C25.1229 9.22612 27.0175 7.38366 29.0406 5.4248C27.712 4.3972 26.4877 3.28129 25.1028 2.41826C21.0486 -0.114616 16.5569 -0.495953 12.0451 0.527634C6.49761 1.78805 2.52769 5.06353 0.918053 10.7113C0.528689 12.0761 0.28383 13.5172 0.215591 14.9301C-0.037295 20.2407 -0.181802 25.5634 0.448407 30.8619C0.821716 34.009 2.02995 36.8349 4.37818 39.0747C7.91859 42.4465 12.1494 43.9478 17.0225 43.6146C21.8073 43.2895 25.7973 41.3828 28.8078 37.5855C28.8921 37.4771 28.9925 37.3808 29.2132 37.1399" fill="black"/>
</svg>
