<svg viewBox="0 0 473 473" fill="none" xmlns="http://www.w3.org/2000/svg">
  <g class="animate-spin origin-center">
    <path d="M243.473 -112.118H231.21V237.341H243.473V-112.118Z" fill="#C69754"/>
    <path d="M182.692 -107.865L170.615 -105.736L231.298 238.414L243.375 236.285L182.692 -107.865Z" fill="#C69754"/>
    <path d="M123.584 -93.128L112.061 -88.9338L231.583 239.451L243.106 235.256L123.584 -93.128Z" fill="#C69754"/>
    <path d="M67.9154 -68.3654L57.2954 -62.2339L232.025 240.407L242.645 234.275L67.9154 -68.3654Z" fill="#C69754"/>
    <path d="M17.4152 -34.2917L8.02124 -26.4092L232.649 241.292L242.043 233.41L17.4152 -34.2917Z" fill="#C69754"/>
    <path d="M-26.4205 8.01801L-34.303 17.412L233.398 242.04L241.281 232.646L-26.4205 8.01801Z" fill="#C69754"/>
    <path d="M-62.245 57.3145L-68.3765 67.9346L234.264 242.664L240.396 232.044L-62.245 57.3145Z" fill="#C69754"/>
    <path d="M-88.9394 112.06L-93.1335 123.583L235.251 243.105L239.445 231.582L-88.9394 112.06Z" fill="#C69754"/>
    <path d="M-105.746 170.62L-107.876 182.696L236.275 243.379L238.404 231.303L-105.746 170.62Z" fill="#C69754"/>
    <path d="M237.341 231.21H-112.118V243.473H237.341V231.21Z" fill="#C69754"/>
    <path d="M236.283 231.309L-107.868 291.992L-105.738 304.069L238.412 243.386L236.283 231.309Z" fill="#C69754"/>
    <path d="M235.243 231.609L-93.1414 351.132L-88.9472 362.655L239.437 243.133L235.243 231.609Z" fill="#C69754"/>
    <path d="M234.288 232.035L-68.353 406.764L-62.2215 417.385L240.419 242.655L234.288 232.035Z" fill="#C69754"/>
    <path d="M233.414 232.719L-34.3264 457.3L-26.4456 466.695L241.295 242.114L233.414 232.719Z" fill="#C69754"/>
    <path d="M232.662 233.389L8.03418 501.09L17.4282 508.973L242.056 241.271L232.662 233.389Z" fill="#C69754"/>
    <path d="M232.025 234.305L57.2954 536.946L67.9154 543.078L242.645 240.437L232.025 234.305Z" fill="#C69754"/>
    <path d="M231.575 235.23L112.053 563.615L123.576 567.809L243.098 239.424L231.575 235.23Z" fill="#C69754"/>
    <path d="M231.266 236.243L170.644 580.404L182.721 582.531L243.343 238.37L231.266 236.243Z" fill="#C69754"/>
    <path d="M243.473 237.342H231.21V586.801H243.473V237.342Z" fill="#C69754"/>
    <path d="M243.385 236.286L231.309 238.415L291.992 582.566L304.068 580.436L243.385 236.286Z" fill="#C69754"/>
    <path d="M243.108 235.256L231.585 239.45L351.107 567.834L362.631 563.64L243.108 235.256Z" fill="#C69754"/>
    <path d="M242.658 234.292L232.038 240.423L406.768 543.064L417.388 536.933L242.658 234.292Z" fill="#C69754"/>
    <path d="M242.05 233.4L232.656 241.282L457.284 508.983L466.678 501.101L242.05 233.4Z" fill="#C69754"/>
    <path d="M241.287 232.667L233.404 242.061L501.105 466.689L508.988 457.295L241.287 232.667Z" fill="#C69754"/>
    <path d="M240.406 232.037L234.274 242.657L536.915 417.386L543.047 406.766L240.406 232.037Z" fill="#C69754"/>
    <path d="M239.454 231.589L235.26 243.113L563.644 362.635L567.838 351.111L239.454 231.589Z" fill="#C69754"/>
    <path d="M238.403 231.321L236.273 243.398L580.423 304.081L582.553 292.004L238.403 231.321Z" fill="#C69754"/>
    <path d="M586.801 231.21H237.342V243.473H586.801V231.21Z" fill="#C69754"/>
    <path d="M580.434 170.689L236.273 231.312L238.401 243.389L582.561 182.766L580.434 170.689Z" fill="#C69754"/>
    <path d="M563.633 112.086L235.249 231.609L239.443 243.132L567.828 123.61L563.633 112.086Z" fill="#C69754"/>
    <path d="M536.918 57.2946L234.277 232.024L240.408 242.644L543.049 67.9146L536.918 57.2946Z" fill="#C69754"/>
    <path d="M501.105 8.00318L233.404 232.631L241.287 242.025L508.988 17.3972L501.105 8.00318Z" fill="#C69754"/>
    <path d="M457.292 -34.2829L232.664 233.418L242.058 241.301L466.686 -26.4005L457.292 -34.2829Z" fill="#C69754"/>
    <path d="M406.776 -68.3323L232.046 234.308L242.666 240.44L417.396 -62.2009L406.776 -68.3323Z" fill="#C69754"/>
    <path d="M351.11 -93.1497L231.588 235.235L243.111 239.429L362.633 -88.9555L351.11 -93.1497Z" fill="#C69754"/>
    <path d="M291.947 -107.881L231.324 236.28L243.401 238.407L304.024 -105.754L291.947 -107.881Z" fill="#C69754"/>
  </g>
  <path d="M419.189 236.981C419.189 236.981 337.71 137.563 237.206 137.563C136.703 137.563 55.2241 236.981 55.2241 236.981C55.2241 236.981 136.703 336.399 237.206 336.399C337.71 336.399 419.189 236.981 419.189 236.981Z" fill="#FAEBDC"/>
  <path d="M236.561 314.536C279.625 314.536 314.536 279.625 314.536 236.561C314.536 193.497 279.625 158.586 236.561 158.586C193.496 158.586 158.586 193.497 158.586 236.561C158.586 279.625 193.496 314.536 236.561 314.536Z" fill="#282828"/>
  </svg>
  