<svg width="170" height="42" viewBox="0 0 170 42" fill="none" xmlns="http://www.w3.org/2000/svg">
<path id="grain bottom left" d="M9.69971 0.694207C9.95496 0.694207 10.2102 1.04132 10.4655 1.04132C10.7207 1.04132 10.976 1.04132 11.4865 0.694207C10.976 0.3471 10.976 -6.95116e-06 10.7207 -6.96232e-06C10.4655 0.347101 9.95496 0.3471 9.69971 0.694207ZM5.1051 1.73553L6.12613 2.42975L7.4024 1.73553C7.14716 1.38842 6.89191 1.38842 6.38139 1.04132C6.12614 1.38842 5.61562 1.38842 5.1051 1.73553ZM-1.97243e-07 4.51239L0.255249 5.55371L1.27629 4.8595C1.02104 4.8595 0.765762 4.51239 0.510513 4.51239C0.255264 4.16528 -1.97243e-07 4.51239 -1.97243e-07 4.51239ZM127.883 9.02479L128.138 9.3719L128.649 9.02479L128.393 8.67769C128.138 8.67769 128.138 9.02479 127.883 9.02479ZM24.2493 12.1488C24.5045 12.1488 24.5045 12.4959 24.5045 12.4959C24.7597 12.4959 25.015 12.1488 25.015 12.1488C25.015 12.1488 25.015 11.8016 24.7598 11.8016C24.7598 11.8016 24.5045 12.1488 24.2493 12.1488ZM92.6577 12.1488C92.6577 12.1488 92.6577 12.4959 92.9129 12.4959C92.9129 12.4959 93.1682 12.1488 93.4234 12.1488L93.1682 11.8017L92.6577 12.1488ZM125.586 12.1488L125.841 12.4959C126.096 12.4959 126.096 12.1488 126.096 11.8017C126.096 11.8017 126.096 11.8017 125.841 11.4545L125.586 12.1488ZM134.009 12.1488L134.52 12.4959C134.52 12.4959 134.52 12.1488 134.775 11.8017C134.775 11.8017 134.52 11.8017 134.52 11.4545L134.009 12.1488ZM108.739 19.438C108.739 19.0909 108.483 19.0909 108.483 19.0909C108.228 19.0909 107.973 19.438 107.973 19.438L108.228 19.7851L108.739 19.438ZM2.80781 19.7851C2.55257 19.438 2.55255 18.7438 2.55255 19.0909C2.04204 19.0909 1.78679 19.0909 1.53154 19.438C1.53154 19.438 1.53154 19.7851 1.78679 19.7851C2.04204 19.7851 2.55257 19.7851 2.80781 19.7851ZM84.2342 15.2727L84.4895 15.6198L85 15.2727C84.7448 15.2727 84.7448 14.9256 84.7448 14.9256C84.4895 14.9256 84.2342 15.2727 84.2342 15.2727ZM86.5315 16.314C86.5315 16.314 86.5315 16.6612 86.7868 16.6612C86.7868 16.6612 87.0421 16.314 87.2973 16.314L87.042 15.9669L86.5315 16.314ZM143.198 16.3141L143.453 16.6612C143.709 16.6612 143.709 16.3141 143.964 16.3141L143.709 15.9669L143.198 16.3141ZM-8.3449e-07 19.0909C-8.49663e-07 19.438 -8.64836e-07 19.7851 0.255248 19.7851L0.510512 19.438L0.255248 18.7438C-8.3449e-07 19.0909 -8.3449e-07 19.0909 -8.3449e-07 19.0909ZM82.7027 20.4793C82.7027 20.4793 82.7027 20.8264 82.958 20.8264C82.958 20.8264 83.2132 20.4793 83.4685 20.4793L83.2132 20.1322L82.7027 20.4793ZM136.562 23.2562C136.562 23.6033 136.562 23.9504 136.817 24.2975L137.072 23.6033L136.817 23.2562C136.562 23.2562 136.562 23.2562 136.562 23.2562ZM108.739 26.7273L108.994 27.0744L109.505 26.7273L109.249 26.3802C108.994 26.3802 108.994 26.7273 108.739 26.7273ZM169.234 26.7273L169.745 27.0744L170 26.7273C170 26.7273 169.745 26.3802 169.489 26.3802C169.489 26.3802 169.489 26.7273 169.234 26.7273ZM27.3123 28.8099C27.5676 28.8099 27.5676 29.157 27.5676 29.157C27.8228 29.157 28.0781 28.8099 28.0781 28.8099C28.0781 28.8099 28.0781 28.4628 27.8228 28.4628C27.8228 28.4628 27.5676 28.8099 27.3123 28.8099ZM104.144 30.8926L104.91 31.5868L105.676 30.8926C105.42 30.5455 104.91 30.5455 104.655 30.5455C104.399 30.5455 104.399 30.8926 104.144 30.8926ZM81.9369 39.5703C82.1922 39.5703 82.7027 39.2231 82.7027 39.2231C82.4474 38.876 82.4475 38.1818 82.4475 37.8347C82.1922 37.8347 81.9369 38.1818 81.9369 38.1818C81.9369 38.876 81.9369 39.2231 81.9369 39.5703ZM105.931 37.8347C105.42 37.8347 105.165 37.8347 104.91 38.1818C105.165 38.5289 105.165 38.5289 105.42 38.5289C105.931 38.5289 106.186 38.5289 106.441 38.1818C106.186 38.1818 105.931 37.8347 105.931 37.8347ZM166.937 38.1818L166.426 37.8347L166.171 38.1818C166.426 38.1818 166.682 38.5289 166.682 38.5289C166.937 38.5289 166.937 38.1818 166.937 38.1818ZM112.312 38.5289L112.057 37.8347C112.057 37.8347 111.802 37.8347 111.802 38.1818C112.057 38.1818 112.057 38.5289 112.057 38.876L112.312 38.5289ZM98.5285 34.0165L98.5285 33.6694C98.5285 33.6694 98.5285 33.6694 98.2733 33.6694L98.018 34.0165L98.2733 34.7108C98.5285 34.3636 98.5285 34.0165 98.5285 34.0165ZM94.955 34.0165L95.2102 34.3636L95.7207 34.0165C95.4655 34.0165 95.4655 33.6694 95.4655 33.6694C95.2102 33.6694 94.955 34.0165 94.955 34.0165ZM14.5496 35.0579L14.5496 34.7107C15.0601 36.0992 16.0811 35.0579 17.3574 35.7521L19.6547 35.405C18.8889 34.0165 17.8679 34.7107 17.1021 34.7107C16.0811 34.7107 15.3153 34.7107 14.5496 35.0579ZM4.08409 38.876L4.08409 38.5289C6.12613 38.5289 7.9129 38.5289 9.95494 38.876C10.2102 38.5289 10.2102 38.5289 10.4655 38.1818C10.2102 38.1818 10.2102 37.8347 9.95494 37.8347C8.93391 37.8347 8.16817 37.8347 7.14714 37.8347C6.12611 37.8347 5.36037 37.8347 4.08409 37.8347C4.08409 37.8347 3.82883 38.1818 3.57358 38.1818C3.82883 38.5289 4.08409 38.876 4.08409 38.876ZM57.1772 39.2231L57.1772 38.876C56.9219 38.876 56.6667 38.5289 56.4114 38.876C56.1562 38.876 56.1562 39.2231 55.9009 39.5703L56.9219 39.9174L57.1772 39.2231ZM28.0781 39.2231L27.8228 38.876L27.3123 39.2231C27.5676 39.2231 27.5676 39.5703 27.5676 39.5703C27.8228 39.5703 28.0781 39.2231 28.0781 39.2231ZM0.255247 39.2231L0.765761 40.6116C1.02101 40.2645 1.27629 39.9174 1.27629 39.5703C1.27629 39.5703 1.02101 39.2231 1.02101 38.876L0.255247 39.2231ZM163.108 41.3058L162.853 40.9587C162.598 40.9587 162.598 41.3058 162.598 41.6529C162.598 41.6529 162.598 41.6529 162.853 42L163.108 41.3058ZM66.1111 41.6529C66.1111 41.6529 66.3664 41.3058 66.6216 41.3058L66.1111 40.9587L65.8559 41.3058C65.8559 41.3058 65.8559 41.6529 66.1111 41.6529ZM18.1231 41.3058L18.8889 42L19.6547 41.3058C19.3994 40.9587 19.1441 40.9587 18.6336 40.9587C18.6336 40.9587 18.3784 41.3058 18.1231 41.3058Z" fill="currentColor"/>
</svg>
