<svg width="140" height="324" viewBox="0 0 140 324" fill="none" xmlns="http://www.w3.org/2000/svg">
  <g clip-path="url(#clip0_300_8681)">
  <path d="M75.3428 238.918L75.3428 0L64.6693 -4.66551e-07L64.6693 238.918L75.3428 238.918Z" fill="#C69754"/>
  <path d="M70.0059 51.0243L70.0059 40.4287L28.5336 40.4287L28.5336 51.0243L70.0059 51.0243Z" fill="#C69754"/>
  <path d="M70.0059 73.2381L70.0059 62.6426L28.5336 62.6426L28.5336 73.2381L70.0059 73.2381Z" fill="#C69754"/>
  <path d="M70.0059 29.703L70.0059 19.1074L28.5336 19.1074L28.5336 29.703L70.0059 29.703Z" fill="#C69754"/>
  <path d="M91.1631 204.212L91.1631 193.616L46.9039 193.616L46.9039 204.212L91.1631 204.212Z" fill="#C69754"/>
  <path d="M69.9953 234.797C70.3263 234.352 70.6817 233.94 71.061 233.562C75.4134 229.241 84.1775 228.029 94.507 230.312C105.157 232.667 115.308 238.212 123.088 245.935C140.166 262.876 144.281 288.929 135.564 297.582C127.866 305.224 107.578 303.297 91.0038 291.497C91.7641 287.51 92.1781 283.243 92.1825 278.805C106.745 292.38 125.016 293.044 127.998 290.095C128.828 289.271 129.35 287.152 129.35 284.208L129.362 284.208C129.362 276.674 125.946 263.747 115.546 253.434C106.959 244.911 97.2347 241.779 92.1945 240.661C84.5689 238.977 79.5879 240.096 78.6036 241.061C78.477 241.187 78.3292 241.426 78.1807 241.777C75.519 239.836 72.6018 238.765 69.543 238.765C66.74 238.765 64.0559 239.664 61.5783 241.308C61.5101 241.196 61.4445 241.11 61.3838 241.049C60.4113 240.084 55.4185 238.966 47.7929 240.649C42.7527 241.756 33.028 244.899 24.4418 253.423C9.9971 267.762 9.02464 287.152 11.9776 290.083C14.8885 292.973 32.5002 292.394 46.9087 279.598C46.9611 283.958 47.409 288.146 48.1915 292.055C31.7708 303.348 12.0092 305.101 4.43506 297.582C1.48207 294.651 -0.000368857 289.706 -0.000368599 283.808C-0.000368096 272.306 5.62099 257.131 16.8993 245.935C24.679 238.212 34.8306 232.667 45.4804 230.312C55.8099 228.029 64.5858 229.253 68.9264 233.562C69.307 233.94 69.6634 234.352 69.9953 234.797Z" fill="#C69754"/>
  <path d="M41.567 278.733C41.567 267.832 44.8164 256.777 50.7106 247.618C56.4149 238.753 63.4594 233.467 69.5433 233.467C81.877 233.467 97.5195 254.776 97.5195 278.733C97.5195 302.691 81.877 324 69.5432 324C57.2095 324 41.567 303.115 41.567 278.733ZM86.8579 278.733C86.8579 258.449 73.7296 244.062 69.5551 244.062C65.3806 244.062 52.2523 258.837 52.2523 278.733C52.2523 298.63 65.2502 313.404 69.5551 313.404C73.8601 313.404 86.8579 299.018 86.8579 278.733Z" fill="#C69754"/>
  </g>
  <defs>
  <clipPath id="clip0_300_8681">
  <rect width="324" height="140" fill="white" transform="translate(140) rotate(90)"/>
  </clipPath>
  </defs>
  </svg>
  