<?xml version="1.0" encoding="utf-8"?><svg viewBox="0 0 270 435" xmlns="http://www.w3.org/2000/svg" xmlns:xlink="http://www.w3.org/1999/xlink"><style>:root>svg{display:none}:root>svg:target{display:block}</style><svg viewBox="0 0 153 158" fill="none" id="bird" xmlns="http://www.w3.org/2000/svg"><g clip-path="url(#aa)"><path d="M102.79 0h-2.91c-1.65 0-3.31.19-4.92.56L0 22.4l59.94 19.61-.2 25.95c0 49.24 39.92 89.16 89.16 89.16h3.13V49.24C152.04 22.16 129.88 0 102.79 0Z" fill="#282828"/><path d="M136.84 26.25S120.05 8.19 99.33 8.19 61.82 26.25 61.82 26.25s16.79 18.06 37.51 18.06 37.51-18.06 37.51-18.06Z" fill="#FAEBDC"/><path d="M99.33 39.93c8.875 0 16.07-6.344 16.07-14.17s-7.195-14.17-16.07-14.17-16.07 6.344-16.07 14.17 7.195 14.17 16.07 14.17Z" fill="#282828"/></g><defs><clipPath id="aa"><path fill="#fff" d="M0 0h152.04v157.13H0z"/></clipPath></defs></svg><svg viewBox="0 0 248 136" fill="none" id="eye" xmlns="http://www.w3.org/2000/svg"><g clip-path="url(#ba)"><path d="M247.79 67.68S192.32 0 123.9 0 0 67.68 0 67.68s55.47 67.68 123.9 67.68 123.9-67.68 123.9-67.68h-.01Z" fill="currentColor"/><path d="M123.9 118.93c29.321 0 53.09-23.77 53.09-53.09 0-29.32-23.769-53.09-53.09-53.09-29.32 0-53.09 23.77-53.09 53.09 0 29.32 23.77 53.09 53.09 53.09Z" fill="#282828"/></g><defs><clipPath id="ba"><path fill="#fff" d="M0 0h247.79v135.37H0z"/></clipPath></defs></svg><svg viewBox="0 0 135 251" fill="none" id="hand" xmlns="http://www.w3.org/2000/svg"><g clip-path="url(#ca)"><path d="M134.55 247.62v-92.36c0-15.94-12.97-28.91-28.91-28.91h-12.1V0h-9.45c-9.77 0-17.86 7.29-19.16 16.71h-2.41c-10.68 0-19.37 8.69-19.37 19.37v41.64h-2.21c-9.29 0-17.07 6.58-18.94 15.33h-2.64c-10.68 0-19.37 8.69-19.37 19.37v79.55c0 32.07 26.09 58.16 58.16 58.16h76.41l-.02-2.5.01-.01ZM7.24 186.11h4.55c8.82 0 16.09-6.73 16.94-15.33h4.63c9.39 0 17.03-7.64 17.03-17.03v-11.4c2.69 7.46 9.82 12.82 18.2 12.82H79.9v45.54c0 17.83 9.49 33.48 23.69 42.17H58.16c-28.08 0-50.92-22.84-50.92-50.92v-5.86.01Zm0-33.34V140.9h14.33v28.18c0 5.4-4.39 9.79-9.79 9.79H7.23v-26.1h.01Zm12.13-52.48h2.21v33.37H7.24v-21.25c0-6.69 5.44-12.13 12.13-12.13v.01Zm21.58-15.33h2.21v41.4H28.82V97.09c0-6.69 5.44-12.13 12.13-12.13Zm9.45-7.24V36.08c0-6.69 5.44-12.13 12.13-12.13h2.21v53.94H50.4v-.17Zm21.58-58.35c0-6.69 5.44-12.13 12.13-12.13h2.21V83.7H71.99V19.37h-.01Zm14.33 106.99H71.98V90.95h14.33v35.41Zm.85 74.36v-45.54h40.16V242.85c-22.32-1.05-40.16-19.54-40.16-42.12v-.01ZM56.48 133.6h33.37v14.33H68.61c-6.69 0-12.13-5.44-12.13-12.13v-2.21.01Zm-13.32 0v20.16c0 5.4-4.39 9.79-9.79 9.79h-4.55V133.6h14.34Zm7.24-48.46h14.34v41.23H50.4V85.14Zm46.69 62.8v-14.33H105.65c9.38 0 17.38 5.99 20.39 14.34H97.09v-.01Z" fill="#C69754"/></g><defs><clipPath id="ca"><path fill="#fff" d="M0 0h134.57v250.12H0z"/></clipPath></defs></svg><svg viewBox="0 0 270 119" fill="none" id="key" xmlns="http://www.w3.org/2000/svg"><g clip-path="url(#da)" fill="#282828"><path d="M199.94 54.52H-3v9h202.94v-9Z"/><path d="M40.34 59.02h-9v34.97h9V59.02ZM59.21 59.02h-9v34.97h9V59.02ZM22.23 59.02h-9v34.97h9V59.02ZM170.46 41.18h-9V78.5h9V41.18ZM196.439 59.029a9.445 9.445 0 0 1-1.049-.899c-3.67-3.67-4.7-11.06-2.76-19.77 2-8.98 6.71-17.54 13.27-24.1 14.39-14.4 36.52-17.87 43.87-10.52 6.491 6.491 4.854 23.598-5.169 37.574a58.423 58.423 0 0 0-10.78-.994c11.531-12.279 12.094-27.685 9.589-30.2-.7-.7-2.5-1.14-5-1.14v-.01c-6.4 0-17.38 2.88-26.14 11.65-7.24 7.24-9.9 15.44-10.85 19.69-1.43 6.43-.48 10.63.34 11.46.107.107.31.231.608.357-1.649 2.244-2.558 4.704-2.558 7.283 0 2.364.763 4.627 2.16 6.716a1.172 1.172 0 0 0-.22.164c-.82.82-1.77 5.03-.34 11.46.94 4.25 3.61 12.45 10.85 19.69 12.18 12.18 28.65 13 31.14 10.51 2.455-2.455 1.963-17.305-8.906-29.454a57.968 57.968 0 0 0 10.581-1.082c9.593 13.846 11.082 30.509 4.695 36.896-2.49 2.49-6.69 3.74-11.7 3.74-9.77 0-22.66-4.74-32.17-14.25-6.56-6.56-11.27-15.12-13.27-24.1-1.94-8.71-.9-16.11 2.76-19.77.321-.32.671-.621 1.049-.901Z"/><path d="M233.76 83c-9.26 0-18.65-2.74-26.43-7.71-7.53-4.81-12.02-10.75-12.02-15.88 0-10.4 18.1-23.59 38.45-23.59s38.45 13.19 38.45 23.59S254.47 83 233.76 83Zm0-38.19c-17.23 0-29.45 11.07-29.45 14.59 0 3.52 12.55 14.59 29.45 14.59s29.45-10.96 29.45-14.59c0-3.63-12.22-14.59-29.45-14.59Z"/></g><defs><clipPath id="da"><path fill="#fff" transform="translate(-3)" d="M0 0h275.21v118.05H0z"/></clipPath></defs></svg><svg viewBox="0 0 188 188" fill="none" id="plus" xmlns="http://www.w3.org/2000/svg"><g clip-path="url(#ea)" fill="#C69754"><path d="M93.99 64.25c-4.51 0-9.62-3.8-13.67-10.17-4.1-6.45-6.36-14.24-6.36-21.95 0-7.71 2.26-15.5 6.36-21.95C84.37 3.81 89.48.01 93.99.01c9.02 0 20.03 14.82 20.03 32.12 0 17.3-11.2 32.12-20.03 32.12Zm0-55.25c-.65.08-3.45 1.74-6.3 6.37-1.77 2.87-4.73 8.86-4.73 16.75 0 7.89 2.96 13.88 4.73 16.75 2.85 4.63 5.65 6.29 6.35 6.37 2.27-.32 10.99-9.38 10.99-23.12S96.74 9.15 93.99 9ZM93.99 187.99c-4.51 0-9.62-3.8-13.67-10.17-4.1-6.45-6.36-14.24-6.36-21.95 0-7.71 2.26-15.5 6.36-21.95 4.05-6.37 9.16-10.17 13.67-10.17 9.02 0 20.03 14.82 20.03 32.12 0 17.3-11.2 32.12-20.03 32.12Zm0-55.25c-.65.08-3.45 1.74-6.3 6.37-1.77 2.87-4.73 8.86-4.73 16.75 0 7.89 2.96 13.88 4.73 16.75 2.85 4.63 5.65 6.29 6.35 6.37 2.27-.32 10.99-9.38 10.99-23.12s-8.29-22.97-11.04-23.12ZM32.12 114.03c-7.71 0-15.5-2.26-21.95-6.36C3.8 103.62 0 98.5 0 94c0-9.02 14.82-20.03 32.12-20.03 17.3 0 32.12 11.2 32.12 20.03 0 4.51-3.8 9.62-10.17 13.67-6.45 4.1-14.24 6.36-21.95 6.36Zm0-31.07C18.71 82.96 9.15 91.25 9 94c.08.65 1.74 3.45 6.37 6.3 2.87 1.77 8.86 4.73 16.75 4.73 7.89 0 13.88-2.96 16.75-4.73 4.63-2.85 6.29-5.65 6.37-6.35-.32-2.27-9.38-10.99-23.12-10.99ZM155.87 114.03c-7.71 0-15.5-2.26-21.95-6.36-6.37-4.05-10.17-9.16-10.17-13.67 0-9.02 14.82-20.03 32.12-20.03 17.3 0 32.12 11.2 32.12 20.03 0 4.51-3.8 9.62-10.17 13.67-6.45 4.1-14.24 6.36-21.95 6.36Zm0-31.07c-13.41 0-22.97 8.29-23.12 11.04.08.65 1.74 3.45 6.37 6.3 2.87 1.77 8.86 4.73 16.75 4.73 7.89 0 13.88-2.96 16.75-4.73 4.63-2.85 6.29-5.65 6.37-6.35-.32-2.27-9.38-10.99-23.12-10.99Z"/><path d="M93.99 130.67 57.32 94l36.67-36.67L130.66 94l-36.67 36.67ZM70.04 94l23.95 23.95L117.94 94 93.99 70.05 70.04 94Z"/></g><defs><clipPath id="ea"><path fill="#fff" d="M0 0h187.99v187.99H0z"/></clipPath></defs></svg><svg viewBox="0 0 192 250" fill="none" id="time" xmlns="http://www.w3.org/2000/svg"><g clip-path="url(#fa)" fill="#C69754"><path d="M66.61 172.65c26.548 0 48.07-21.522 48.07-48.07 0-26.548-21.522-48.07-48.07-48.07-26.548 0-48.07 21.522-48.07 48.07 0 26.548 21.522 48.07 48.07 48.07Z"/><path d="M71.61 0h-10v124.58h10V0Z"/><path d="m49.905 1.047-9.848 1.737 21.63 122.668 9.847-1.737L49.904 1.047Z"/><path d="m28.709 5.825-9.397 3.42 42.602 117.048 9.397-3.42L28.709 5.825Z"/><path d="m8.658 14.205-8.66 5 62.28 107.872 8.66-5L8.658 14.205Z"/><path d="M71.61 124.58h-10v124.56h10V124.58Z"/><path d="m71.536 123.708-9.848 1.736 21.63 122.668 9.847-1.736-21.63-122.668Z"/><path d="m71.313 122.876-9.397 3.42 42.602 117.048 9.397-3.42-42.602-117.048Z"/><path d="m70.944 122.082-8.66 5 62.28 107.872 8.66-5-62.28-107.872Z"/><path d="m70.434 121.372-7.66 6.428 80.065 95.418 7.661-6.428-80.066-95.418Z"/><path d="m69.817 120.752-6.428 7.66 95.418 80.066 6.428-7.66-95.418-80.066Z"/><path d="m69.106 120.251-5 8.66 107.873 62.28 5-8.66-107.873-62.28Z"/><path d="m68.319 119.881-3.42 9.397 117.048 42.602 3.42-9.397-117.048-42.602Z"/><path d="m67.486 119.657-1.737 9.848 122.668 21.63 1.736-9.848-122.667-21.63Z"/><path d="M191.17 119.58H66.61v10h124.56v-10Z"/><path d="M188.408 98.026 65.74 119.656l1.737 9.848 122.667-21.63-1.736-9.848Z"/><path d="M181.942 77.285 64.893 119.887l3.42 9.397 117.049-42.602-3.42-9.397Z"/><path d="m171.985 57.966-107.872 62.28 5 8.661 107.872-62.28-5-8.66Z"/><path d="m158.817 40.693-95.418 80.065 6.428 7.661 95.418-80.066-6.428-7.66Z"/><path d="M142.845 25.947 62.78 121.365l7.66 6.428 80.066-95.418-7.661-6.428Z"/><path d="m124.561 14.21-62.28 107.872 8.66 5 62.28-107.872-8.66-5Z"/><path d="M104.516 5.821 61.914 122.87l9.397 3.421L113.913 9.242l-9.397-3.42Z"/><path d="m83.324 1.047-21.63 122.668 9.848 1.737L93.172 2.784l-9.848-1.737Z"/></g><defs><clipPath id="fa"><path fill="#fff" d="M0 0h191.17v249.14H0z"/></clipPath></defs></svg><svg viewBox="0 0 149 435" fill="none" id="wheat" xmlns="http://www.w3.org/2000/svg"><g clip-path="url(#ga)"><path d="M74.57 85.18c23.522 0 42.59-19.068 42.59-42.59C117.16 19.068 98.092 0 74.57 0 51.048 0 31.98 19.068 31.98 42.59c0 23.522 19.068 42.59 42.59 42.59Z" fill="#C69754"/><path d="M73.87 109.26C35.45 109.26 4.19 78 4.19 39.58h10c0 32.91 26.77 59.68 59.68 59.68s59.68-26.77 59.68-59.68h10c0 38.42-31.26 69.68-69.68 69.68Z" fill="#282828"/><path d="M79.11 74.59h-10v359.82h10V74.59Z" fill="#C69754"/><path d="M143.67 114.6c-6.83.24-13.36.07-19.67-.09-17.2-.45-32.06-.83-41.32 8.2-4.55 4.43-7.27 10.76-8.25 19.2-.98-8.44-3.7-14.77-8.25-19.2-9.27-9.03-24.12-8.64-41.32-8.2-6.31.16-12.84.33-19.67.09L0 114.42v9.67c0 14.17 2.84 23.46 8.96 29.21 5.97 5.62 14.19 6.99 23.79 6.99 4.36 0 9-.28 13.85-.58 6.97-.42 14.87-.9 23.08-.63l2.56.09c1.45.05 2.91.05 4.36 0l2.56-.09c8.2-.27 16.11.21 23.08.63 4.85.29 9.5.58 13.85.58 9.61 0 17.82-1.37 23.79-6.99 6.11-5.75 8.96-15.04 8.96-29.21v-9.67l-5.18.19.01-.01ZM46 149.72c-13.77.83-24.65 1.5-30.19-3.71-3.84-3.61-5.74-10.58-5.81-21.3 5.23.05 10.23-.08 15.11-.2 15.55-.41 27.84-.72 34.08 5.36 3.72 3.63 5.58 9.89 5.65 19.13-6.75.01-13.11.38-18.85.73l.01-.01Zm87.04-3.71c-5.53 5.21-16.42 4.55-30.19 3.71-5.7-.35-11.99-.73-18.68-.73H84c.08-9.24 1.93-15.5 5.65-19.13 6.25-6.08 18.53-5.77 34.08-5.36 4.88.13 9.88.26 15.11.2-.07 10.72-1.97 17.69-5.81 21.3l.01.01ZM143.67 167.43c-6.83.24-13.36.07-19.67-.09-17.2-.45-32.06-.83-41.32 8.2-4.55 4.43-7.27 10.76-8.25 19.2-.98-8.44-3.7-14.77-8.25-19.2-9.27-9.03-24.12-8.64-41.32-8.2-6.31.16-12.84.33-19.67.09L0 167.24v9.67c0 14.17 2.84 23.46 8.96 29.21 5.97 5.62 14.19 6.99 23.79 6.99 4.36 0 9-.28 13.85-.58 6.97-.42 14.87-.9 23.08-.63l2.56.09c1.45.05 2.91.05 4.36 0l2.56-.09c8.2-.27 16.11.21 23.08.63 4.85.29 9.5.58 13.85.58 9.61 0 17.82-1.37 23.79-6.99 6.11-5.75 8.96-15.04 8.96-29.21v-9.67l-5.18.19h.01ZM46 202.55c-13.77.83-24.65 1.5-30.19-3.71-3.84-3.61-5.74-10.58-5.81-21.3 5.23.05 10.23-.08 15.11-.2 15.55-.41 27.84-.72 34.08 5.36 3.72 3.63 5.58 9.89 5.65 19.13-6.75.01-13.11.38-18.85.73l.01-.01Zm87.04-3.71c-5.53 5.21-16.42 4.55-30.19 3.71-5.7-.35-11.99-.73-18.68-.73H84c.08-9.24 1.93-15.5 5.65-19.13 6.25-6.08 18.53-5.77 34.08-5.36 4.88.13 9.88.26 15.11.2-.07 10.72-1.97 17.69-5.81 21.3l.01.01ZM143.67 220.25c-6.83.24-13.36.07-19.67-.09-17.2-.45-32.06-.83-41.32 8.2-4.55 4.43-7.27 10.76-8.25 19.2-.98-8.44-3.7-14.77-8.25-19.2-9.27-9.03-24.12-8.64-41.32-8.2-6.31.16-12.84.33-19.67.09L0 220.06v9.67c0 14.17 2.84 23.46 8.96 29.21 5.97 5.62 14.19 6.99 23.79 6.99 4.36 0 9-.28 13.85-.58 6.97-.42 14.87-.9 23.08-.63l2.56.09c1.45.05 2.91.05 4.36 0l2.56-.09c8.2-.27 16.11.21 23.08.63 4.85.29 9.5.58 13.85.58 9.61 0 17.82-1.37 23.79-6.99 6.11-5.75 8.96-15.04 8.96-29.21v-9.67l-5.18.19h.01ZM46 255.37c-13.77.83-24.65 1.5-30.19-3.71-3.84-3.61-5.74-10.58-5.81-21.3 5.23.05 10.23-.08 15.11-.2 15.55-.41 27.84-.72 34.08 5.36 3.72 3.63 5.58 9.89 5.65 19.13-6.75.01-13.11.38-18.85.73l.01-.01Zm87.04-3.71c-5.53 5.21-16.42 4.55-30.19 3.71-5.7-.35-11.99-.73-18.68-.73H84c.08-9.24 1.93-15.5 5.65-19.13 6.25-6.08 18.53-5.77 34.08-5.36 4.88.13 9.88.26 15.11.2-.07 10.72-1.97 17.69-5.81 21.3l.01.01ZM143.67 273.07c-6.83.24-13.36.07-19.67-.09-17.2-.45-32.06-.83-41.32 8.2-4.55 4.43-7.27 10.76-8.25 19.2-.98-8.44-3.7-14.77-8.25-19.2-9.27-9.03-24.12-8.64-41.32-8.2-6.31.16-12.84.33-19.67.09L0 272.88v9.67c0 14.17 2.84 23.46 8.96 29.21 5.97 5.62 14.19 6.99 23.79 6.99 4.36 0 9-.28 13.85-.58 6.97-.42 14.87-.9 23.08-.63l2.56.09c1.45.05 2.91.05 4.36 0l2.56-.09c8.2-.27 16.11.21 23.08.63 4.85.29 9.5.58 13.85.58 9.61 0 17.82-1.37 23.79-6.99 6.11-5.75 8.96-15.04 8.96-29.21v-9.67l-5.18.19h.01ZM46 308.19c-13.77.83-24.65 1.5-30.19-3.71-3.84-3.61-5.74-10.58-5.81-21.3 5.23.05 10.23-.08 15.11-.2 15.55-.41 27.84-.72 34.08 5.36 3.72 3.63 5.58 9.89 5.65 19.13-6.75.01-13.11.38-18.85.73l.01-.01Zm87.04-3.71c-5.53 5.21-16.42 4.55-30.19 3.71-5.7-.35-11.99-.73-18.68-.73H84c.08-9.24 1.93-15.5 5.65-19.13 6.25-6.08 18.53-5.77 34.08-5.36 4.88.13 9.88.26 15.11.2-.07 10.72-1.97 17.69-5.81 21.3l.01.01ZM143.67 325.89c-6.83.24-13.36.07-19.67-.09-17.2-.45-32.06-.83-41.32 8.2-4.55 4.43-7.27 10.76-8.25 19.2-.98-8.44-3.7-14.77-8.25-19.2-9.27-9.03-24.12-8.64-41.32-8.2-6.31.16-12.84.33-19.67.09L0 325.71v9.67c0 14.17 2.84 23.46 8.96 29.21 5.97 5.62 14.19 6.99 23.79 6.99 4.36 0 9-.28 13.85-.58 6.97-.42 14.87-.9 23.08-.63l2.56.09c1.45.05 2.91.05 4.36 0l2.56-.09c8.2-.27 16.11.21 23.08.63 4.85.29 9.5.58 13.85.58 9.61 0 17.82-1.37 23.79-6.99 6.11-5.75 8.96-15.04 8.96-29.21v-9.67l-5.18.19.01-.01ZM46 361.01c-13.77.83-24.65 1.5-30.19-3.71-3.84-3.61-5.74-10.58-5.81-21.3 5.23.05 10.23-.08 15.11-.2 15.55-.41 27.84-.72 34.08 5.36 3.72 3.63 5.58 9.89 5.65 19.13-6.75.01-13.11.38-18.85.73l.01-.01Zm87.04-3.71c-5.53 5.21-16.42 4.55-30.19 3.71-5.7-.35-11.99-.73-18.68-.73H84c.08-9.24 1.93-15.5 5.65-19.13 6.25-6.08 18.53-5.77 34.08-5.36 4.88.13 9.88.26 15.11.2-.07 10.72-1.97 17.69-5.81 21.3l.01.01Z" fill="#282828"/></g><defs><clipPath id="ga"><path fill="#fff" d="M0 0h148.85v434.42H0z"/></clipPath></defs></svg></svg>