<svg width="216" height="290" viewBox="0 0 216 290" fill="none" xmlns="http://www.w3.org/2000/svg">
<rect width="216" height="290" fill="#C69754"/>
<path d="M143.823 120.864C143.294 121.434 143.294 122.314 143.823 122.884C144.152 123.074 144.372 123.405 144.432 123.785C144.491 124.165 144.382 124.545 144.122 124.825C143.673 125.505 143.614 126.385 143.983 127.115C144.112 127.465 144.152 127.846 144.102 128.216C144.033 128.766 143.155 129.066 143.693 129.846C144.043 130.346 143.693 131.046 144.062 131.676C144.272 132.026 143.963 132.827 143.683 133.287C143.354 133.727 143.354 134.337 143.683 134.777C143.753 134.857 143.793 134.957 143.803 135.057C143.933 136.497 143.913 137.938 143.733 139.368C143.514 140.398 143.574 141.398 143.414 142.449C143.384 142.399 143.364 142.399 143.334 142.399C143.185 142.409 143.045 142.439 142.905 142.479C142.925 142.549 142.955 142.689 142.955 142.689C143.135 142.689 143.314 142.659 143.624 142.629C143.534 142.559 143.474 142.499 143.424 142.459C143.434 142.429 143.434 142.399 143.424 142.369L143.454 142.409C143.454 142.409 143.454 142.419 143.454 142.429V142.449C143.594 142.449 143.743 142.479 143.743 142.519C143.933 143.989 142.955 145.069 141.579 144.689C140.641 144.479 139.673 144.379 138.716 144.409C138.127 144.389 137.499 144.279 137.1 144.929C136.99 145.049 136.83 145.089 136.671 145.059C135.563 144.679 134.287 144.679 133.469 143.569C133.149 143.149 133.169 142.349 132.331 142.369C132.282 142.369 132.172 141.999 132.172 141.799C132.142 140.798 132.222 139.798 132.142 138.798C132.152 137.998 131.843 137.228 131.274 136.667C130.775 136.247 130.207 136.247 129.927 136.817C129.708 137.418 129.239 137.888 128.64 138.108C128.271 138.248 127.992 138.548 127.862 138.918C127.753 139.528 127.314 139.618 126.895 139.838C126.406 140.098 125.877 140.288 125.688 140.968C125.508 141.358 125.139 141.629 124.71 141.679C123.902 141.589 123.822 142.239 123.493 142.629C123.373 142.769 123.274 142.919 123.164 143.059C123.144 142.969 123.114 142.889 123.064 142.809C123.054 142.789 122.935 142.839 122.865 142.869L123.024 143.069H123.174C122.925 143.439 122.805 144.009 122.127 143.549C121.847 143.429 121.528 143.419 121.249 143.519C120.491 143.779 119.752 144.169 118.964 144.369C118.595 144.419 118.256 144.559 117.967 144.789C117.508 145.249 116.869 145.479 116.231 145.399C115.882 145.349 115.553 145.679 115.373 145.679C114.735 145.609 115.004 146.42 114.685 146.36C114.356 146.3 114.096 145.859 113.767 145.799C113.149 145.699 112.46 145.499 111.972 146.16C111.902 146.25 111.822 146.32 111.742 146.39C110.884 147.12 110.375 147.23 109.587 146.53C109.388 146.28 109.089 146.129 108.769 146.099C108.45 146.069 108.141 146.18 107.902 146.4C107.104 146.9 106.116 147 105.238 146.66C104.4 146.49 103.542 146.4 102.694 146.4C102.285 146.35 101.886 146.46 101.457 146.16C100.849 145.719 100.54 145.799 99.632 146.069C98.814 146.33 97.9262 146.149 97.2878 145.579C97.1381 145.419 97.0084 145.139 96.8289 145.119C96.3401 145.039 95.7914 145.149 95.3525 145.039C94.9136 144.929 94.5246 144.429 94.1255 144.429C93.138 144.289 92.2003 143.919 91.3823 143.349C90.0456 142.439 88.5094 141.879 86.9033 141.739C86.5043 141.809 86.1153 141.578 85.9856 141.188C85.8759 140.618 85.437 140.388 85.1078 140.048C83.402 138.298 81.6762 136.557 79.9305 134.857C79.1624 134.107 78.504 133.257 77.9554 132.336C77.7359 132.026 77.4965 131.736 77.2272 131.466C76.918 131.176 76.6985 130.806 76.5788 130.396C76.3693 129.716 75.8207 129.196 75.1423 129.016C74.9029 128.836 74.7433 128.566 74.6835 128.276C75.3618 127.645 74.7533 127.345 74.4141 126.955C74.2445 126.765 73.9852 126.495 74.0251 126.305C74.2046 125.045 73.4066 124.095 73.1073 122.994C72.9677 122.154 72.5487 121.394 71.9302 120.814C71.5512 120.474 71.4714 119.904 71.7507 119.474C71.9402 118.944 71.9302 118.373 71.7208 117.853C71.2619 116.673 71.0025 115.413 70.9626 114.143C71.0025 113.752 70.6833 113.282 70.6733 112.942C70.6733 112.602 71.0125 112.222 70.9527 111.922C70.8329 111.422 70.6035 110.952 70.2943 110.542C70.0449 110.192 69.8753 110.022 70.2245 109.592C70.6434 109.021 70.793 108.301 70.6434 107.611C70.5935 107.361 70.4938 107.111 70.3442 106.901C69.8853 106.141 69.8853 105.871 70.3442 105.191C70.6235 104.881 70.833 104.51 70.9726 104.12C71.1522 103.7 71.0524 103.22 70.7332 102.9C70.4639 102.71 70.2943 102.4 70.2843 102.07C70.2644 101.74 70.404 101.42 70.6634 101.2C70.8329 101.01 70.9527 100.77 70.9926 100.51C71.1023 99.6094 71.0025 98.6891 70.7033 97.829C71.2918 97.2088 71.631 96.4087 71.6809 95.5585C71.9203 94.0781 72.3492 92.6278 72.9378 91.2375C73.247 90.6774 73.3867 90.0373 73.3468 89.4071C73.3069 88.657 73.5862 87.9268 74.0949 87.3767C74.9328 86.3765 75.5912 85.2362 76.0301 84.016C76.2097 83.4358 76.7783 82.9957 77.0277 82.4356C77.3269 81.7755 78.135 81.3754 77.9953 80.4952C78.4641 80.1651 78.9031 79.795 79.3121 79.3949C79.6612 79.0249 79.731 78.2947 80.1201 78.1047C80.8183 77.8346 81.3171 77.2045 81.4169 76.4543C81.5865 76.0542 81.9456 75.7642 82.3745 75.6941C83.1127 75.6741 83.2623 75.184 83.4419 74.6939C83.6613 74.1738 84.1102 73.7937 84.6489 73.6537C84.7985 73.6137 85.018 73.7237 85.1477 73.6537C85.7861 73.2736 86.0155 72.3334 86.9333 72.3334C87.7612 72.3434 88.27 71.7233 88.8685 71.3532C89.467 70.9831 90.275 70.9531 90.8636 70.573C91.4122 70.0829 92.0906 69.7729 92.8188 69.6528C93.1879 69.5928 93.517 69.3928 93.7365 69.0827C94.2552 68.2825 95.0134 68.4126 95.7815 68.3325C97.3077 68.3325 98.804 67.9725 100.171 67.2923C100.49 67.1023 100.849 67.0022 101.218 67.0222H105.049C105.418 67.0222 105.777 67.1023 106.116 67.2423C106.675 67.4623 107.293 67.4623 107.862 67.2423C108.889 66.7622 109.917 67.1723 110.924 67.0123C112.281 67.4423 113.717 67.5424 115.114 67.3123C116.281 67.2923 117.428 67.5524 118.466 68.0725C118.904 68.3825 119.473 68.4226 119.952 68.1825C120.221 68.0025 120.56 67.9324 120.88 68.0025C121.199 68.0725 121.478 68.2725 121.658 68.5526C122.196 69.3028 123.124 69.3228 123.822 69.7629C124.481 70.233 125.279 70.433 126.077 70.343C126.885 70.2229 127.244 70.7531 127.623 71.2932C127.773 71.5032 127.922 71.9133 128.052 71.9133C129.488 71.8633 129.997 73.3436 131.154 73.7137L137.14 79.3749C137.159 80.0451 138.107 80.2751 137.948 81.0353V81.1953C138.915 81.7655 139.005 82.8657 139.454 83.7459C139.903 84.6361 140.781 85.2262 141.04 86.2564C141.12 86.5665 141.618 86.7666 141.928 87.0266C141.838 87.0466 141.758 87.0866 141.678 87.1266C141.658 87.1466 141.728 87.2567 141.728 87.3367L141.928 87.1766V87.0266C142.277 87.2767 142.845 87.3667 142.387 88.0768C141.828 88.677 141.748 89.5772 142.187 90.2673C142.486 90.7274 142.267 91.4276 142.536 92.0977C142.806 92.7679 142.277 93.418 141.529 93.6881C140.95 93.9081 140.382 94.1282 139.793 94.2982C139.484 94.3782 139.035 94.4882 138.835 94.3282C138.167 93.8181 137.469 94.1082 136.79 94.0181C135.843 93.8981 134.835 94.2682 133.917 93.7081C133.558 93.528 133.149 93.528 132.79 93.7081C131.912 94.3282 130.995 93.8981 130.087 93.9781C129.668 93.9781 129.269 93.8081 128.97 93.518C128.152 92.8979 127.543 92.0577 127.214 91.0875C126.955 90.1373 126.496 89.2671 125.867 88.5069C125.369 87.9068 125.259 87.6267 125.897 87.1666C125.947 87.1266 125.857 86.7566 125.827 86.7566C125.638 86.7265 125.448 86.7565 125.279 86.8566C125.159 86.9566 125.229 87.6167 124.95 87.1266C124.431 86.3265 123.743 85.6563 122.935 85.1662C122.915 85.1462 122.935 85.0562 122.935 85.0062C122.127 84.076 121.169 83.2858 120.092 82.6757C119.154 82.0355 117.977 81.8955 117.019 81.2554C116.889 81.1653 116.73 81.0153 116.63 81.0153C115.872 81.1153 115.114 80.8653 114.575 80.3251C114.146 80.0151 113.797 79.865 113.338 80.3251C113.129 80.4752 112.899 80.5952 112.66 80.6652C111.852 81.0553 111.852 81.0553 111.203 80.4252C110.924 80.1451 110.665 79.865 110.375 79.605C110.196 79.3949 109.917 79.2849 109.647 79.3249C109.368 79.3549 109.129 79.525 109.009 79.775C108.939 79.855 108.989 79.9951 108.939 80.0751C108.42 80.8653 108.051 80.9653 107.413 80.2651C107.034 79.785 106.425 79.555 105.827 79.665C105.617 79.665 105.418 79.745 105.258 79.8751C104.66 80.4652 103.742 80.5852 103.004 80.1651C102.734 80.0251 102.415 80.0451 102.176 80.2351C101.757 80.4352 101.318 80.5752 100.859 80.6652C100.041 80.8653 99.2828 81.2353 98.6245 81.7455C98.0758 82.1856 97.198 82.3256 96.8389 82.9757C96.4797 83.6259 96.1705 84.146 95.2827 84.026C94.9236 83.9759 94.6842 84.346 94.6143 84.7961C94.4448 85.8364 94.4448 85.8764 93.537 85.9764C93.0282 86.0264 92.6193 86.1964 92.6592 86.7165C92.6791 87.0166 92.5694 87.3067 92.3599 87.5167C92.1504 87.7268 91.8611 87.8468 91.5619 87.8268C90.9334 87.8068 90.8337 87.9868 90.5843 88.4969C90.1653 89.2871 89.6765 90.0373 89.1378 90.7474C88.3199 91.7876 87.9109 93.0879 87.9707 94.4182C88.0306 94.9483 87.9408 95.4684 87.4121 95.6385C87.0031 95.7685 86.6639 95.9486 86.6639 96.3386C86.6939 96.9588 86.3347 97.6689 86.9831 98.209C87.1627 98.3991 87.2625 98.6391 87.2824 98.8992C87.2924 99.0292 87.043 99.3093 86.9931 99.3093C86.3248 99.0992 86.2051 99.6794 86.1552 100.019C85.9657 101.17 85.0878 102.3 85.9657 103.52C86.0455 103.67 86.0455 103.85 85.9657 104C85.2674 104.74 86.0455 105.851 85.3073 106.571C85.3871 107.251 85.0679 108.001 85.6365 108.601C85.4469 109.471 85.9856 109.972 86.5542 110.382C87.1228 110.802 86.8335 111.012 86.5043 111.352C85.7961 112.102 85.816 112.732 86.4145 113.642C86.8235 114.253 87.3423 114.913 86.8235 115.663C86.5442 116.083 87.1228 116.133 87.0031 116.463C86.9133 116.733 86.9133 117.023 87.0031 117.283C87.2226 117.823 87.3423 118.403 87.3522 118.984C87.3522 119.244 87.6615 119.524 87.8809 119.754C88.4196 120.144 88.7189 120.784 88.679 121.444C88.6191 122.114 88.8785 122.324 89.6765 122.364C90.1553 122.384 90.4147 122.484 90.3149 123.004C90.0356 124.425 90.9334 125.425 91.6018 126.465C92.1005 127.245 92.4796 128.216 93.5569 128.466C93.8562 128.536 94.1555 128.636 94.4448 128.726C94.6143 128.786 94.7241 129.246 95.0732 128.856C95.143 128.776 95.8014 128.996 95.9311 129.236C96.36 130.006 96.7391 130.756 97.7965 130.756C97.9661 130.756 98.1955 131.126 98.2853 131.366C98.5646 132.146 99.2529 132.266 99.9113 132.386C100.37 132.457 100.829 132.557 101.288 132.687C101.906 133.007 102.605 133.147 103.303 133.087C103.522 133.037 103.802 133.197 104.031 133.307C104.849 133.827 105.877 133.897 106.754 133.487C107.213 133.337 107.722 133.337 108.181 133.487C109.029 133.757 109.937 133.747 110.775 133.447C111.213 133.357 111.662 133.357 112.091 133.447C112.79 133.617 113.298 133.057 113.957 133.097C114.535 133.067 115.104 132.977 115.662 132.817C116.381 132.687 116.57 132.016 117.099 131.836C117.678 131.726 118.276 131.676 118.865 131.666C119.064 131.586 119.214 131.416 119.264 131.206C119.294 130.826 119.453 130.746 119.782 130.776C120.421 130.766 121.029 130.516 121.488 130.076C122.765 129.136 123.932 128.056 124.98 126.865C125.608 126.205 126.197 125.495 126.735 124.755C126.885 124.475 126.945 124.155 126.925 123.835C126.875 123.244 127.124 122.664 127.583 122.284C128.222 121.714 128.64 120.944 128.78 120.104C129.129 119.154 129.289 118.143 129.269 117.133C129.239 116.483 128.8 115.923 128.172 115.733C127.174 115.303 126.057 115.203 124.999 115.473C124.321 115.583 123.623 115.513 122.984 115.283C122.625 115.223 122.196 114.983 121.917 115.103C120.321 115.453 118.685 115.553 117.049 115.413C116.171 114.963 115.154 114.873 114.206 115.153C113.627 115.293 113.069 115.323 112.5 115.423C111.373 115.613 110.784 114.923 110.296 114.103C110.006 113.622 109.787 113.092 109.647 112.552C109.577 112.292 109.817 111.962 109.867 111.662C109.947 111.162 110.366 110.812 110.036 110.102C109.737 109.261 109.737 108.331 110.036 107.491C110.256 106.601 110.346 105.691 110.316 104.78C110.366 103.96 110.575 103.74 111.403 103.74C111.622 103.74 111.952 103.63 112.051 103.74C112.76 104.57 113.538 103.85 114.096 103.66C114.844 103.45 115.623 103.43 116.381 103.59C117.787 103.75 119.194 103.73 120.59 103.53C121.438 103.37 122.306 103.34 123.154 103.46C124.89 103.8 126.675 103.8 128.411 103.46C128.88 103.33 129.379 103.4 129.788 103.68C130.227 104.01 130.755 104.19 131.294 104.21C131.344 104.38 131.414 104.54 131.483 104.7L131.653 104.4L131.483 104.11C132.102 103.63 132.9 103.44 133.668 103.59C134.546 103.85 135.484 103.83 136.351 103.52C136.79 103.29 137.319 103.33 137.728 103.61C138.596 104.18 139.454 104.36 140.242 103.33C140.451 103.12 140.741 103.01 141.04 103.02C141.339 103.03 141.618 103.16 141.818 103.38C142.307 103.79 142.816 104.16 143.314 104.56C143.783 104.85 144.053 105.381 143.993 105.941C143.843 107.001 143.783 108.071 143.644 109.131C143.444 110.062 143.843 111.022 144.641 111.542C145.08 111.812 144.98 112.072 144.641 112.252C143.763 112.702 144.242 113.762 143.693 114.363C143.653 114.413 143.783 114.653 143.883 114.763C144.092 115.013 144.332 115.253 144.581 115.473C144.92 115.753 145.07 116.003 144.611 116.303C144.172 116.633 143.933 117.163 143.973 117.713C143.913 118.323 144.182 118.914 144.681 119.264C145.05 119.554 145.14 119.834 144.731 120.184C144.442 120.384 144.162 120.594 143.903 120.824L143.823 120.864ZM72.1298 98.3491C72.2195 98.3291 72.2993 98.2891 72.3791 98.2391C72.3392 98.199 72.2993 98.129 72.2694 98.129C72.1896 98.159 72.1198 98.189 72.05 98.2391C72.0899 98.2791 72.1298 98.3391 72.1597 98.3391H72.1298V98.3491ZM75.8506 101.42C75.8506 101.42 75.9603 101.34 75.9803 101.3C75.9603 101.22 75.9204 101.14 75.8805 101.08L75.7608 101.2L75.8805 101.42H75.8506ZM78.4442 106.911L78.2646 106.471C78.1948 106.561 78.0751 106.691 78.0552 106.761C78.0352 106.831 78.115 106.941 78.1649 107.031L78.4442 106.911ZM80.4493 133.397C80.539 133.367 80.6288 133.337 80.7086 133.287C80.6687 133.247 80.6288 133.177 80.5989 133.177C80.5191 133.207 80.4393 133.237 80.3794 133.287C80.4193 133.327 80.4592 133.387 80.4892 133.387H80.4493V133.397ZM80.8383 109.762C80.8383 109.762 80.948 109.682 80.9779 109.622C80.948 109.542 80.9181 109.472 80.8682 109.401L80.7485 109.522L80.8682 109.732L80.8283 109.762H80.8383ZM80.8383 131.126C80.8383 131.126 80.948 131.046 80.9779 130.986C80.948 130.906 80.9181 130.836 80.8682 130.766C80.8283 130.806 80.7585 130.846 80.7585 130.876C80.7884 130.956 80.8183 131.026 80.8682 131.106L80.8283 131.136L80.8383 131.126ZM81.347 97.1688C81.347 97.2488 81.4368 97.3389 81.5366 97.3889L81.7261 97.0088L81.5366 96.7187C81.4667 96.8487 81.4169 96.9888 81.377 97.1388L81.3371 97.1688H81.347ZM82.0353 104.901C82.0353 104.901 81.9555 104.79 81.9256 104.79C81.8458 104.82 81.766 104.85 81.7062 104.901L81.8259 105.021L82.0353 104.901ZM81.8259 88.0768C81.8259 88.0768 81.7161 88.1569 81.766 88.1569C81.7959 88.2369 81.8259 88.3069 81.8658 88.3769L81.9855 88.2569L81.8658 88.0468L81.8259 88.0768ZM81.9855 129.976L81.8658 129.756C81.8658 129.756 81.766 129.836 81.766 129.866C81.7959 129.946 81.8259 130.016 81.8658 130.086L81.9855 129.976ZM82.7735 136.747C83.2124 136.447 82.8932 135.987 83.0628 135.487L82.9132 134.487C82.4842 134.787 82.7436 135.237 82.7137 135.607C82.7137 135.977 82.7436 136.347 82.8134 136.717L82.7735 136.747ZM83.8409 107.111C83.8409 107.111 83.7511 107.241 83.7312 107.281C83.8708 107.331 84.0204 107.371 84.1701 107.391C84.21 107.391 84.2599 107.261 84.3397 107.131C84.19 107.101 84.0404 107.081 83.8808 107.081L83.8409 107.111ZM84.1102 118.173C84.0703 118.253 84.0205 118.293 84.0504 118.403C84.0803 118.513 84.1801 118.593 84.2599 118.694L84.4394 118.253L84.1501 118.133L84.1102 118.173ZM84.3197 132.547L84.2 132.427C84.1601 132.497 84.1202 132.577 84.0903 132.647C84.0903 132.667 84.1601 132.717 84.2 132.757L84.3197 132.537V132.547ZM84.3197 130.976L84.2 130.766C84.2 130.766 84.0903 130.846 84.0903 130.876C84.1202 130.956 84.1501 131.026 84.2 131.106L84.3197 130.986V130.976ZM84.4993 134.797C84.5591 134.717 84.599 134.627 84.6389 134.537C84.6389 134.507 84.5791 134.467 84.5392 134.427L84.4195 134.647L84.5392 134.767L84.4993 134.797ZM85.4469 89.1371C85.3871 89.2171 85.3671 89.3071 85.3771 89.4071C85.427 89.5172 85.4968 89.6172 85.5866 89.6972L85.7761 89.2371C85.6863 89.1871 85.5866 89.1571 85.4868 89.1271H85.4569L85.4469 89.1371ZM86.7238 94.1882L86.8435 94.3982C86.8435 94.3982 86.9532 94.3182 86.9532 94.2882C86.9233 94.2082 86.8934 94.1382 86.8435 94.0681L86.7238 94.1882ZM86.9831 131.876L86.8634 131.756C86.8235 131.826 86.7836 131.906 86.7537 131.976C86.7537 132.006 86.8235 132.046 86.8634 132.086L86.9831 131.876ZM87.4819 131.106C87.4819 131.106 87.5717 130.976 87.6615 130.826C87.5118 130.796 87.3622 130.776 87.2026 130.766C87.1527 130.766 87.1228 130.906 87.0829 130.976C87.2226 131.026 87.3722 131.056 87.5218 131.076L87.4819 131.106ZM88.1104 131.056C88.28 131.066 88.4396 131.076 88.6091 131.066L88.5792 130.816C88.4396 130.796 88.2899 130.796 88.1403 130.816V131.026L88.1004 131.056H88.1104ZM95.163 136.787C95.2129 136.707 95.2627 136.627 95.2927 136.537C95.2927 136.507 95.2228 136.467 95.1829 136.427L95.0632 136.647L95.1829 136.757L95.163 136.787ZM95.961 143.989C95.8613 143.919 95.7515 143.809 95.6717 143.779C95.6019 143.759 95.4922 143.839 95.4024 143.879L95.5221 144.169L95.961 143.989ZM95.7316 134.547L95.8413 134.767C95.8413 134.767 95.951 134.687 95.951 134.657C95.9311 134.577 95.8912 134.497 95.8413 134.437L95.7316 134.557V134.547ZM95.9111 139.358C95.9111 139.268 95.8812 139.178 95.8413 139.098C95.8014 139.138 95.7416 139.178 95.7416 139.208C95.7615 139.288 95.8014 139.358 95.8413 139.428C95.8812 139.388 95.951 139.348 95.951 139.318L95.9111 139.348V139.358ZM99.4125 145.409C99.5023 145.379 99.5921 145.339 99.6719 145.279C99.632 145.239 99.5921 145.169 99.5621 145.169C99.4823 145.199 99.4125 145.229 99.3427 145.279C99.3826 145.319 99.4225 145.379 99.4524 145.379L99.4125 145.409ZM99.4724 140.138C99.4325 140.198 99.3626 140.218 99.4025 140.218C99.4325 140.298 99.4624 140.368 99.5123 140.438L99.632 140.318L99.5123 140.098L99.4724 140.128V140.138ZM100.799 138.468C100.849 138.388 100.889 138.298 100.919 138.208C100.919 138.178 100.849 138.138 100.809 138.098L100.689 138.318L100.809 138.438L100.789 138.468H100.799ZM103.073 139.408C103.173 139.268 103.263 139.118 103.313 138.948C103.313 138.788 103.273 138.638 103.213 138.488L102.924 138.858L103.093 139.368L103.064 139.398L103.073 139.408ZM103.123 69.3828C103.123 69.3828 103.014 69.4628 103.034 69.4828C103.064 69.5628 103.093 69.6328 103.143 69.7028C103.183 69.6628 103.253 69.6228 103.253 69.5928C103.223 69.5128 103.193 69.4428 103.143 69.3728H103.133L103.123 69.3828ZM105.837 140.438H105.986C105.966 140.348 105.926 140.268 105.887 140.188C105.867 140.168 105.757 140.238 105.687 140.238L105.837 140.438ZM106.296 140.628L106.136 140.438L105.986 140.588C106.046 140.638 106.116 140.688 106.186 140.738L106.296 140.628ZM109.119 141.799C109.119 141.799 109.228 141.719 109.258 141.659C109.228 141.578 109.198 141.508 109.149 141.438L109.029 141.558L109.149 141.779L109.119 141.809V141.799ZM111.443 145.129C111.503 145.049 111.543 144.959 111.583 144.869C111.583 144.839 111.513 144.799 111.473 144.759L111.353 144.979L111.473 145.099L111.443 145.129ZM112.59 139.208L112.48 139.088C112.43 139.158 112.401 139.228 112.371 139.308C112.371 139.338 112.43 139.378 112.48 139.418L112.59 139.208ZM112.939 112.922L112.819 112.802L112.6 112.922C112.6 112.922 112.68 113.022 112.71 113.022C112.79 113.002 112.859 112.962 112.929 112.922H112.939ZM117.598 113.252C117.528 113.212 117.448 113.172 117.378 113.152C117.358 113.152 117.308 113.212 117.269 113.252L117.478 113.372L117.598 113.252ZM119.762 105.081C119.762 105.081 119.872 105.001 119.872 104.971C119.842 104.891 119.812 104.82 119.762 104.75L119.643 104.87L119.762 105.091V105.081ZM120.929 104.25C120.929 104.25 120.85 104.14 120.82 104.14C120.74 104.17 120.67 104.2 120.59 104.25L120.71 104.37L120.92 104.25H120.929ZM120.82 73.7737C120.75 73.7937 120.68 73.8337 120.61 73.8737C120.65 73.9138 120.69 73.9838 120.72 73.9838C120.8 73.9538 120.87 73.9238 120.939 73.8737C120.9 73.8337 120.86 73.7637 120.83 73.7637H120.82V73.7737ZM122.925 84.8961L123.074 85.0462C123.134 84.9862 123.174 84.9161 123.224 84.8461L123.124 84.7361L122.935 84.8961H122.925ZM123.284 132.567V132.416C123.194 132.437 123.114 132.467 123.034 132.517C123.014 132.527 123.084 132.647 123.084 132.717L123.284 132.557V132.567ZM123.363 105.351C123.443 105.321 123.523 105.291 123.593 105.241L123.473 105.131L123.254 105.241C123.254 105.241 123.334 105.351 123.363 105.351ZM123.403 132.447C123.473 132.376 123.523 132.296 123.583 132.216L123.483 132.106L123.284 132.266L123.433 132.416L123.403 132.447ZM124.082 132.116C124.142 132.036 124.181 131.946 124.221 131.856C124.221 131.826 124.152 131.786 124.112 131.746L123.992 131.956L124.112 132.076L124.082 132.106V132.116ZM124.541 108.541L124.421 108.421C124.381 108.491 124.341 108.571 124.311 108.641C124.311 108.671 124.381 108.711 124.421 108.751L124.541 108.541ZM125.588 82.7957C125.588 82.8757 125.688 82.9657 125.748 83.0457L125.937 82.6757L125.748 82.3856C125.678 82.5156 125.628 82.6557 125.588 82.7957ZM126.945 126.245C126.875 126.205 126.795 126.165 126.725 126.135C126.695 126.135 126.655 126.205 126.615 126.245L126.835 126.365L126.955 126.245H126.945ZM127.912 114.263C127.842 114.223 127.763 114.183 127.683 114.153C127.653 114.153 127.613 114.223 127.573 114.263L127.783 114.383L127.902 114.263H127.912ZM127.653 73.8337L127.773 74.0538C127.773 74.0538 127.872 73.9738 127.872 73.9438C127.852 73.8637 127.813 73.7937 127.773 73.7237L127.653 73.8437V73.8337ZM128.311 108.601C128.222 108.551 128.122 108.521 128.022 108.491C127.962 108.561 127.922 108.651 127.922 108.751C127.972 108.861 128.042 108.961 128.132 109.041L128.311 108.591V108.601ZM128.072 122.784C128.072 122.784 128.182 122.704 128.212 122.644C128.182 122.564 128.152 122.494 128.102 122.424C128.062 122.464 128.002 122.504 128.002 122.534C128.022 122.614 128.062 122.684 128.102 122.754L128.072 122.784ZM129.069 86.4065C129.01 86.4865 128.9 86.5765 128.95 86.6565C128.98 86.7966 129.03 86.9366 129.109 87.0666L129.299 86.7766L129.109 86.3965H129.079L129.069 86.4065ZM129.189 112.322L129.069 112.102C129.069 112.102 128.96 112.182 128.96 112.212C128.99 112.292 129.02 112.362 129.069 112.432L129.189 112.312V112.322ZM130.456 93.1479C130.386 93.1679 130.316 93.208 130.247 93.248C130.286 93.288 130.326 93.358 130.356 93.358C130.436 93.328 130.506 93.298 130.576 93.248C130.536 93.208 130.496 93.1479 130.466 93.1479H130.446H130.456ZM130.666 128.936L130.376 128.816C130.336 128.906 130.247 128.976 130.276 129.086C130.306 129.196 130.406 129.276 130.486 129.376L130.666 128.936ZM130.356 115.163C130.316 115.293 130.296 115.423 130.276 115.553C130.276 115.593 130.406 115.643 130.526 115.723C130.556 115.573 130.576 115.423 130.586 115.263C130.586 115.213 130.446 115.173 130.376 115.133L130.356 115.163ZM130.406 104.76C130.376 104.82 130.356 104.891 130.336 104.951C130.336 104.981 130.406 105.021 130.446 105.061L130.566 104.85L130.446 104.73L130.416 104.76H130.406ZM131.015 118.053C131.104 118.013 131.194 117.973 131.274 117.913C131.234 117.873 131.194 117.803 131.164 117.803C131.084 117.833 131.015 117.863 130.945 117.913C130.985 117.953 131.025 118.023 131.055 118.023L131.025 118.053H131.015ZM131.015 130.406C131.104 130.366 131.194 130.326 131.274 130.266C131.234 130.226 131.194 130.156 131.164 130.156C131.084 130.186 131.015 130.216 130.945 130.266C130.985 130.306 131.025 130.376 131.055 130.376L131.025 130.406H131.015ZM131.065 84.7461C131.025 84.8161 130.995 84.8961 130.975 84.9762C130.975 85.0062 131.045 85.0462 131.084 85.0862L131.204 84.8761L131.084 84.7561H131.065V84.7461ZM131.553 111.632L131.434 111.412C131.434 111.412 131.324 111.492 131.324 111.522C131.354 111.602 131.384 111.672 131.434 111.742L131.553 111.622V111.632ZM131.733 90.4273C131.693 90.4974 131.673 90.5774 131.653 90.6474C131.653 90.6774 131.723 90.7174 131.763 90.7574L131.882 90.5374L131.763 90.4174H131.743L131.733 90.4273ZM132.561 83.4358C132.481 83.4158 132.381 83.4958 132.282 83.5358L132.401 83.8259L132.86 83.6459C132.78 83.5559 132.681 83.4858 132.571 83.4358H132.551H132.561ZM132.92 84.9262C132.85 84.8861 132.78 84.8461 132.7 84.8161C132.671 84.8161 132.631 84.8861 132.591 84.9262L132.8 85.0462L132.92 84.9262ZM132.89 120.314L132.77 120.104C132.77 120.104 132.661 120.184 132.661 120.214C132.691 120.294 132.72 120.364 132.77 120.444L132.89 120.324V120.314ZM132.89 122.644L132.77 122.424C132.77 122.424 132.661 122.504 132.661 122.534C132.691 122.614 132.72 122.684 132.77 122.754L132.89 122.634V122.644ZM133.389 81.0953C133.249 81.1153 133.119 81.1553 132.99 81.2053C133.03 81.2754 133.07 81.4154 133.109 81.4154C133.259 81.4154 133.419 81.3954 133.568 81.3654C133.489 81.2454 133.449 81.1053 133.399 81.1053H133.379L133.389 81.0953ZM133.728 131.146C133.788 131.066 133.828 130.976 133.868 130.886C133.868 130.856 133.798 130.816 133.758 130.776L133.638 130.996L133.758 131.116L133.728 131.156V131.146ZM134.117 81.8155C134.047 81.8455 133.977 81.8755 133.908 81.9255C133.947 81.9655 133.987 82.0255 134.017 82.0255C134.097 82.0055 134.167 81.9655 134.237 81.9255L134.127 81.8155H134.107H134.117ZM135.115 84.8161C135.045 84.8461 134.975 84.8761 134.905 84.9262L135.025 85.0462L135.244 84.9262C135.244 84.9262 135.164 84.8161 135.134 84.8161H135.115ZM135.244 126.605C135.174 126.565 135.095 126.525 135.025 126.495C134.995 126.495 134.955 126.565 134.915 126.605L135.134 126.715L135.254 126.605H135.244ZM136.052 81.0853C135.992 81.2153 135.942 81.3554 135.913 81.4954C135.913 81.5754 136.012 81.6654 136.072 81.7455L136.262 81.3754L136.072 81.0853H136.052ZM137.439 88.4869C137.359 88.5169 137.289 88.5469 137.219 88.5969L137.339 88.717L137.559 88.5969C137.559 88.5969 137.479 88.4869 137.449 88.4869H137.439ZM137.379 84.416C137.379 84.416 137.269 84.4961 137.279 84.5261C137.309 84.6061 137.339 84.6761 137.389 84.7461L137.509 84.6261L137.389 84.416H137.379ZM137.499 93.308L137.379 93.0879C137.379 93.0879 137.269 93.1679 137.269 93.198C137.299 93.278 137.329 93.348 137.379 93.418L137.499 93.298V93.308ZM138.426 89.8072C138.357 89.9072 138.247 90.0373 138.227 90.1173C138.207 90.1973 138.287 90.2973 138.327 90.3873L138.616 90.2673L138.436 89.8072H138.426ZM138.376 135.157C138.436 135.067 138.476 134.977 138.506 134.877C138.506 134.847 138.436 134.807 138.396 134.767L138.277 134.987L138.396 135.107L138.376 135.157ZM140.232 143.959C140.162 143.919 140.082 143.879 140.012 143.849C139.983 143.849 139.943 143.909 139.903 143.959L140.122 144.079L140.242 143.959H140.232ZM139.953 113.302L140.072 113.422C140.112 113.352 140.152 113.272 140.182 113.202C140.182 113.172 140.112 113.132 140.072 113.092L139.953 113.312V113.302ZM142.057 143.139C142.227 143.139 142.397 143.099 142.556 143.059C142.476 142.939 142.427 142.799 142.387 142.799C142.237 142.819 142.097 142.859 141.948 142.909C141.988 142.979 142.027 143.119 142.067 143.119L142.037 143.149L142.057 143.139ZM142.287 136.997L142.407 137.118C142.446 137.048 142.486 136.967 142.516 136.897C142.516 136.867 142.446 136.827 142.407 136.787L142.287 137.008V136.997Z" fill="#282828"/>
<path d="M178 182H38V191H178V182Z" fill="#282828"/>
</svg>
