<svg viewBox="0 0 100 30" fill="none" xmlns="http://www.w3.org/2000/svg">
  <g clip-path="url(#clip0_300_11683)">
  <path d="M54.0696 19.7078C52.855 16.1761 51.6567 12.6926 50.459 9.20872C50.428 9.21312 50.3969 9.21786 50.3659 9.22223C49.1251 12.7087 47.8844 16.1947 46.6345 19.7078H54.0696ZM26.3929 13.2456C26.4884 13.2609 26.5324 13.2737 26.576 13.2737C28.1251 13.2777 29.6741 13.2886 31.2234 13.2784C31.7872 13.2748 32.3596 13.27 32.9129 13.178C34.7254 12.8762 36.0231 11.4684 36.1214 9.75365C36.2345 7.78526 35.1929 6.272 33.3251 5.75078C32.8881 5.62888 32.418 5.57193 31.9624 5.56683C30.2348 5.54748 28.5066 5.56097 26.7789 5.56464C26.6517 5.56501 26.5249 5.58618 26.3929 5.59784V13.2456ZM84.0812 24.5363C85.967 24.5363 87.8086 24.66 89.6254 24.5045C91.8043 24.3176 93.2798 22.9153 93.7368 20.8272C93.9254 19.9651 94.0026 19.0698 94.0348 18.1865C94.1317 15.5089 94.2345 12.8276 93.9143 10.1562C93.7753 8.9974 93.4302 7.9181 92.553 7.04687C91.4892 5.99022 90.1773 5.58362 88.712 5.56355C87.281 5.54384 85.8493 5.56097 84.418 5.56501C84.3057 5.56537 84.1938 5.58909 84.0812 5.60185V24.5363ZM66.3077 11.9403V29.6823C66.102 29.6823 65.9436 29.682 65.7852 29.6823C63.1459 29.6837 60.5069 29.6778 57.8681 29.6961C57.5086 29.6989 57.3488 29.5993 57.2388 29.2626C56.7585 27.7942 56.2408 26.3379 55.7556 24.8713C55.6667 24.6023 55.5399 24.5126 55.2528 24.5133C51.9579 24.5228 48.6624 24.5228 45.3673 24.5133C45.0761 24.5122 44.9579 24.6118 44.8684 24.875C44.3664 26.3514 43.8357 27.8187 43.3362 29.2957C43.2345 29.5965 43.0895 29.6918 42.767 29.6896C40.7989 29.6775 38.8308 29.6789 36.863 29.7005C36.5294 29.7042 36.3699 29.6027 36.2268 29.3139C34.4385 25.7159 32.6288 22.1277 30.8485 18.5256C30.6553 18.1346 30.4357 18.012 30.0046 18.023C28.8146 18.0536 27.6235 18.0335 26.3836 18.0335V29.6554H20.5676V25.3535C20.4139 25.5177 20.3446 25.5834 20.2849 25.6568C18.1869 28.2465 15.4064 29.5455 12.0729 29.7673C8.679 29.9932 5.73145 28.9696 3.2635 26.6708C1.62527 25.1451 0.785464 23.2168 0.524422 21.0707C0.0854995 17.4594 0.183581 13.8296 0.361088 10.2066C0.40845 9.24085 0.578496 8.25901 0.849977 7.32864C1.9732 3.47905 4.73914 1.24456 8.60367 0.385006C11.7485 -0.314686 14.8787 -0.0529869 17.7032 1.67343C18.6668 2.26253 19.5201 3.02502 20.4456 3.72469C19.0371 5.06205 17.7163 6.31725 16.4245 7.544C15.8028 7.06621 15.1394 6.47202 14.3943 6.00006C12.5032 4.80253 9.80407 4.90728 8.12783 6.17782C7.00945 7.0257 6.39413 8.1736 6.33558 9.51643C6.21176 12.3656 6.16703 15.2187 6.14501 18.0704C6.13794 18.9818 6.26846 19.8994 6.40048 20.8053C6.78717 23.4628 9.09777 24.9622 11.8066 24.6823C14.6867 24.3848 16.442 22.4682 16.53 19.6293C16.5457 19.1234 16.5319 18.6168 16.5319 18.0635H11.2793V13.3109H20.5501V0.534656C20.6627 0.516406 20.7458 0.491585 20.829 0.491585C24.9441 0.496693 29.0647 0.375151 33.173 0.544141C38.3075 0.755472 41.0243 4.03459 41.7724 7.54509C42.6585 11.7035 40.7163 15.3497 36.7186 17.0221C36.6664 17.044 36.618 17.074 36.5186 17.1254C37.5345 19.0409 38.5425 20.9422 39.5978 22.9321C39.6915 22.6978 39.751 22.5566 39.8049 22.4131C42.4804 15.2406 45.1582 8.06922 47.8217 0.892713C47.9399 0.573706 48.0892 0.475889 48.424 0.481365C49.6465 0.499979 50.8696 0.503629 52.0918 0.479175C52.4519 0.472242 52.6066 0.585022 52.7285 0.913152C55.2049 7.56845 57.6935 14.219 60.1807 20.8703C60.2448 21.0418 60.3163 21.2108 60.4641 21.3689V0.523337C60.6525 0.509467 60.7944 0.490124 60.9368 0.490124C62.3835 0.487934 63.8297 0.497789 65.2758 0.481365C65.5841 0.478079 65.7536 0.583929 65.9169 0.831392C69.6587 6.49355 73.4086 12.1502 77.1576 17.8076C77.2502 17.9467 77.3468 18.0828 77.526 18.1901V0.545604C77.6451 0.525165 77.7285 0.498154 77.812 0.498154C81.912 0.501437 86.0163 0.396686 90.1112 0.54524C93.7103 0.675908 96.6764 2.1388 98.5243 5.32703C99.4633 6.94722 99.8559 8.72765 99.8849 10.5651C99.932 13.5204 99.9485 16.4787 99.881 19.4333C99.8303 21.643 99.3328 23.7632 98.0092 25.6261C96.3647 27.9398 94.0191 29.1258 91.2385 29.5074C89.9616 29.6826 88.6536 29.6736 87.3587 29.6843C84.4365 29.7078 81.514 29.6862 78.5915 29.6991C78.2679 29.7005 78.0869 29.5976 77.9134 29.3344C74.1841 23.665 70.4448 18.0014 66.7069 12.3367C66.6114 12.1922 66.5095 12.052 66.4106 11.9097C66.3761 11.9199 66.3419 11.9301 66.3077 11.9403Z" fill="#FAEBDC"/>
  </g>
  <defs>
  <clipPath id="clip0_300_11683">
  <rect width="100" height="30" fill="white"/>
  </clipPath>
  </defs>
  </svg>
  