{
	"asset":{
		"version":"2.0",
		"generator":"Maxon Cinema 4D 2025.1.2 (#200000219)"
	},
	"scenes":[{
		"nodes":[0]
	}],
	"nodes":[{
		"rotation":[0.4034242033958435,
		0.8257213830947876,
		-0.21920356154441834,
		0.32769325375556948],
		"name":"Cube",
		"mesh":0,
		"translation":[1.2331998348236085,
		1.3704670667648316,
		-4.3623199462890629],
		"scale":[1.0,
		1.0,
		1.0]
	}],
	"meshes":[{
		"name":"Cube",
		"primitives":[{
			"attributes":{
				"POSITION":1,
				"NORMAL":2,
				"TEXCOORD_0":3
			},
			"indices":0,
			"material":0
		}]
	}],
	"accessors":[{
		"type":"SCALAR",
		"bufferView":0,
		"componentType":5123,
		"count":19080,
		"byteOffset":0,
		"min":[0],
		"max":[19079]
	},
	{
		"type":"VEC3",
		"bufferView":1,
		"componentType":5126,
		"count":19080,
		"byteOffset":0,
		"min":[-4.629510402679443,
		-2.1730356216430666,
		-1.0014859437942505],
		"max":[4.629510402679443,
		2.1730356216430666,
		1.0014859437942505]
	},
	{
		"type":"VEC3",
		"bufferView":1,
		"componentType":5126,
		"count":19080,
		"byteOffset":12,
		"min":[-1.0,
		-1.0,
		-1.0],
		"max":[1.0,
		1.0,
		1.0]
	},
	{
		"type":"VEC2",
		"bufferView":1,
		"componentType":5126,
		"count":19080,
		"byteOffset":24,
		"min":[0.0,
		0.0],
		"max":[1.0,
		1.0]
	}],
	"bufferViews":[{
		"buffer":0,
		"byteOffset":0,
		"byteLength":38160,
		"target":34963
	},
	{
		"buffer":0,
		"byteOffset":38160,
		"byteLength":610560,
		"target":34962,
		"byteStride":32
	}],
	"buffers":[{
		"uri":"data:application/octet-stream;base64,",
		"byteLength":648720
	}],
	"materials":[{
		"pbrMetallicRoughness":{
			"baseColorFactor":[1.0,
			1.0,
			1.0,
			1.0],
			"metallicFactor":0.0,
			"roughnessFactor":0.0
		},
		"emissiveFactor":[0.0,
		0.0,
		0.0],
		"alphaMode":"OPAQUE",
		"doubleSided":false,
		"name":"RS Standard.1"
	}]
}