<?xml version="1.0" standalone="no"?>
<!DOCTYPE svg PUBLIC "-//W3C//DTD SVG 20010904//EN"
 "http://www.w3.org/TR/2001/REC-SVG-20010904/DTD/svg10.dtd">
<svg version="1.0" xmlns="http://www.w3.org/2000/svg"
 width="512.000000pt" height="512.000000pt" viewBox="0 0 512.000000 512.000000"
 preserveAspectRatio="xMidYMid meet">
<metadata>
Created by potrace 1.14, written by Peter Selinger 2001-2017
</metadata>
<g transform="translate(0.000000,512.000000) scale(0.100000,-0.100000)"
fill="#000000" stroke="none">
<path d="M837 3166 c-88 -26 -154 -65 -210 -126 -101 -108 -122 -208 -114
-535 6 -234 13 -277 62 -361 14 -23 46 -61 72 -84 187 -164 468 -159 650 12
l53 51 0 -87 0 -86 115 0 115 0 0 240 0 240 90 0 91 0 115 -237 c63 -131 120
-241 127 -245 7 -4 70 -7 142 -6 l129 3 24 65 c13 36 31 84 39 108 l16 42 218
0 217 0 33 -97 c17 -54 36 -104 42 -110 7 -10 57 -13 188 -13 l179 0 2 372 3
373 240 -370 240 -370 185 -3 c227 -4 387 10 463 38 114 43 212 166 237 299
17 89 13 506 -5 576 -34 127 -123 234 -233 276 -73 28 -268 40 -504 32 l-168
-6 -2 -365 -3 -366 -189 290 c-104 159 -212 324 -239 367 l-49 77 -109 0 -109
0 0 -432 c0 -259 -4 -427 -10 -418 -4 9 -56 146 -115 305 -58 160 -127 347
-153 417 l-47 128 -97 0 c-54 0 -98 -2 -98 -3 0 -2 -36 -102 -81 -223 -44
-120 -119 -325 -166 -454 -47 -129 -88 -238 -92 -242 -3 -4 -33 47 -67 113
l-61 120 34 16 c58 27 130 100 159 161 24 49 28 70 27 142 0 109 -26 180 -93
253 -75 83 -140 108 -309 119 -75 5 -214 6 -308 3 l-173 -7 0 -64 0 -63 -62
47 c-103 77 -155 96 -283 99 -71 1 -127 -3 -158 -11z m503 -341 l0 -195 -190
0 -190 0 0 -100 0 -100 110 0 110 0 0 -49 c0 -139 -84 -225 -220 -225 -95 0
-149 34 -187 119 -16 36 -18 68 -16 292 2 230 3 255 22 291 37 72 106 112 191
112 49 -1 100 -21 157 -63 l48 -35 78 74 c43 41 80 74 83 74 2 0 4 -88 4 -195z
m577 99 c92 -69 89 -212 -7 -269 -30 -17 -56 -21 -177 -23 l-143 -4 0 162 0
161 149 -3 c134 -3 153 -5 178 -24z m2328 7 c52 -23 102 -81 112 -128 4 -21 8
-139 8 -263 -1 -216 -1 -227 -24 -273 -15 -31 -39 -59 -64 -75 -38 -25 -48
-27 -179 -30 l-138 -4 0 396 0 396 123 0 c96 0 130 -4 162 -19z m-1596 -344
c39 -115 71 -213 71 -218 0 -5 -66 -9 -150 -9 -82 0 -150 1 -150 3 0 2 22 66
49 143 27 76 62 174 77 217 15 43 28 76 29 75 2 -2 35 -97 74 -211z"/>
</g>
</svg>
