<?xml version="1.0" standalone="no"?>
<!DOCTYPE svg PUBLIC "-//W3C//DTD SVG 20010904//EN"
 "http://www.w3.org/TR/2001/REC-SVG-20010904/DTD/svg10.dtd">
<svg version="1.0" xmlns="http://www.w3.org/2000/svg"
 width="700.000000pt" height="700.000000pt" viewBox="0 0 700.000000 700.000000"
 preserveAspectRatio="xMidYMid meet">
<metadata>
Created by potrace 1.14, written by Peter Selinger 2001-2017
</metadata>
<g transform="translate(0.000000,700.000000) scale(0.100000,-0.100000)"
fill="#000000" stroke="none">
<path d="M1009 6948 c16 -29 241 -419 500 -867 l470 -814 -165 -99 -165 -98
-822 474 -822 475 -3 -492 c-1 -271 0 -496 2 -502 2 -5 206 -127 453 -270
l450 -259 -217 -216 c-119 -118 -245 -245 -279 -282 l-63 -68 -174 0 -174 0 0
-430 0 -430 174 0 174 0 63 -68 c34 -37 160 -164 279 -282 l217 -216 -450
-259 c-247 -143 -451 -264 -453 -270 -2 -5 -3 -231 -2 -502 l3 -492 822 474
822 475 165 -98 165 -99 -499 -864 -499 -864 497 -3 c460 -2 498 -1 510 15 7
9 186 319 399 688 212 368 392 676 399 684 11 12 33 9 148 -15 l136 -29 0
-672 0 -673 430 0 430 0 2 672 3 672 129 29 c70 15 133 26 140 24 7 -3 188
-310 404 -684 215 -373 397 -686 404 -696 12 -16 47 -17 510 -15 l497 3 -499
865 -499 864 77 44 c42 25 116 69 164 99 l87 54 823 -475 823 -475 3 492 c1
271 0 497 -2 502 -2 6 -206 127 -453 270 l-450 259 217 216 c119 118 245 245
279 283 l63 67 174 0 174 0 0 430 0 430 -174 0 -174 0 -63 68 c-34 37 -160
164 -279 282 l-217 216 450 259 c247 143 451 265 453 270 2 6 3 231 2 502 l-3
492 -823 -475 -823 -475 -87 54 c-48 30 -122 74 -164 99 l-77 44 499 864 499
865 -497 3 c-465 2 -498 1 -510 -15 -7 -10 -189 -323 -405 -697 -215 -373
-396 -680 -403 -683 -7 -2 -70 9 -140 24 l-129 29 -3 672 -2 672 -430 0 -430
0 -2 -672 -3 -672 -130 -29 c-78 -18 -134 -26 -142 -21 -7 5 -192 320 -411
699 l-399 690 -502 3 -503 2 31 -52z m2756 -2163 c258 -57 478 -177 660 -360
145 -144 245 -303 313 -495 54 -153 67 -237 67 -430 0 -193 -13 -277 -67 -430
-68 -192 -168 -351 -313 -495 -185 -186 -404 -304 -667 -362 -118 -25 -399
-25 -518 1 -259 56 -480 176 -665 361 -184 183 -305 406 -361 665 -26 120 -26
400 0 520 56 259 177 482 361 665 209 210 456 331 770 379 62 9 352 -4 420
-19z"/>
</g>
</svg>
