<?xml version="1.0" encoding="utf-8"?>
<!-- Generator: Adobe Illustrator 27.2.0, SVG Export Plug-In . SVG Version: 6.00 Build 0)  -->
<svg version="1.1" id="Calque_1" xmlns="http://www.w3.org/2000/svg" xmlns:xlink="http://www.w3.org/1999/xlink" x="0px" y="0px"
	 viewBox="0 0 400 400" style="enable-background:new 0 0 400 400;" xml:space="preserve">
<g>
	<path d="M233.8,197.2c-1.5,1.7-2.8,3.5-4.3,5.1c-1.2,1.3-3,1.4-4.7,0.4c-1.7-0.9-3.4-1.7-5.3-2.1c-10.7-2.4-16.8,6-17,13.2
		c-0.1,4,0.8,7.6,3.5,10.7c3.1,3.5,7.1,4.8,11.7,4.5c2.7-0.2,5.2-0.8,7.5-2.2c0.5-0.3,0.7-0.6,0.7-1.2c0-1.9,0-3.8,0-5.8
		c-0.4,0-0.7,0-1,0c-1.7,0-3.4,0-5.1,0c-2.5,0-4-1.5-4-4c0-1.5,0-3,0-4.6c6.6,0,13.1,0,19.7,0c0,0.3,0,0.6,0,0.8
		c0,6.1,0,12.1,0,18.2c0,0.5-0.1,0.9-0.6,1.2c-5.8,4.6-12.4,7-19.8,6.7c-7-0.2-13.1-2.6-17.8-8c-3.4-4-5.1-8.7-5.3-14
		c-0.3-5.4,0.9-10.5,4.1-15c4-5.8,9.5-9.1,16.5-9.9c5.3-0.7,10.4-0.2,15.3,2.1C230,194.2,231.9,195.5,233.8,197.2z"/>
	<path d="M340.5,219.7c-1.9,0-3.8,0-5.6,0c-0.5,0-1.1,0-1.6-0.1c-1.4-0.2-2.7-1.5-2.8-2.9c-0.1-1.8,0-3.7,0-5.6c6.5,0,13,0,19.6,0
		c0,0.3,0,0.6,0,0.8c0,6.1,0,12.1,0,18.2c0,0.4-0.2,0.9-0.4,1.1c-8.5,6.7-18,8.8-28.3,5.2c-8.1-2.8-12.8-8.9-14.3-17.3
		c-1.2-7,0.1-13.5,4.6-19.2c4-5.1,9.2-8,15.6-8.7c5.3-0.6,10.4-0.2,15.3,2.1c2.2,1,4.1,2.3,6,3.9c-1.4,1.7-2.8,3.5-4.3,5
		c-1.2,1.3-3,1.4-4.7,0.4c-1.7-0.9-3.4-1.8-5.3-2.2c-10.8-2.3-16.8,6.2-17,13.4c0,2.4,0.3,4.8,1.3,7.1c2.4,5.4,7.8,8.6,13.9,8.1
		c2.7-0.2,5.2-0.8,7.6-2.3c0.5-0.3,0.7-0.6,0.6-1.1C340.4,223.6,340.5,221.7,340.5,219.7z"/>
	<path d="M352.9,237.3c1.2-2.8,2.3-5.4,3.4-8c5-11.8,10-23.6,15.1-35.3c0.7-1.7,2-2.6,3.9-2.6c1.9,0,3.8,0,5.6,0
		c0.6,0,0.9,0.2,1.1,0.7c5.3,12.6,10.7,25.1,16,37.7c1.1,2.5,2.1,4.9,3.2,7.6c-0.7,0-1.3,0-1.9,0c-1.9,0-3.7,0-5.6,0
		c-2,0-3.3-0.9-4-2.7c-0.9-2.2-1.9-4.5-2.8-6.8c-0.2-0.5-0.5-0.8-1.1-0.8c-5.9,0-11.9,0-17.8,0c-0.6,0-0.8,0.2-1,0.7
		c-1.2,3-2.4,5.9-3.6,8.9c-0.1,0.3-0.4,0.6-0.7,0.6C359.4,237.3,356.2,237.3,352.9,237.3z M376.9,203.3c-2.1,5.1-4.1,9.9-6.1,14.9
		c4.1,0,8.1,0,12.2,0C381,213.3,379,208.4,376.9,203.3z"/>
	<path d="M147.5,237.3c-2.8,0-5.5,0.1-8.2,0c-1.6-0.1-2.7-1.1-3.3-2.6c-0.9-2.3-1.9-4.6-2.8-6.9c-0.2-0.6-0.5-0.8-1.2-0.8
		c-5.9,0-11.8,0-17.7,0c-0.6,0-0.9,0.2-1.2,0.8c-1.2,2.9-2.4,5.8-3.5,8.7c-0.2,0.5-0.5,0.8-1.1,0.8c-3.1,0-6.2,0-9.4,0
		c0.2-0.4,0.3-0.7,0.4-1.1c6-14.1,12-28.1,17.9-42.2c0.8-1.8,2.1-2.7,4.1-2.7c2,0,4,0,6.1,0c0.1,0,0.1,0,0.2,0
		C134.5,206.6,141,221.9,147.5,237.3z M129.4,218.2c-2-5-4-9.8-6.1-14.9c-2.1,5.1-4.1,9.9-6.1,14.9
		C121.3,218.2,125.2,218.2,129.4,218.2z"/>
	<path d="M162.5,223.3c0,4.7,0,9.3,0,13.9c-3.4,0-6.6,0-10,0c0-0.3,0-0.6,0-0.9c0-13.5,0-27.1,0-40.6c0-2.3,1.8-4.3,4.1-4.3
		c5.7,0,11.5-0.2,17.2,0.2c6,0.4,10.8,3.1,13.4,8.8c2.8,6.1,1.4,13.9-3.2,18.2c-3.1,2.8-6.8,4.2-10.9,4.5c-3.2,0.2-6.3,0.1-9.5,0.2
		C163.2,223.3,162.9,223.3,162.5,223.3z M162.5,214.4c1.7,0,3.3,0,4.9,0c1.7,0,3.4,0,5-0.2c3.7-0.5,6-3.3,6-6.9
		c0-3.7-2.1-6.3-5.8-6.7c-3.3-0.3-6.7-0.2-10.1-0.3C162.5,205,162.5,209.7,162.5,214.4z"/>
	<path d="M300.6,196.9c-1.3,1.8-2.4,3.5-3.7,5.2c-0.9,1.1-2.4,1.3-3.9,0.7c-1.8-0.8-3.6-1.6-5.4-2.2c-2.2-0.7-4.5-0.9-6.7-0.3
		c-2.3,0.7-3.3,2.2-3.1,4.4c0.1,1.4,0.9,2.3,2.1,2.8c1.9,0.8,3.8,1.4,5.7,2c2.9,1,5.9,1.9,8.9,2.9c0.7,0.2,1.4,0.7,2,1
		c3.2,1.9,5.2,4.7,5.5,8.5c0.5,5-0.7,9.3-4.8,12.5c-2.1,1.6-4.4,2.6-7,3.1c-9,1.5-17-0.9-24.1-6.7c1.4-1.7,2.7-3.3,4.1-4.9
		c0.9-1,2.1-0.8,3.2-0.3c1.2,0.6,2.3,1.2,3.5,1.8c3.6,1.7,7.5,2.2,11.4,1.5c1.6-0.3,3-1.1,3.7-2.8c0.7-1.8,0.1-3.7-1.6-4.5
		c-1.9-0.9-3.9-1.6-5.9-2.3c-3.2-1-6.6-1.7-9.6-3.2c-5.4-2.6-7.1-6.5-6.9-11.8c0.3-6.6,4.5-11.4,11.4-12.7c7.8-1.5,14.9,0.3,21.2,5
		C300.4,196.7,300.4,196.7,300.6,196.9z"/>
	<path d="M249.4,191.4c1.4,0,2.8,0,4.2,0c0,15.3,0,30.5,0,45.9c-1.4,0-2.8,0-4.2,0C249.4,222,249.4,206.7,249.4,191.4z"/>
	<path d="M28.3,238c-4.2,0-7.5-3.3-7.5-7.4c0-4.1,3.4-7.5,7.5-7.5c4.1,0,7.4,3.3,7.5,7.4C35.8,234.6,32.5,237.9,28.3,238z"/>
	<path d="M7.9,238c-4.1,0-7.5-3.4-7.5-7.5c0-4.1,3.4-7.5,7.5-7.5c4.1,0,7.4,3.3,7.4,7.5C15.4,234.7,12.1,238,7.9,238z"/>
	<path d="M76.4,169.4c-0.1,4.2-3.5,7.5-7.7,7.4c-4.1-0.1-7.4-3.6-7.3-7.6c0.1-4.3,3.5-7.4,7.8-7.3C73.2,161.9,76.5,165.4,76.4,169.4
		z"/>
	<path d="M41.1,230.4c0-4.1,3.4-7.4,7.5-7.4c4.1,0,7.5,3.4,7.5,7.5c0,4.1-3.4,7.4-7.6,7.4C44.4,237.9,41.1,234.6,41.1,230.4z"/>
	<path d="M28.2,217.6c-4.1,0-7.5-3.4-7.5-7.5c0-4.1,3.4-7.4,7.5-7.4c4.1,0,7.5,3.4,7.5,7.5C35.7,214.3,32.4,217.6,28.2,217.6z"/>
	<path d="M76.4,210.2c-0.1,4.3-3.5,7.4-7.8,7.3c-4-0.1-7.2-3.5-7.2-7.5c0.1-4.2,3.5-7.5,7.7-7.4C73.2,202.7,76.5,206.1,76.4,210.2z"
		/>
	<path d="M76.4,189.8c-0.1,4.3-3.5,7.4-7.8,7.3c-4-0.1-7.2-3.5-7.2-7.5c0.1-4.2,3.5-7.5,7.7-7.4C73.2,182.4,76.5,185.8,76.4,189.8z"
		/>
	<path d="M48.6,197.2c-4.1,0-7.5-3.3-7.4-7.5c0-4.1,3.3-7.4,7.4-7.4c4.1,0,7.5,3.4,7.5,7.5C56.1,193.8,52.7,197.2,48.6,197.2z"/>
	<path d="M41.1,210c0-4.1,3.4-7.4,7.5-7.4c4.1,0,7.5,3.4,7.5,7.5c0,4.2-3.4,7.5-7.6,7.4C44.4,217.5,41.1,214.2,41.1,210z"/>
	<path d="M69,238c-4.2,0-7.5-3.3-7.5-7.4c0-4.1,3.4-7.5,7.5-7.5c4.1,0,7.5,3.4,7.5,7.5C76.4,234.7,73.1,238,69,238z"/>
</g>
</svg>
