<?xml version="1.0" encoding="utf-8"?>
<!-- Generator: Adobe Illustrator 27.2.0, SVG Export Plug-In . SVG Version: 6.00 Build 0)  -->
<svg version="1.1" id="Calque_1" xmlns="http://www.w3.org/2000/svg" xmlns:xlink="http://www.w3.org/1999/xlink" x="0px" y="0px"
	 viewBox="0 0 400 400" style="enable-background:new 0 0 400 400;" xml:space="preserve">
<style type="text/css">
	.st0{fill:#1D1D1B;}
</style>
<g>
	<path class="st0" d="M40.2,171.4h34.6v9.7h-24v14.2h20v0v9.7h-20v15h24v9.7H40.2V171.4z M41.2,171.4h32.8 M74.9,172.3v7.9
		 M73.9,181.1H51.8"/>
	<polygon class="st0" points="107.7,221.9 101.8,221.9 92,199.6 92,229.8 81.4,229.8 81.4,171.4 81.4,171.4 90.7,171.4 104.6,205.8 
		118.6,171.4 128,171.4 128,229.8 117.4,229.8 117.4,199.6 	"/>
	<path class="st0" d="M158.6,171.4l17.8,58.5H165l-3.1-11H147l-3.1,11h-11.3l17.8-58.5H158.6z M159,209.1l-4.5-18l-4.7,18h0H159z"/>
	<g>
		<path class="st0" d="M14.4,205.1h-13v-9.7h14.4c3.6,0,6.7-2.9,6.7-7.1c0-4.3-3.1-7.1-6.7-7.1H1.4v-9.7l14.4,0
			c14.4,0,17.3,10.9,17.3,17.3c0,7.3-4,11.5-8.3,14l9.6,27.2H23L14.4,205.1z"/>
		<path class="st0" d="M248.4,171.4h-4.5c-10.4,0-17,6.7-17,16.2v27.1c0,8.4,5,15,14.5,15.9v7.2h9.6v-7.2
			c9.1-1.2,14.5-7.5,14.5-15.9v-27.1C265.4,178,258.7,171.4,248.4,171.4 M251,220.3l0-8.2h-9.7l0,8.2c-0.5,0-1.7-0.8-2.4-1.5
			c-1-1.1-1.6-2.6-1.6-4.2v-27.1c0-3.6,3-6.6,6.6-6.6h4.5c3.7,0,6.5,2.9,6.5,6.6v27.1c0,1.7-0.7,3.3-1.7,4.5
			C252.7,219.6,251.9,220.2,251,220.3"/>
		<path class="st0" d="M203,195.3h-11l0-14.2h11c3.6,0,6.7,2.8,6.7,7.1C209.7,192.4,206.6,195.3,203,195.3 M181.3,171.4v58.5H192
			l0-24.8h9.6l8.6,24.8h11.4l-9.6-27.2c4.3-2.6,8.3-6.8,8.3-14.1c0-6.4-2.9-17.3-17.3-17.3L181.3,171.4z"/>
		<path class="st0" d="M325.9,162.2v11.9c-1.6-1.8-3.8-3-6.7-3c-6.4,0-10.9,5.1-10.9,11.7c0,6.6,3.9,11.7,10.9,11.7
			c3,0,5.2-1.3,6.7-3.1l0,2.6h6.3l0-31.8H325.9z M320.5,188.6c-3,0-5.5-2.4-5.5-5.8c0-3.5,2.5-5.8,5.5-5.8c3,0,5.5,2.4,5.5,5.8
			C326,186.2,323.5,188.6,320.5,188.6 M350.2,171.5v12c0,3.2-1.7,5.5-4.2,5.5c-2.9,0-3.9-1.3-3.9-4.2v-13.2h-6.4v14
			c0,5.8,3.3,8.9,8.6,8.9c2.8,0,5-1.4,5.9-3.1v2.6h6.4v-22.5H350.2z M371,171.1c-6.8,0-12.1,5.1-12.1,11.7c0,6.6,5.2,11.7,12.1,11.7
			c6.8,0,12.1-5.1,12.1-11.7C383.1,176.2,377.8,171.1,371,171.1 M371,176.9c3,0,5.5,2.3,5.5,5.8c0,3.6-2.5,5.8-5.5,5.8
			c-3,0-5.5-2.3-5.5-5.8C365.5,179.2,367.9,176.9,371,176.9"/>
		<path class="st0" d="M325.9,197.9v11.9c-1.6-1.8-3.8-3-6.7-3c-6.4,0-10.9,5.1-10.9,11.7s3.9,11.7,10.9,11.7c3,0,5.2-1.3,6.7-3.1
			l0,2.6h6.3l0-31.8H325.9z M320.5,224.3c-3,0-5.5-2.4-5.5-5.8s2.5-5.8,5.5-5.8c3,0,5.5,2.4,5.5,5.8S323.5,224.3,320.5,224.3
			 M335.5,197.9v7.3h3.6c0,2.4-1,3.5-3.6,3.7v3.1c4.5-0.4,7.3-2.8,7.3-7v-7.1H335.5z M364.1,229.7l-0.8-4.8v-10.3
			c0-5.1-3.9-7.8-9.8-7.8c-5.4,0-9.4,2.7-10,6.9l5.6,2.2c0-2.6,1.8-4.2,4.5-4.2c2.2,0,3.6,0.7,3.6,2.3c0,1.7-0.9,1.9-6.3,2.9
			c-4.7,0.9-7.7,2.9-7.7,6.8c0,4.2,3.2,6.4,7.8,6.4c2.6,0,5.1-1,6.5-2.9l0.9,2.5H364.1z M352.4,225.4c-1.7,0-2.6-1-2.6-2.2
			c0-1.3,1.1-2.2,2.9-2.6c2.8-0.6,3.8-0.7,4.5-1.2v1.3C357.1,223.5,355.5,225.4,352.4,225.4 M378.6,207c-2.1,0-4.1,1.1-5,3.2v-3
			h-6.4v22.5h6.4v-11c0-3.7,1.3-5.6,4.3-5.6c1.3,0,2.1,0.2,3.2,0.6v-6.2C380.3,207.1,379.6,207,378.6,207 M398.6,212.5v-5.3h-6.2
			v-8.7l-6.3,4.8v3.9H382v5.3h4.1v9.6c0,5.5,2.9,7.9,8.2,7.9c0.8,0,3.3-0.2,4.2-0.6v-5.5c-0.9,0.2-2.4,0.4-3.2,0.4
			c-2.1,0-2.8-0.7-2.8-3v-8.8H398.6z"/>
	</g>
</g>
</svg>
