<?xml version="1.0" encoding="utf-8"?>
<!-- Generator: Adobe Illustrator 27.2.0, SVG Export Plug-In . SVG Version: 6.00 Build 0)  -->
<svg version="1.1" id="Layer_1" xmlns="http://www.w3.org/2000/svg" xmlns:xlink="http://www.w3.org/1999/xlink" x="0px" y="0px"
	 viewBox="0 0 400 400" style="enable-background:new 0 0 400 400;" xml:space="preserve">
<style type="text/css">
	.st0{fill:#FFFFFF;}
</style>
<rect x="-9.8" y="106.4" width="419.5" height="187.1"/>
<path class="st0" d="M225.6,132.8l-13.3,61.6l0,0l15.5,72.7h-20.4l-8.4-46.5l0,0h-0.3l-4.2,17.2v29.3h-20.4V132.8h20.4v59h0.3
	l11.3-59C206.1,132.9,225.6,132.9,225.6,132.8z M41,176v13.8h114.1v20.3H41v13.8H20.8v-48L41,176L41,176z M244.9,238.8v-30.7l63-8.1
	l0,0v-0.2l-63-8.1V161h134.3v20.5h-90.8v0.3l90.8,12.9v10.5l-90.7,12.9l0,0v0.3h90.8v20.4L244.9,238.8L244.9,238.8z"/>
</svg>
