<?xml version="1.0" encoding="utf-8"?>
<!-- Generator: Adobe Illustrator 27.2.0, SVG Export Plug-In . SVG Version: 6.00 Build 0)  -->
<svg version="1.1" id="Ebene_1" xmlns="http://www.w3.org/2000/svg" xmlns:xlink="http://www.w3.org/1999/xlink" x="0px" y="0px"
	 viewBox="0 0 400 400" style="enable-background:new 0 0 400 400;" xml:space="preserve">
<path d="M400,167.5h-13.9v24.2H373v-24.2h-13.9v64.9H373v-26.8h13.1v26.7H400V167.5z M340.3,216.6c-1.4,3.4-3.9,5.1-7.4,5.1
	c-4.3,0-7.1-2.4-8.3-7.3c-0.7-3-1.1-8.1-1.1-15.2c0-7,0.5-11.9,1.5-14.9c1.3-3.9,3.9-5.9,7.7-5.9c3.7,0,6.1,1.8,7.4,5.5l10.9-4.2
	c-1.6-4.2-4.2-7.5-7.7-9.9c-3.3-2.3-6.9-3.4-10.8-3.4c-8.8,0-15.1,3.4-19.1,10.3c-3,5.2-4.6,12.7-4.6,22.4c0,6.7,0.4,11.8,1.1,15.4
	c1.1,5.7,3.3,10.2,6.6,13.4c3.9,3.9,9.4,5.9,16.3,5.9c4.1,0,7.8-1.1,11-3.4c3.2-2.3,5.7-5.4,7.3-9.4L340.3,216.6z M271.3,206.5
	l6.1-25h0.4l5.3,25H271.3z M286.4,167.5h-17.6l-18.3,64.8h14.5l3.3-14H286l3.3,14h15.1L286.4,167.5z M224.5,220.2h-5.2V204h5.4
	c5.9,0,8.8,2.6,8.8,7.7C233.5,217.4,230.5,220.2,224.5,220.2 M229.8,191.6c-1.3,1.3-3.1,2-5.3,2h-5.2v-14h5c5,0,7.5,2.3,7.5,6.9
	C231.8,188.5,231.1,190.2,229.8,191.6 M243.6,203c-1.6-2.6-3.6-4.4-6.1-5.4c4.4-2.5,6.6-6.8,6.6-12.9c0-5.8-2.1-10.2-6.4-13.3
	c-3.6-2.6-8.3-3.9-14-3.9h-17.4v64.8H223c6.7,0,12.3-1.8,16.6-5.4c4.3-3.7,6.4-8.8,6.4-15.2C246,208.5,245.2,205.6,243.6,203
	 M181.2,205c-0.1,1.7-0.1,3-0.3,4c-0.5,4-1.5,6.9-3.1,8.4c-1.6,1.6-3.6,2.4-6.1,2.4h-3.3v-39.7h3.3c3.2,0,5.6,1.2,7.2,3.6
	c1.6,2.4,2.4,7.5,2.4,15.4C181.2,201.4,181.2,203.3,181.2,205 M191.7,177.6c-3.7-6.7-10.3-10.1-19.7-10.1h-17.8v64.8h17.7
	c15.9,0,23.8-11.1,23.8-33.4C195.7,189.6,194.4,182.4,191.7,177.6 M146.7,219.5h-20.9v-52.1h-14.1v64.9h35V219.5z M84.6,217.7
	c-1.4,2.6-3.4,3.9-6.1,3.9c-2.5,0-4.4-1.2-5.8-3.5c-1.6-2.5-2.4-8.8-2.4-18.9c0-8.7,0.7-14.3,2-16.9c1.4-2.6,3.5-3.9,6.2-3.9
	c2.6,0,4.6,1.2,6,3.7c1.5,2.4,2.2,8.1,2.2,17C86.7,208.9,86,215.1,84.6,217.7 M95,173.6c-4.2-4.9-9.6-7.4-16.3-7.4
	c-6.8,0-12.2,2.5-16.3,7.5c-4.4,5.4-6.6,13.9-6.6,25.4c0,12.8,2.1,21.9,6.3,27.2c1.8,2.4,4.3,4.2,7.4,5.5c2.8,1.3,5.8,1.9,8.9,1.9
	c7,0,12.5-2.3,16.3-7c4.5-5.4,6.8-14.6,6.8-27.6C101.4,187.2,99.2,178.6,95,173.6 M25.7,192.4v11.9H32v4.4c0,2.8-0.3,5.1-0.8,6.9
	c-1.1,4-3.6,6.1-7.6,6.1c-3.9,0-6.4-2-7.5-6.1c-0.9-3-1.4-8.8-1.4-17.2c0-6.4,0.5-11,1.4-13.8c1.3-4.2,4-6.2,7.9-6.2
	c3.6,0,6.2,1.9,7.6,5.6l10.5-4.6c-3.8-8.7-10.1-13.1-18.8-13.1c-5.4,0-10,1.5-13.7,4.5c-3.7,3-6.2,7.2-7.6,12.5
	C0.6,188,0,193.1,0,198.6c0,11.3,1.5,19.6,4.4,24.8c1.8,3.3,4.5,5.9,8.1,7.7c3.3,1.7,6.9,2.5,10.8,2.5c7.8,0,13.8-3,17.7-9
	c3.3-5,4.9-11.4,4.9-19v-13.4H25.7z"/>
</svg>
