<?xml version="1.0" encoding="utf-8"?>
<!-- Generator: Adobe Illustrator 27.2.0, SVG Export Plug-In . SVG Version: 6.00 Build 0)  -->
<svg version="1.1" id="Calque_2_00000128476346561290954030000014220746145345467011_"
	 xmlns="http://www.w3.org/2000/svg" xmlns:xlink="http://www.w3.org/1999/xlink" x="0px" y="0px" viewBox="0 0 400 400"
	 style="enable-background:new 0 0 400 400;" xml:space="preserve">
<g id="Calque_1-2">
	<g>
		<g>
			<path d="M395.9,241.9c-5,5.8-9.6,10.6-15.2,11.3c0-9.4,10.2-32.2,14.8-39.6c3.2-5.1,3.7-7.1,3.7-8.7c0-1.9-2.6-5.7-8-5.5
				c-1.3,0-3.3,2.8-5.1,7.7c0-4.3-1.6-7.7-6.2-7.7c-13.5,0-30.6,24.2-34.5,42.8v0c-0.2,1-0.5,2.6-1.5,3.6l0,0
				c-4.4,4.8-10.2,7.1-14.6,7.2c0-9.9,7.9-31.8,11.2-37.9c10.9-8.6,26.6-25.5,26.6-41.3c0-3.3-6.2-6.1-9.2-6.1
				c-9.9,0-31.7,46.1-38.1,73.4l0,0c-0.2,0.8-0.3,1.6-1.4,3.3c-3.9,5.3-8.6,8.1-13.4,8.8c0-9.4,10.2-32.2,14.8-39.6
				c3.2-5.1,3.7-7.1,3.7-8.7c0-1.9-2.6-5.5-8-5.5c-1.3,0-3,2.8-4.9,7.7c0-4.3-1.9-7.7-6.5-7.7c-12.8,0-28.9,21.9-33.8,40
				c-0.3,0.9-0.4,1.7-1.6,3.5c-2.1,2.9-7.1,9.5-12.3,9.5c-2,0-2.6-1.1-2.6-3c0-4.1,4.4-10.2,4.4-16c0-2.8-1.3-4.3-3.7-5.5
				c11.3-3.4,18.1-12.3,18.1-20.7c0-5.7-4.1-7.8-8.2-7.8c-9.1,0-21.2,12.8-15.4,4c10.4-3.4,20.8-17.8,20.8-29.5
				c0-3.3-5.7-6.1-9.2-6.1c-12.5,0-31.9,47.1-38.7,72.5v0c-0.2,0.7-1,2.3-2.1,3.7h0c-2.3,2.8-7.2,7.9-13.6,9.2
				c0-9.4,10.2-32.2,14.8-39.6c3.2-5.1,3.6-7.1,3.7-8.7c0.4-4.5-6.6-6.2-8.1-5.5c-1.5,0.7-3.3,2.8-5.1,7.7c0-4.3-1.6-7.7-6.2-7.7
				c-12.9,0-29.1,22.1-33.9,40.3v0c-0.3,1.2-0.7,2.5-2.3,4.4h0c-2.4,3-7.1,8.3-11.6,8.3c-2,0-2.6-1.1-2.6-3c0-4.5,2.5-11.5,9-23.6
				c3.8-7.1,8.3-14.5,8.3-18.6c0-5.7-5.4-7.8-9-7.8c-5.3,0-18.7,11.6-13.2,4c10.4-3.4,20.8-17.8,20.8-29.5c0-3.3-5.7-6.1-9.2-6.1
				c-12.7,0-32.4,48.5-39,73.6l0,0c0,0.1-0.1,0.5-0.4,1c-1.1,1.8-5.6,8.6-15,10.9c0-9.4,10.2-32.2,14.8-39.6
				c3.2-5.1,3.7-7.1,3.7-8.7c0-1.9-2.6-5.5-8-5.5c-0.7,0-3,2.8-4.9,7.7c0-4.3-1.8-7.7-6.5-7.7c-12.9,0-29.1,22.1-33.9,40.3v0
				c-0.3,1.3-0.9,2.3-2.6,4.5c-2.8,3-8,8.3-11.2,8.2c-2,0-2.6-1.1-2.6-3c0-4.5,2.5-11.5,9-23.6c3.8-7.1,8.3-14.5,8.3-18.6
				c0-5.7-5.4-7.8-9-7.8c-5.3,0-14.5,12.8-26.4,34.2c4-13.5,11.5-23.1,11.5-26.4c0-5.7-5.4-7.8-9-7.8c-5.3,0-14.8,12.8-26.6,34.2
				c4-10.7,7.9-17.7,10.9-23.6c0.7-1.5,1.3-3.4,1.3-5c0-1.9-3.3-5.9-8-5.5c-4.8,0.4-20.5,38.6-20.5,54.3c0,2.1,2.5,6.1,7.3,6.1
				c3.3,0,3.8-2.5,3.8-6.9c0-1.3,0.1-3.2,0.7-5c3.2-11.5,20.4-34.2,26.6-35.7c-1.4,5-14.5,25.9-14.5,41.5c0,2.1,2.5,6.1,7.3,6.1
				c3.3,0,3.8-2.5,3.8-6.9c0-1.3,0.1-3.2,0.7-5c3.2-11.5,20.4-34.2,26.6-35.7c-1.1,6.5-14.9,26.2-14.9,39.7c0,5.3,3.3,7.9,7.5,7.9
				c8.8,0,15.9-7.9,18.7-13.1c-0.1,1-0.2,1.9-0.2,2.9c0,9,5,10.3,8.2,10.3c9.2,0,16.6-10.5,21.1-19.1c-2,4.7-3.4,9.8-3.4,13.7
				c0,3.6,2.6,5.4,5.5,5.4c8,0,15-6.5,18.8-11.7c-0.5,2.3-0.7,4.3-0.7,5.6c0,3.7,2.5,6.1,7.3,6.1c3.3,0,3.8-2.5,3.8-6.9
				c0-1.3,0.1-3.2,0.7-5c3.2-11.5,14.8-43.5,26.7-35.8c4.7,3.4-14.9,26.3-14.9,39.7c0,5.3,3.3,7.9,7.5,7.9c8.8,0,15.9-7.9,18.7-13.1
				c-0.1,1-0.2,1.9-0.2,2.9c0,9,5,10.3,8.2,10.3c9.2,0,16.4-10.5,20.8-19.1c-2,4.7-3.2,9.8-3.2,13.7c0,3.6,2.6,5.4,5.5,5.4
				c8,0,15-6.5,18.8-11.7c-0.5,2.3-0.7,4.3-0.7,5.6c0,3.7,2.5,6.1,7.3,6.1c3.3,0,3.8-2.5,3.8-6.9c0-1.3,0.1-3.2,0.7-5
				c3.2-11.5,13.7-48,28.1-35.7c4.2,4.6-4.9,13.6-13.3,15.2c-1.5,0.3-2.4,1.1-2.4,2.9c0,0.7,0.4,1.6,1.5,1.9
				c1.2,0.3,2.4,1.1,2.4,3.7c0,4.6-4.5,12-4.5,16.1c0,5.3,3.3,7.9,7.5,7.9c8.8,0,15.8-7.6,18.7-13.1c-0.1,0.9-0.1,1.9-0.1,2.8
				c0,9,5,10.3,8.2,10.3c9.2,0,16.6-10.5,21.1-19.1c-2,4.7-3.4,9.8-3.4,13.7c0,3.6,2.6,5.4,5.5,5.4c7.7,0,14.4-6,18.3-11.1
				c-0.2,1.8-0.4,3.4-0.4,4.9c0,4.2,3.3,6.2,6.6,6.2c7.6,0,14.9-5.3,19.9-11.1c0,0.3,0,0.6,0,0.8c0,9,5,10.3,8.2,10.3
				c9.2,0,16.4-10.5,20.8-19.1c-2,4.7-3.2,9.8-3.2,13.7c0,3.6,2.6,5.4,5.5,5.4c11.1,0,20.2-12.5,21.6-16.6
				C397.5,242.4,396.6,241.1,395.9,241.9L395.9,241.9z M359.9,182.4c0,4.2-9.8,20.2-15.3,24C348.7,197.2,358.1,182.8,359.9,182.4z
				 M262.4,182.4c0,6.1-7,14.9-12.1,17C255.6,188.7,260.7,183.6,262.4,182.4z M163.4,182.4c0,6.1-7,14.9-12.1,17
				C156.5,188.7,161.7,183.6,163.4,182.4z M85.6,250.4c-2,0-3.4-1.1-3.4-4.1c0-13.2,16.6-39.3,25.2-39.3c1.1,0,2.2,0.5,2.2,2.6
				C109.6,219.6,93.1,250.4,85.6,250.4L85.6,250.4z M184.6,250.4c-2,0-3.4-1.1-3.4-4.1c0-13.2,16.6-39.3,25.2-39.3
				c1.1,0,2.2,0.5,2.2,2.6C208.6,219.6,192.1,250.4,184.6,250.4L184.6,250.4z M283.7,250.4c-2,0-3.4-1.1-3.4-4.1
				c0-13.2,16.6-39.3,25.2-39.3c1.1,0,2.2,0.5,2.2,2.6C307.7,219.6,291.2,250.4,283.7,250.4L283.7,250.4z M359.5,250.4
				c-2,0-3.4-1.1-3.4-4.1c0-13.2,16.6-39.3,25.2-39.3c1.1,0,2.2,0.5,2.2,2.6C383.5,219.6,367,250.4,359.5,250.4L359.5,250.4z"/>
			<path d="M395.9,241.9c-5,5.8-9.6,10.6-15.2,11.3c0-9.4,10.2-32.2,14.8-39.6c3.2-5.1,3.7-7.1,3.7-8.7c0-1.9-2.6-5.7-8-5.5
				c-1.3,0-3.3,2.8-5.1,7.7c0-4.3-1.6-7.7-6.2-7.7c-13.5,0-30.6,24.2-34.5,42.8v0c-0.2,1-0.5,2.6-1.5,3.6l0,0
				c-4.4,4.8-10.2,7.1-14.6,7.2c0-9.9,7.9-31.8,11.2-37.9c10.9-8.6,26.6-25.5,26.6-41.3c0-3.3-6.2-6.1-9.2-6.1
				c-9.9,0-31.7,46.1-38.1,73.4l0,0c-0.2,0.8-0.3,1.6-1.4,3.3c-3.9,5.3-8.6,8.1-13.4,8.8c0-9.4,10.2-32.2,14.8-39.6
				c3.2-5.1,3.7-7.1,3.7-8.7c0-1.9-2.6-5.5-8-5.5c-1.3,0-3,2.8-4.9,7.7c0-4.3-1.9-7.7-6.5-7.7c-12.8,0-28.9,21.9-33.8,40
				c-0.3,0.9-0.4,1.7-1.6,3.5c-2.1,2.9-7.1,9.5-12.3,9.5c-2,0-2.6-1.1-2.6-3c0-4.1,4.4-10.2,4.4-16c0-2.8-1.3-4.3-3.7-5.5
				c11.3-3.4,18.1-12.3,18.1-20.7c0-5.7-4.1-7.8-8.2-7.8c-9.1,0-21.2,12.8-15.4,4c10.4-3.4,20.8-17.8,20.8-29.5
				c0-3.3-5.7-6.1-9.2-6.1c-12.5,0-31.9,47.1-38.7,72.5v0c-0.2,0.7-1,2.3-2.1,3.7h0c-2.3,2.8-7.2,7.9-13.6,9.2
				c0-9.4,10.2-32.2,14.8-39.6c3.2-5.1,3.6-7.1,3.7-8.7c0.4-4.5-6.6-6.2-8.1-5.5c-1.5,0.7-3.3,2.8-5.1,7.7c0-4.3-1.6-7.7-6.2-7.7
				c-12.9,0-29.1,22.1-33.9,40.3v0c-0.3,1.2-0.7,2.5-2.3,4.4h0c-2.4,3-7.1,8.3-11.6,8.3c-2,0-2.6-1.1-2.6-3c0-4.5,2.5-11.5,9-23.6
				c3.8-7.1,8.3-14.5,8.3-18.6c0-5.7-5.4-7.8-9-7.8c-5.3,0-18.7,11.6-13.2,4c10.4-3.4,20.8-17.8,20.8-29.5c0-3.3-5.7-6.1-9.2-6.1
				c-12.7,0-32.4,48.5-39,73.6l0,0c0,0.1-0.1,0.5-0.4,1c-1.1,1.8-5.6,8.6-15,10.9c0-9.4,10.2-32.2,14.8-39.6
				c3.2-5.1,3.7-7.1,3.7-8.7c0-1.9-2.6-5.5-8-5.5c-0.7,0-3,2.8-4.9,7.7c0-4.3-1.8-7.7-6.5-7.7c-12.9,0-29.1,22.1-33.9,40.3v0
				c-0.3,1.3-0.9,2.3-2.6,4.5c-2.8,3-8,8.3-11.2,8.2c-2,0-2.6-1.1-2.6-3c0-4.5,2.5-11.5,9-23.6c3.8-7.1,8.3-14.5,8.3-18.6
				c0-5.7-5.4-7.8-9-7.8c-5.3,0-14.5,12.8-26.4,34.2c4-13.5,11.5-23.1,11.5-26.4c0-5.7-5.4-7.8-9-7.8c-5.3,0-14.8,12.8-26.6,34.2
				c4-10.7,7.9-17.7,10.9-23.6c0.7-1.5,1.3-3.4,1.3-5c0-1.9-3.3-5.9-8-5.5c-4.8,0.4-20.5,38.6-20.5,54.3c0,2.1,2.5,6.1,7.3,6.1
				c3.3,0,3.8-2.5,3.8-6.9c0-1.3,0.1-3.2,0.7-5c3.2-11.5,20.4-34.2,26.6-35.7c-1.4,5-14.5,25.9-14.5,41.5c0,2.1,2.5,6.1,7.3,6.1
				c3.3,0,3.8-2.5,3.8-6.9c0-1.3,0.1-3.2,0.7-5c3.2-11.5,20.4-34.2,26.6-35.7c-1.1,6.5-14.9,26.2-14.9,39.7c0,5.3,3.3,7.9,7.5,7.9
				c8.8,0,15.9-7.9,18.7-13.1c-0.1,1-0.2,1.9-0.2,2.9c0,9,5,10.3,8.2,10.3c9.2,0,16.6-10.5,21.1-19.1c-2,4.7-3.4,9.8-3.4,13.7
				c0,3.6,2.6,5.4,5.5,5.4c8,0,15-6.5,18.8-11.7c-0.5,2.3-0.7,4.3-0.7,5.6c0,3.7,2.5,6.1,7.3,6.1c3.3,0,3.8-2.5,3.8-6.9
				c0-1.3,0.1-3.2,0.7-5c3.2-11.5,14.8-43.5,26.7-35.8c4.7,3.4-14.9,26.3-14.9,39.7c0,5.3,3.3,7.9,7.5,7.9c8.8,0,15.9-7.9,18.7-13.1
				c-0.1,1-0.2,1.9-0.2,2.9c0,9,5,10.3,8.2,10.3c9.2,0,16.4-10.5,20.8-19.1c-2,4.7-3.2,9.8-3.2,13.7c0,3.6,2.6,5.4,5.5,5.4
				c8,0,15-6.5,18.8-11.7c-0.5,2.3-0.7,4.3-0.7,5.6c0,3.7,2.5,6.1,7.3,6.1c3.3,0,3.8-2.5,3.8-6.9c0-1.3,0.1-3.2,0.7-5
				c3.2-11.5,13.7-48,28.1-35.7c4.2,4.6-4.9,13.6-13.3,15.2c-1.5,0.3-2.4,1.1-2.4,2.9c0,0.7,0.4,1.6,1.5,1.9
				c1.2,0.3,2.4,1.1,2.4,3.7c0,4.6-4.5,12-4.5,16.1c0,5.3,3.3,7.9,7.5,7.9c8.8,0,15.8-7.6,18.7-13.1c-0.1,0.9-0.1,1.9-0.1,2.8
				c0,9,5,10.3,8.2,10.3c9.2,0,16.6-10.5,21.1-19.1c-2,4.7-3.4,9.8-3.4,13.7c0,3.6,2.6,5.4,5.5,5.4c7.7,0,14.4-6,18.3-11.1
				c-0.2,1.8-0.4,3.4-0.4,4.9c0,4.2,3.3,6.2,6.6,6.2c7.6,0,14.9-5.3,19.9-11.1c0,0.3,0,0.6,0,0.8c0,9,5,10.3,8.2,10.3
				c9.2,0,16.4-10.5,20.8-19.1c-2,4.7-3.2,9.8-3.2,13.7c0,3.6,2.6,5.4,5.5,5.4c11.1,0,20.2-12.5,21.6-16.6
				C397.5,242.4,396.6,241.1,395.9,241.9L395.9,241.9z M359.9,182.4c0,4.2-9.8,20.2-15.3,24C348.7,197.2,358.1,182.8,359.9,182.4z
				 M262.4,182.4c0,6.1-7,14.9-12.1,17C255.6,188.7,260.7,183.6,262.4,182.4z M163.4,182.4c0,6.1-7,14.9-12.1,17
				C156.5,188.7,161.7,183.6,163.4,182.4z M85.6,250.4c-2,0-3.4-1.1-3.4-4.1c0-13.2,16.6-39.3,25.2-39.3c1.1,0,2.2,0.5,2.2,2.6
				C109.6,219.6,93.1,250.4,85.6,250.4L85.6,250.4z M184.6,250.4c-2,0-3.4-1.1-3.4-4.1c0-13.2,16.6-39.3,25.2-39.3
				c1.1,0,2.2,0.5,2.2,2.6C208.6,219.6,192.1,250.4,184.6,250.4L184.6,250.4z M283.7,250.4c-2,0-3.4-1.1-3.4-4.1
				c0-13.2,16.6-39.3,25.2-39.3c1.1,0,2.2,0.5,2.2,2.6C307.7,219.6,291.2,250.4,283.7,250.4L283.7,250.4z M359.5,250.4
				c-2,0-3.4-1.1-3.4-4.1c0-13.2,16.6-39.3,25.2-39.3c1.1,0,2.2,0.5,2.2,2.6C383.5,219.6,367,250.4,359.5,250.4L359.5,250.4z"/>
		</g>
		<g>
			<path d="M206.7,187.9c13.4,1.2,25.5-10.6,25.5-10.6s-9.8-13.8-23.2-15c-11.8-1.1-22.5,7.9-25,10.2c0,0.1,0,0.3,0,0.4
				c0,0.2,0,0.5-0.1,0.7C186,176.2,195,186.9,206.7,187.9 M226,176.7c0,0-5.6,5.5-13,7.4c0.3-0.2,0.6-0.4,0.9-0.6
				c4.7-3.4,5.7-9.9,2.3-14.5c-0.5-0.7-1.1-1.3-1.8-1.9C221.5,170.2,226,176.7,226,176.7 M203.7,178.1c-1.7-2.3-1.1-5.6,1.2-7.3
				c2.3-1.7,5.6-1.1,7.3,1.2c1.7,2.3,1.1,5.6-1.2,7.3C208.6,181,205.3,180.5,203.7,178.1 M202.7,166.1c-0.3,0.2-0.6,0.4-0.9,0.6
				c-4.7,3.4-5.7,9.9-2.3,14.5c0.5,0.7,1.1,1.3,1.8,1.9c-6.9-3.1-11.5-9.6-11.5-9.6S195.4,167.9,202.7,166.1"/>
			<path d="M210.8,156.3c-0.4,2.1-4.2,2.5-5.2,0.5c-2.1-4-5.4-13.8-0.5-16.1C211,138,212.4,148.4,210.8,156.3L210.8,156.3z"/>
			<path d="M234.3,152.4c4.3-1.3,7.1,4.2,4.2,6.9c-4.3,4-12,5.1-13.4,3.8C223.6,161.8,227.7,154.5,234.3,152.4z"/>
			<path d="M181.2,153.8c0-2.4,5.2-5.3,8,0.3c2.6,5.1,2.9,8.3,1.1,8.7C188.6,163.3,181.2,157.4,181.2,153.8L181.2,153.8z"/>
		</g>
		<g>
			<path d="M124.8,191.5c10.4-2.4,16.6-14.4,16.6-14.4s-10.8-8-21.2-5.6c-9.2,2.1-15,11.6-16.3,13.9c0,0.1,0.1,0.2,0.1,0.3
				c0,0.2,0.1,0.4,0.1,0.5C106.3,187.8,115.7,193.6,124.8,191.5 M136.6,178.2c0,0-2.9,5.6-8,8.8c0.2-0.2,0.4-0.4,0.5-0.7
				c2.7-3.7,1.9-8.9-1.8-11.5c-0.6-0.4-1.2-0.7-1.8-1C131.5,174.5,136.6,178.2,136.6,178.2 M120.1,184.9c-1.8-1.3-2.3-3.9-0.9-5.8
				c1.3-1.8,3.9-2.3,5.8-0.9c1.8,1.3,2.3,3.9,0.9,5.8C124.5,185.8,121.9,186.2,120.1,184.9 M116.3,176c-0.2,0.2-0.4,0.4-0.5,0.7
				c-2.7,3.7-1.9,8.9,1.8,11.5c0.6,0.4,1.2,0.7,1.8,1c-6-0.6-11.1-4.4-11.1-4.4S111.3,179.2,116.3,176"/>
			<path d="M103.2,177c0,0-6.2-2.6-2.5-8C104.3,163.5,108.4,179.8,103.2,177z"/>
			<path d="M116.9,169c0,0-7.1-7.7-2.2-10.5S121.4,172.1,116.9,169z"/>
			<path d="M130.3,169.5c-0.6-0.6-2.5-11.2,2.5-10.9C137.9,158.9,133.6,173,130.3,169.5z"/>
		</g>
		<g>
			<path d="M295.9,191.9c9.9,2.1,19.8-5.7,19.8-5.7s-6-11.1-15.9-13.1c-8.7-1.8-17.4,3.9-19.4,5.4c0,0.1,0,0.2,0,0.3
				c0,0.2-0.1,0.3-0.1,0.5C281.6,181.4,287.3,190.1,295.9,191.9 M311.2,185.3c0,0-4.7,3.6-10.3,4.4c0.2-0.1,0.5-0.2,0.7-0.4
				c3.7-2.1,5.1-6.8,3-10.6c-0.3-0.6-0.7-1.1-1.1-1.5C308.4,180.1,311.2,185.3,311.2,185.3 M294.5,184.4c-1-1.9-0.4-4.2,1.5-5.3
				c1.9-1,4.2-0.4,5.3,1.5c1,1.9,0.4,4.2-1.5,5.3S295.5,186.2,294.5,184.4 M294.8,175.4c-0.2,0.1-0.5,0.2-0.7,0.4
				c-3.7,2.1-5.1,6.8-3,10.6c0.3,0.6,0.7,1.1,1.1,1.5c-4.8-2.9-7.7-8.1-7.7-8.1S289.2,176.1,294.8,175.4"/>
			<path d="M303.8,170c-1.4,2-4.4,1.1-4.4-1.4c0-4.6,0.8-10.1,4.2-9.2C308.1,160.8,306.9,165.5,303.8,170L303.8,170z"/>
			<path d="M312.5,174.8c0,0,1.3-7.3,7.4-7.3C325,167.5,316.4,181.5,312.5,174.8"/>
			<path d="M284.6,171.2c0,0-7.1-7.8-3.6-9.4C284.4,160.2,291.2,171.6,284.6,171.2z"/>
		</g>
	</g>
</g>
</svg>
