<?xml version="1.0" encoding="utf-8"?>
<!-- Generator: Adobe Illustrator 27.2.0, SVG Export Plug-In . SVG Version: 6.00 Build 0)  -->
<svg version="1.1" id="Calque_1" xmlns="http://www.w3.org/2000/svg" xmlns:xlink="http://www.w3.org/1999/xlink" x="0px" y="0px"
	 viewBox="0 0 400 400" style="enable-background:new 0 0 400 400;" xml:space="preserve">
<g>
	<path d="M233.4,0.1c-6.1,0-11.1,5-11.1,11.1v33.3h166.6c6.1,0,11.1-5,11.1-11.1V0.1H233.4z"/>
	<path d="M399.9,122.3V100c0-6.1-5-11.1-11.1-11.1H222.2V44.5h-33.3c-6.1,0-11.1,5-11.1,11.1v122.2h-44.4V11.2
		c0-6.1-5-11.1-11.1-11.1H100c-6.1,0-11.1,5-11.1,11.1v166.6H44.4V11.2c0-6.1-5-11.1-11.1-11.1H0v166.6c0,6.1,5,11.1,11.1,11.1h33.3
		v36.9v7.5h122.2c6.1,0,11.1-5,11.1-11.1v-25.8v-7.5h44.4v-44.4h166.6C395,133.4,399.9,128.4,399.9,122.3z"/>
	<path d="M166.6,266.6H44.4v-44.4H11.1c-6.1,0-11.1,5-11.1,11.1v122.2v0v44.4h177.7v-33.3c0-6.1-5-11.1-11.1-11.1H44.4v-44.4h122.2
		c6.1,0,11.1-5,11.1-11.1v-22.2C177.7,271.6,172.8,266.6,166.6,266.6z"/>
	<path d="M388.9,177.8H222.3v33.3c0,6.1,5,11.1,11.1,11.1h122.2v44.4h33.3c6.1,0,11.1-5,11.1-11.1v-33.3v0v-33.3
		C400,182.8,395,177.8,388.9,177.8z"/>
	<path d="M388.9,355.5H266.7v-44.4h-33.3c-6.1,0-11.1,5-11.1,11.1v33.3v0v33.3c0,6.1,5,11.1,11.1,11.1H400v-33.3
		C400,360.5,395,355.5,388.9,355.5z"/>
	<path d="M355.6,300v-33.3h-77.8c-6.1,0-11.1,5-11.1,11.1v33.3h77.8C350.6,311.1,355.6,306.1,355.6,300z"/>
</g>
</svg>
