<?xml version="1.0" encoding="utf-8"?>
<!-- Generator: Adobe Illustrator 27.2.0, SVG Export Plug-In . SVG Version: 6.00 Build 0)  -->
<svg version="1.1"
	 id="svg2" xmlns:svg="http://www.w3.org/2000/svg" xmlns:sodipodi="http://sodipodi.sourceforge.net/DTD/sodipodi-0.dtd" xmlns:inkscape="http://www.inkscape.org/namespaces/inkscape" xmlns:rdf="http://www.w3.org/1999/02/22-rdf-syntax-ns#" xmlns:cc="http://creativecommons.org/ns#" xmlns:dc="http://purl.org/dc/elements/1.1/" inkscape:version="0.92.1 r15371" sodipodi:docname="Admeira.svg"
	 xmlns="http://www.w3.org/2000/svg" xmlns:xlink="http://www.w3.org/1999/xlink" x="0px" y="0px" viewBox="0 0 400 400"
	 style="enable-background:new 0 0 400 400;" xml:space="preserve">
<style type="text/css">
	.st0{clip-path:url(#SVGID_00000080192376522663855050000011358920117437111435_);}
</style>
<sodipodi:namedview  bordercolor="#666666" borderopacity="1" gridtolerance="10" guidetolerance="10" id="namedview4" inkscape:current-layer="g10" inkscape:cx="77.424291" inkscape:cy="47.024045" inkscape:pageopacity="0" inkscape:pageshadow="2" inkscape:window-height="1017" inkscape:window-maximized="1" inkscape:window-width="1920" inkscape:window-x="-8" inkscape:window-y="-8" inkscape:zoom="2.3825276" objecttolerance="10" pagecolor="#ffffff" showgrid="false" showguides="false">
	<sodipodi:guide  id="guide8431" inkscape:locked="false" orientation="0.70710678,0.70710678" position="547.27797,-480.79736">
		</sodipodi:guide>
</sodipodi:namedview>
<g id="g10" transform="matrix(1.3333333,0,0,-1.3333333,0,44)" inkscape:groupmode="layer" inkscape:label="logo">
	<g id="g12">
		<g>
			<defs>
				<rect id="SVGID_1_" x="-50" y="-166.3" width="400" height="98.5"/>
			</defs>
			<clipPath id="SVGID_00000059295856200969356010000000741504556208003480_">
				<use xlink:href="#SVGID_1_"  style="overflow:visible;"/>
			</clipPath>
			<g id="g14" style="clip-path:url(#SVGID_00000059295856200969356010000000741504556208003480_);">
				<g id="g20" transform="translate(8.687,32.9754)">
					<path id="path22" inkscape:connector-curvature="0" d="M10.8-113.1l-19.4-49.9H4.7l2.5,6.7h18.6l2.5-6.7h13.4l-19.4,49.9H10.8z
						 M11.7-144.6l4.7,12.5l4.9-12.5H11.7z M107.1-137l-15.9-25l-15.6,25l0.2,0.4l5.6,14.3c-2.2,4.9-9.4,9.2-24.4,9.2H43.6v-49.9
						h13.6c3.8,0,6.3,0.2,8.3,1.1l-2-5.6v-19.4h12.7v28.2l9.8-17.2h2.5h5.6h2.5l10.1,17.2v-28.2h12.7v49.9H107.1z M59.3-150.9h-2.7
						v25.9h2.7c10.7,0,15.9-3.8,16.3-11.8l-4.2-10.7C68.4-150,64.6-150.9,59.3-150.9 M128.8-186.9h37.6v12.1h-24.6v7.4h23.5v11.8
						h-23.5v6.5h24.6v12.1h-37.6V-186.9z M174.4-186.9h12.7v49.9h-12.7V-186.9z M216.2-159.6h-6.3v10.7h6.3c7.4,0,8.5-2.5,8.5-5.4
						C224.7-156.7,223.8-159.6,216.2-159.6 M261.4-168.3l4.9,12.5l4.9-12.5H261.4z M241-186.9h13.2l2.7,6.7h18.6l2.7-6.7h13.2
						L271.9-137h-11.4L241-186.9z M224.9-186.9h14.5l-11,17.9c5.4,3.1,8.7,8.7,8.7,15.2c0,10.1-7.8,16.8-19.4,16.8H197v-49.9h12.7
						v15h5.8L224.9-186.9z"/>
				</g>
			</g>
		</g>
	</g>
</g>
</svg>
