<?xml version="1.0" encoding="utf-8"?>
<!-- Generator: Adobe Illustrator 27.2.0, SVG Export Plug-In . SVG Version: 6.00 Build 0)  -->
<svg version="1.1" id="Calque_1" xmlns="http://www.w3.org/2000/svg" xmlns:xlink="http://www.w3.org/1999/xlink" x="0px" y="0px"
	 viewBox="0 0 400 400" style="enable-background:new 0 0 400 400;" xml:space="preserve">
<path d="M357.9,183h-8.4v20.9c0,5.4-3.5,9.2-8.4,9.2c-3.9,0-6.5-2.8-6.5-8.4V183h-8.3v22.6c0,10.8,5.9,15.2,12.7,15.2
	c4.8,0,8.6-2.7,10.4-5.3h0.1v4.4h8.4V183z M106.7,220h9.4v-8.2h-7.3c-1.2,0-2.1-1-2.1-2.1v-18.9h9.4V183h-9.4v-10.5h-8.4V183h-7.7
	v7.7h7.7v21C98.2,216.3,102,220,106.7,220z M252.4,220h9.4v-8.2h-7.3c-1.2,0-2.1-1-2.1-2.1v-18.9h9.4V183h-9.4v-10.5h-8.4V183h-7.7
	v7.7h7.7v21C243.9,216.3,247.7,220,252.4,220z M372.6,197.8c0.9-4.8,4.6-8,9.1-8c4.3,0,8.2,3.2,8.9,8H372.6z M382.1,220.8
	c7.5,0,13.5-2.9,17.1-11.5l-8.9-1c-1.3,3.2-4.4,5.1-8.2,5.1c-4.7,0-8.7-3.2-9.5-9.2H400c0-14.9-8.8-22.1-18.6-22.1
	c-10,0-18,7.9-18,19.4S371.4,220.8,382.1,220.8z M301.1,213c-5.7,0-10.1-4.7-10.1-11.5c0-6.8,4.4-11.5,10.1-11.5s10.2,4.6,10.2,11.5
	C311.2,208.3,306.7,213,301.1,213z M272.8,179.1c3.2,0,5.6-2.5,5.6-5.6c0-3.1-2.4-5.6-5.6-5.6c-3.2,0-5.6,2.5-5.6,5.6
	C267.2,176.6,269.6,179.1,272.8,179.1z M311,232.2h8.4l0.1-49.2h-8.4v4.1H311c-2.2-2.2-5.9-4.9-11.5-4.9c-9.7,0-17.1,7.9-17.1,19.4
	s7.4,19.3,17.1,19.3c5.6,0,9.3-2.7,11.5-5h0.2L311,232.2z M268.6,220h8.3v-37h-8.3V220z M212.6,220.8c5.5,0,8.9-2.1,11.7-7.4h2.2
	c0,4.8,0.7,6.5,3.4,6.5h7.7v-8.2h-4.8v-14.9c0-8.9-6.7-14.7-16-14.7c-9.2,0-15.7,4.6-16.1,12.6h8.4c0.6-3.5,3.6-5.6,7.5-5.6
	c4,0,7.7,2.5,7.7,7.2v1.3c0,0-3.2,0-10.9,0.4c-10,0.4-13.5,5.8-13.5,11.2C199.9,216.3,205.1,220.8,212.6,220.8z M214.5,213.8
	c-3.4,0-5.9-1.7-5.9-4.8c0-2.7,1.3-4.6,6.6-5c4.4-0.4,9.1-0.4,9.1-0.4v1.2C224.2,210.7,220.7,213.8,214.5,213.8z M186.4,220h9.4
	v-8.2h-7.3c-1.2,0-2.1-1-2.1-2.1v-18.9h9.4V183h-9.4v-10.5H178V183h-7.7v7.7h7.7v21C178,216.3,181.8,220,186.4,220z M127.3,179.1
	c3,0,5.5-2.5,5.5-5.6c0-3.1-2.5-5.6-5.5-5.6c-3.2,0-5.6,2.5-5.6,5.6C121.7,176.6,124.1,179.1,127.3,179.1z M153.1,220.8
	c8.6,0,14.4-4.8,14.4-11.6c0-7.8-6.3-9.8-11.8-11c-5.3-1.3-9.3-1.8-9.3-5c0-2.4,2.2-3.8,5.4-3.8c3.9,0,6,2.2,6.3,4.8h8.9
	c-0.7-7.2-6.5-12.1-14.9-12.1c-8.2,0-14.3,5.2-14.3,11.6c0,8.2,7,10.3,12.9,11.7c5.3,1.3,8.4,2.2,8.4,4.7c0,2.3-2.8,3.4-6.1,3.4
	c-3.2,0-5.8-1.3-6.5-4.8H137C137.8,216.3,143.8,220.8,153.1,220.8z M122.9,220h8.6v-37h-8.6V220z M55.4,220h8.4v-20.9
	c0-5.4,3.5-9.2,8.4-9.2c3.9,0,6.5,2.8,6.5,8.4V220H87v-22.6c0-10.8-5.9-15.2-12.7-15.2c-4.8,0-8.6,2.7-10.4,5.3h-0.1V183h-8.4V220z
	 M17.1,199.4l7-19.8h2.1l7.2,19.8H17.1z M0,220h8.8l5-12H37l4.9,12h8.6l-20-49.1H19.8L0,220z"/>
</svg>
