<?xml version="1.0" encoding="utf-8"?>
<!-- Generator: Adobe Illustrator 27.2.0, SVG Export Plug-In . SVG Version: 6.00 Build 0)  -->
<svg version="1.1" id="Calque_1" xmlns="http://www.w3.org/2000/svg" xmlns:xlink="http://www.w3.org/1999/xlink" x="0px" y="0px"
	 viewBox="0 0 400 400" style="enable-background:new 0 0 400 400;" xml:space="preserve">
<style type="text/css">
	.st0{fill-rule:evenodd;clip-rule:evenodd;}
</style>
<g>
	<path class="st0" d="M57.9,293.7h97.5v-98H57.9C57.9,195.7,57.9,293.7,57.9,293.7z"/>
	<g>
		<path class="st0" d="M250.2,0h-96.3v194.3h96c53.1,0,96-43.4,96-97S303.1,0,250.2,0z"/>
		<path class="st0" d="M66.9,353.2v16.6c1,0.2,2,0.2,3.2,0.2c2.2,0,3.9-0.7,5.1-2.2c1.2-1.5,1.7-3.7,1.7-6.1c0-5.6-2.4-8.5-7.3-8.5
			L66.9,353.2L66.9,353.2z M66.9,374.2v9l4.1,0.5c0,0.2,0,0.7,0,1c0,1-0.2,2-0.5,2.9H54c-0.2-1.5-0.2-2.4-0.2-2.9
			c0.2-0.5,0.7-0.7,1.5-1c0.7-0.2,1.7-0.5,2.7-0.5v-29.7l-4.1-0.5c0-0.7,0-1.5,0-2.2c0-0.5,0.2-1.2,0.5-2h16.1c5.1,0,9.3,1,11.9,2.9
			c2.7,2,4.1,4.9,4.1,8.8c0,2.7-0.7,5.1-2,7.1c-1.2,2-3.2,3.7-5.4,4.6c-2.4,1-5.1,1.7-8.5,1.7C69.6,374.4,68.4,374.2,66.9,374.2z"/>
	</g>
	<path class="st0" d="M104.4,381.2c1-1.5,1.2-3.7,1.2-6.8c0-3.9-0.5-6.6-1.7-8.5c-1-2-2.4-2.7-4.1-2.7c-1.5,0-2.7,0.7-3.4,2.2
		c-1,1.5-1.2,3.7-1.2,6.8c0,3.7,0.5,6.6,1.7,8.5c1,2,2.4,2.9,4.1,2.9C102.5,383.4,103.5,382.7,104.4,381.2z M92.7,385.9
		c-2-1-3.7-2.7-4.6-4.6c-1.2-2-1.7-4.4-1.7-7.1c0-3.2,0.7-5.9,2-8c1.2-2.2,3.2-3.9,5.4-5.1c2.2-1.2,4.9-1.7,7.8-1.7
		c2.7,0,4.9,0.5,7.1,1.7c2,1,3.7,2.7,4.6,4.6c1.2,2,1.7,4.4,1.7,7.1c0,3.2-0.7,5.9-2,8.3c-1.2,2.2-3.2,4.1-5.4,5.4
		c-2.2,1.2-4.9,1.7-7.8,1.7C97.1,387.6,94.7,387.1,92.7,385.9z"/>
	<path class="st0" d="M118.8,384.9c0.2-0.2,0.7-0.7,1.5-1c0.7-0.2,1.5-0.5,2.4-0.5V352l-3.7-0.7c0-0.2,0-0.7,0-1.2
		c0-0.7,0-1.5,0.2-2.2c2.7-1,6.3-1.2,10.7-1.2l1.2,0.2v36.6l3.9,0.2c0,0.2,0,0.5,0,1c0,0.7-0.2,1.7-0.5,2.4h-15.6
		C118.8,386.3,118.8,385.6,118.8,384.9z"/>
	<path class="st0" d="M142.7,394.4c0-0.7,0-2,0.2-3.2c0.5,0.2,1,0.2,2,0.2c0.7,0,1.5,0.2,2,0.2c1.7,0,3.4-0.2,4.9-1
		c1.5-0.7,2.4-2,3.2-3.4c-1.5,0.2-2.4,0.2-3.2,0.2l-9-24.1l-3.4-0.5c0-1.5,0-2.7,0.2-3.7h15.8c0.2,1.2,0.2,2.2,0.2,2.7
		c-0.2,0.2-0.5,0.7-1.2,1c-0.5,0.2-1.2,0.5-2,0.5l4.6,13.4c0.2,1,0.5,2,0.7,3.2h0.2l5.6-16.8l-3.7-0.5c0-0.2,0-0.5,0-1
		c0-0.7,0.2-1.7,0.5-2.7h11.2c0.2,1,0.2,2,0.2,2.7c-0.2,0.2-0.7,0.7-1.5,1c-0.7,0.2-1.7,0.5-2.7,0.5l-9.3,24.9c-1,2.7-2,4.9-3.2,6.6
		s-2.7,2.9-4.6,3.9c-2,1-4.1,1.2-7.1,1.2C143,398,142.7,396.3,142.7,394.4z"/>
	<path class="st0" d="M187.8,373.7c0.7-1,1-2.2,1-3.9c0-1.7-0.5-3.2-1.2-4.4s-1.7-1.7-3.2-1.7c-1.2,0-2,0.5-2.7,1.5
		c-0.7,1-1,2.2-1,3.9c0,1.7,0.5,3.4,1.2,4.6c0.7,1.2,1.7,1.7,2.9,1.7C186.3,375.1,187.1,374.6,187.8,373.7z M178.3,388.3
		c-0.5,0.7-0.7,1.7-0.7,2.7c0,1.5,0.7,2.7,2.2,3.4c1.5,0.7,3.4,1.2,5.9,1.2c2,0,3.2-0.2,4.4-0.7c1-0.5,1.7-1.2,1.7-2.2
		c0-0.5-0.2-1-0.5-1.2c-0.5-0.2-1-0.5-2-0.7c-1-0.2-2.4-0.5-4.4-0.7C181.7,389.5,179.8,389,178.3,388.3z M200,362.5
		c0,0.7,0,1.2-0.2,2h-4.4c0.7,1.5,1.2,2.9,1.2,4.6c0,2-0.5,3.4-1.5,5.1c-1,1.5-2.4,2.7-4.4,3.7s-4.1,1.5-6.6,1.5
		c-1.2,0-2.2,0-3.2-0.2l-0.5,2.2c0.5,0.2,1.5,0.5,2.9,0.7c1.5,0.2,3.4,0.5,5.9,0.7c3.4,0.2,5.9,1,7.6,2.2c1.7,1,2.4,2.9,2.4,5.4
		c0,3.4-1.5,5.9-4.4,7.3c-2.9,1.5-6.6,2.4-10.7,2.4c-3.9,0-6.8-0.7-9-2c-2.2-1.2-3.4-2.9-3.4-5.4c0-1.2,0.5-2.4,1.2-3.4
		s1.7-1.7,2.9-2.2c-1-1-1.5-2.2-1.5-3.9c0-0.2,0-0.7,0-1.2l3.4-4.1c-1.5-0.7-2.4-2-3.2-3.4c-0.7-1.5-1-2.7-1-4.4
		c0-2,0.5-3.7,1.5-5.1c1-1.7,2.4-2.9,4.1-3.9c2-1,4.1-1.5,6.6-1.5c2.9,0,5.4,0.7,7.1,2c2.2-1.2,4.4-2.2,6.3-2.7
		C199.8,359.8,200,361,200,362.5z"/>
	<path class="st0" d="M228,362.2c0.2,1.5,0.5,3.2,0.5,4.9c-2.2,0-4.4,0.2-6.3,0.5c-2,0.5-3.7,1.2-4.9,2.2v13.7l5.1,0.5
		c0,0.7,0,1.5,0,2c0,0.5-0.2,1-0.5,1.7h-17.6c-0.2-1.2-0.2-2-0.2-2.7c0.2-0.2,0.7-0.7,1.5-1c0.7-0.2,1.7-0.5,2.7-0.5v-18.8l-3.9-0.7
		c0-0.2,0-0.7,0-1.2c0-1,0-1.5,0.2-2.2c2.9-1,6.6-1.2,10.5-1.2l1.5,0.2v7.1c0.7-1.7,2.2-3.2,4.1-4.6c2-1.5,3.9-2.4,5.9-2.9
		C227.1,359.8,227.5,360.8,228,362.2z"/>
	<path class="st0" d="M248.3,380.3v-5.9l-2,0.2c-3.4,0.2-5.4,1.7-5.4,4.1c0,1,0.2,1.7,0.7,2.2c0.5,0.5,1.2,0.7,2.2,0.7
		C245.6,382,246.8,381.5,248.3,380.3z M260.2,382c0.5,0.7,0.7,1.7,0.7,2.9c-0.5,0.7-1.5,1.5-2.7,2c-1.2,0.5-2.4,0.7-3.7,0.7
		c-1.5,0-2.7-0.2-3.7-1c-1-0.7-1.7-1.7-2.2-2.9c-1,1.2-2,2.2-3.4,2.9c-1.5,0.7-3.2,1.2-5.1,1.2c-2.4,0-4.1-0.7-5.6-2
		c-1.5-1.2-2.2-3.2-2.2-5.4c0-5.4,4.4-8.5,13.4-9l2.2-0.2v-3.4c0-1.5-0.5-2.7-1.2-3.4c-0.7-0.7-2-1.2-3.4-1.2c-0.2,0-1,0-2,0l-1,5.9
		c-0.5,0-1,0-1.5,0c-1,0-2-0.2-2.9-0.5c-1-0.2-1.5-0.7-2-1c-0.2-1.5-0.2-2.9-0.2-4.4c1-1.2,2.4-2.2,4.6-3.2c2.2-1,4.6-1.5,7.3-1.5
		c3.7,0,6.1,1,7.8,2.7c1.7,1.7,2.4,3.9,2.4,6.6v11.5c0,0.7,0,1.2,0,1.7c0,0.5,0.2,0.7,0.5,1H260.2z"/>
	<path class="st0" d="M264.4,362.9l-3.4-0.5c0-1.5,0-2.7,0.2-3.7h15.6c0.2,1.2,0.2,2.2,0.2,2.7c-0.2,0.2-0.5,0.7-1.2,1
		c-0.5,0.2-1.2,0.5-2,0.5l4.6,13.7c0.2,1,0.7,2,0.7,3.2h0.2l5.6-16.8l-3.7-0.5c0-0.2,0-0.7,0-1.2c0-1,0.2-1.7,0.5-2.7h11.5
		c0.2,1.2,0.2,2,0.2,2.7c-0.2,0.2-0.7,0.7-1.5,1c-0.7,0.2-1.7,0.5-2.7,0.5l-8.3,23.2c-0.7,0.2-1.5,0.7-2.4,0.7
		c-1,0.2-2.2,0.2-3.2,0.2c-0.5,0-1,0-1.7,0L264.4,362.9z"/>
	<path class="st0" d="M333.6,380.3v-5.9l-2,0.2c-3.4,0.2-5.4,1.7-5.4,4.1c0,1,0.2,1.7,0.7,2.2c0.5,0.5,1.2,0.7,2.2,0.7
		C330.9,382,332.1,381.5,333.6,380.3z M345.5,382c0.5,0.7,0.7,1.7,0.7,2.9c-0.5,0.7-1.5,1.5-2.7,2c-1.2,0.5-2.4,0.7-3.7,0.7
		c-1.5,0-2.7-0.2-3.7-1c-1-0.7-1.7-1.7-2.2-2.9c-1,1.2-2,2.2-3.4,2.9c-1.5,0.7-3.2,1.2-5.1,1.2c-2.4,0-4.1-0.7-5.6-2
		s-2.2-3.2-2.2-5.4c0-5.4,4.4-8.5,13.4-9l2.2-0.2v-3.4c0-1.5-0.5-2.7-1.2-3.4c-0.7-0.7-2-1.2-3.4-1.2c-0.2,0-1,0-2,0l-1,5.9
		c-0.5,0-1,0-1.5,0c-1,0-2-0.2-2.9-0.5c-1-0.2-1.5-0.7-2-1c-0.2-1.5-0.2-2.9-0.2-4.4c1-1.2,2.4-2.2,4.6-3.2c2.2-1,4.6-1.5,7.3-1.5
		c3.7,0,6.1,1,7.8,2.7c1.7,1.7,2.4,3.9,2.4,6.6v11.5c0,0.7,0,1.2,0,1.7c0,0.5,0.2,0.7,0.5,1H345.5z"/>
	<path class="st0" d="M293.4,384.6c0.2-0.2,0.7-0.7,1.5-1c0.7-0.2,1.5-0.5,2.4-0.5v-19l-3.7-0.7c0-0.2,0-0.7,0-1.2
		c0-1,0-1.7,0.2-2.2c2.9-1,6.3-1.2,10.7-1.2l1.2,0.2v24.1l3.9,0.5c0,0.2,0,0.7,0,1c0,1-0.2,1.7-0.5,2.7h-15.6
		C293.6,386.3,293.4,385.4,293.4,384.6z"/>
	<path class="st0" d="M307.7,348.8c0,3.4-2.7,6.1-6.1,6.1c-3.4,0-6.1-2.7-6.1-6.1s2.7-6.1,6.1-6.1
		C304.8,342.7,307.7,345.4,307.7,348.8z"/>
</g>
</svg>
