<?xml version="1.0" encoding="utf-8"?>
<!-- Generator: Adobe Illustrator 27.2.0, SVG Export Plug-In . SVG Version: 6.00 Build 0)  -->
<svg version="1.1" id="Calque_1" xmlns="http://www.w3.org/2000/svg" xmlns:xlink="http://www.w3.org/1999/xlink" x="0px" y="0px"
	 viewBox="0 0 400 400" style="enable-background:new 0 0 400 400;" xml:space="preserve">
<g>
	<path d="M-0.7,261.9c0-41.4,0-82.5,0-124c0.8,0,1.6,0,2.3,0c13.7,0,27.4,0,41.1,0.1c8.4,0.1,16.6,1.6,24.1,5.8
		c10.3,5.7,15.3,14.7,15.5,26.2c0.3,11.5-4.8,20.1-14.8,25.8c-0.2,0.1-0.3,0.2-0.7,0.5c0.9,0.3,1.6,0.6,2.3,0.9
		c11.4,4.7,19.1,12.7,20.6,25.2c1.9,16.4-6.4,29.6-21.7,35.7c-6.7,2.6-13.7,3.8-20.9,3.8c-15.4,0.1-30.8,0-46.2,0
		C0.4,262-0.1,262-0.7,261.9z M26.7,209.5c0,10.2,0,20,0,29.8c6.1,0,12,0,18,0c1.6,0,3.3-0.2,4.9-0.5c7.5-1.5,12.5-6.9,12.7-13.6
		c0.2-7.9-4.8-14.1-13.3-15C41.6,209.4,34.2,209.7,26.7,209.5z M26.6,189.3c4.3,0,8.5,0.2,12.7-0.1c3-0.2,6.1-0.8,9-1.8
		c4-1.4,6.5-4.5,7.4-8.7c2-9-3-16.3-12.3-17.4c-5.4-0.6-10.9-0.3-16.4-0.4c-0.1,0-0.2,0.2-0.3,0.3C26.6,170.4,26.6,179.7,26.6,189.3
		z"/>
	<path d="M356.6,262c-2.7,0-4.9,0-7,0c-7.3,0-14.7-0.1-22,0c-1.6,0-2.6-0.5-3.5-1.8c-9-12.6-18-25.2-27-37.8c-0.5-0.7-1-1.4-1.9-2.7
		c0,14.4,0,28.2,0,42.1c-9,0-17.6,0-26.4,0c0-43,0-85.9,0-128.9c8.7,0,17.4,0,26.3,0c0,26.1,0,52.2,0,78.9c1.9-2.4,3.4-4.3,4.9-6.2
		c7.7-9.8,15.4-19.6,23-29.5c1-1.3,2.1-1.9,3.8-1.8c8.7,0.1,17.4,0,26.1,0c0.7,0,1.4,0.1,2.5,0.1c-0.6,0.8-0.9,1.3-1.3,1.8
		c-10.3,12.5-20.5,25-30.9,37.4c-1,1.3-1,2-0.1,3.3c10.7,14.3,21.4,28.7,32.1,43C355.5,260.5,355.9,261.1,356.6,262z"/>
	<path d="M99.4,132.9c9.1,0,17.8,0,26.7,0c0,1,0,1.8,0,2.7c0,29.4-0.1,58.8,0,88.2c0,2.4,0.3,5,1.1,7.3c1.5,4.7,5.5,7,10.4,6.3
		c0.6-0.1,1.2-0.1,1.9-0.2c0,8.4,0,16.6,0,24.9c-18.8,1.9-35.1-5-39-25.7c-0.7-3.9-1.1-7.9-1.1-11.8c-0.1-29.5,0-59.1,0-88.6
		C99.4,134.9,99.4,134,99.4,132.9z"/>
	<path d="M255.5,235.4c0,1.4,0,2.6,0,3.7c0,6.4-0.1,12.7,0.1,19.1c0,1.9-0.6,2.7-2.3,3.2c-17.2,5.2-33.2,3.2-47.1-8.5
		c-14.5-12.2-19.2-28.2-14.5-46.3c4.6-18.1,17.1-28.9,35.1-33.1c9.2-2.2,18.4-1.4,27.2,2c0.7,0.3,1.5,1.1,1.5,1.7
		c0.1,7.8,0.1,15.6,0.1,23.8c-1.1-0.6-1.8-1.1-2.7-1.5c-9.3-5.1-18.7-5.8-27.8,0.2c-7.8,5.1-11.2,14.7-8.9,24.1
		c2.1,8.8,9.7,15.5,18.8,16.6c6.7,0.8,12.9-0.4,18.7-4.1C254.1,236.2,254.7,235.9,255.5,235.4z"/>
	<path d="M179.7,261.9c-8.8,0-17.6,0-26.4,0c0-29.1,0-58.2,0-87.3c8.8,0,17.5,0,26.4,0C179.7,203.6,179.7,232.7,179.7,261.9z"/>
	<path d="M182.4,146.6c0,8.7-6.9,15.6-15.8,15.7c-8.9,0.1-16-6.7-16-15.2c0-9.4,6.6-16.2,15.8-16.2
		C175.4,130.8,182.4,137.7,182.4,146.6z"/>
	<path d="M396.1,288.2c0-0.7,0-1.4,0-2.1c0-57.4,0-114.7,0-172.1c0-1.5-0.1-2.7,2.1-2.5c1.1,0.1,1.6,0.5,1.5,1.6c0,0.4,0,0.8,0,1.2
		c0,57.2,0,114.3,0,171.5C399.7,288.8,399.5,289,396.1,288.2z"/>
</g>
</svg>
