<?xml version="1.0" encoding="utf-8"?>
<!-- Generator: Adobe Illustrator 27.2.0, SVG Export Plug-In . SVG Version: 6.00 Build 0)  -->
<svg version="1.1" id="Calque_1" xmlns="http://www.w3.org/2000/svg" xmlns:xlink="http://www.w3.org/1999/xlink" x="0px" y="0px"
	 viewBox="0 0 400 400" style="enable-background:new 0 0 400 400;" xml:space="preserve">
<g>
	<path fill="#FAEBDC"  d="M75.3,243.8v-27c0-7.8-2.7-14.5-8.1-20.1c-5.4-5.6-12.1-8.4-19.9-8.4c-7.8,0-14.5,2.8-19.9,8.4c-5.4,5.6-8.1,12.3-8.1,20.1
		c0,7.8,2.7,14.4,8.1,20c5.4,5.5,12.1,7.1,19.9,7.1H75.3z M95.4,216.7v47H47.3c-13.1,0-24.4-4.6-33.9-13.7
		C4,240.9-0.7,229.8-0.7,216.7c0-13,4.7-24.2,14.2-33.4c9.4-9.2,20.7-13.8,33.9-13.8c13.1,0,24.4,4.6,33.9,13.8
		C90.7,192.6,95.4,203.7,95.4,216.7"/>
	<path fill="#FAEBDC"  d="M173.6,236.6c-5.4,5.6-12.1,8.4-19.9,8.4c-7.8,0-14.5-2.8-19.9-8.4c-5.4-5.6-8.1-12.3-8.1-20.1v-27h28
		c7.8,0,14.5,1.5,19.9,7.1c5.4,5.5,8.1,12.2,8.1,20C181.8,224.3,179.1,231,173.6,236.6 M187.5,183.2c-9.4-9.2-20.7-13.7-33.9-13.7
		h-28.2v-4c0-5.4-2-10.1-5.9-14c-3.9-3.9-8.6-5.8-14.1-5.8v23.8v47v3.6l0.1-0.3c0.8,11.6,5.4,21.6,14.1,30.1
		c9.5,9.2,20.8,13.8,33.9,13.8c13.1,0,24.4-4.6,33.9-13.8c9.5-9.2,14.2-20.4,14.2-33.4C201.7,203.5,197,192.4,187.5,183.2"/>
	<path fill="#FAEBDC"  d="M288.6,216.7c0,7.8-2.7,14.4-8.2,20c-5.4,5.5-12.1,7.1-19.9,7.1h-28v-27c0-7.8,2.7-14.5,8.1-20.1
		c5.4-5.6,12.1-8.4,19.9-8.4c7.8,0,14.5,2.8,19.9,8.4C285.9,202.3,288.6,209,288.6,216.7 M308.5,216.7c0-13-4.7-24.2-14.2-33.4
		c-9.4-9.2-20.7-13.8-33.9-13.8c-13.1,0-24.4,4.6-33.9,13.8c-8.7,8.4-13.4,18.5-14.1,30.1l-0.1-0.3v3.6v47v23.8
		c5.4,0,10.1-1.9,14.1-5.8c3.9-3.9,5.9-8.5,5.9-14v-4h28.2c13.1,0,24.4-4.6,33.9-13.7C303.8,240.9,308.5,229.8,308.5,216.7"/>
	<path fill="#FAEBDC"  d="M185.7,314.3l-3.5,0c-0.4,0-0.7-0.3-0.7-0.7l-0.1-20.9l-5.7,0c-0.4,0-0.7-0.3-0.7-0.7l0-3.1c0-0.4,0.3-0.7,0.7-0.7
		l16.3,0.1c0.4,0,0.7,0.3,0.7,0.7l0,3.1c0,0.4-0.3,0.7-0.7,0.7l-5.7,0l0.1,20.9C186.4,314,186,314.3,185.7,314.3 M164,314.6
		c-7.5,0-13.5-6-13.5-13.4c0-7.5,6-13.4,13.4-13.4c3.8,0,6.5,1.2,9,3.5c0.3,0.3,0.3,0.8,0,1l-2.3,2.3c-0.3,0.3-0.6,0.3-0.9,0
		c-1.6-1.4-3.7-2.2-5.8-2.2c-4.8,0-8.3,4-8.3,8.7c0,4.7,3.6,8.6,8.4,8.7c2.2,0,4.1-0.9,5.7-2.1c0.3-0.3,0.7-0.2,0.9,0l2.3,2.4
		c0.3,0.3,0.2,0.7,0,1C170.5,313.5,167.3,314.6,164,314.6 M147.2,314.2l-15.2,0c-0.4,0-0.7-0.3-0.7-0.7l-0.1-24.7
		c0-0.4,0.3-0.7,0.7-0.7l15.2,0c0.4,0,0.7,0.3,0.7,0.7l0,3.1c0,0.4-0.3,0.7-0.7,0.7l-11,0l0,6.1l9.2,0c0.4,0,0.7,0.3,0.7,0.7l0,3.1
		c0,0.4-0.3,0.7-0.7,0.7l-9.2,0l0,6.5l11,0c0.4,0,0.7,0.3,0.7,0.7l0,3.1C147.9,313.8,147.6,314.2,147.2,314.2 M117.4,314.4
		c-3.2,0-5.1-2-5.7-2.7c-0.2-0.3-0.1-0.7,0.1-0.9l1.9-2c0.4-0.4,0.8-0.3,1.1,0c0.5,0.5,1.2,1.2,2.5,1.2c1.4,0,3-1.2,3-3.8l-0.1-17.6
		c0-0.4,0.3-0.7,0.7-0.7l3.5,0c0.4,0,0.7,0.3,0.7,0.7l0.1,17.6C125.2,311.5,121.7,314.5,117.4,314.4 M97.9,314.4
		c-7.5,0-13.4-6-13.4-13.4c0-7.5,5.9-13.4,13.3-13.4c7.5,0,13.5,6.1,13.5,13.5C111.3,308.5,105.4,314.4,97.9,314.4 M80,313.9l-3.9,0
		c-0.3,0-0.5-0.2-0.6-0.3l-5-9.9l-4.1,0l0,9.5c0,0.4-0.3,0.7-0.7,0.7l-3.4,0c-0.4,0-0.7-0.3-0.7-0.7l-0.1-24.7
		c0-0.4,0.3-0.7,0.7-0.7l10.7,0c4.5,0,8.1,3.6,8.2,8.1c0,3.4-2.3,6.2-5.5,7.5l5.1,9.5C80.9,313.4,80.7,313.9,80,313.9 M43.6,313.8
		l-3.4,0c-0.4,0-0.7-0.3-0.7-0.7l-0.1-24.7c0-0.4,0.3-0.7,0.7-0.7l8.8,0c4.6,0,8.4,3.8,8.4,8.3c0,4.6-3.7,8.4-8.3,8.4l-4.7,0l0,8.8
		C44.3,313.5,44,313.8,43.6,313.8 M52.4,295.9c0-2-1.8-3.6-3.8-3.6l-4.3,0l0,7.5l4.3,0C50.7,299.8,52.4,298.1,52.4,295.9
		 M72.4,292.3l-6.1,0l0,7.4l6.1,0c2,0,3.7-1.7,3.7-3.8C76.1,293.9,74.4,292.3,72.4,292.3 M97.9,292.4c-4.7,0-8.5,3.9-8.5,8.6
		c0,4.7,3.9,8.6,8.6,8.6c4.7,0,8.6-3.8,8.6-8.5C106.5,296.3,102.6,292.4,97.9,292.4"/>
	<path fill="#FAEBDC"  d="M358,85.4c-23.2,0-42,18.8-42,42v42.1H358c23.2,0,42-18.8,42-42C400,104.2,381.2,85.4,358,85.4 M375.2,154.8l-18.8-9.9
		l-18.8,9.9l3.6-20.9L326,119.1l21-3l9.4-19l9.4,19l21,3l-15.2,14.8L375.2,154.8z"/>
</g>
</svg>
