<?xml version="1.0" encoding="utf-8"?>
<!-- Generator: Adobe Illustrator 27.2.0, SVG Export Plug-In . SVG Version: 6.00 Build 0)  -->
<svg version="1.1" id="Calque_1" xmlns="http://www.w3.org/2000/svg" xmlns:xlink="http://www.w3.org/1999/xlink" x="0px" y="0px"
	 viewBox="0 0 400 400" style="enable-background:new 0 0 400 400;" xml:space="preserve">
<style type="text/css">
	.st0{fill:#FAEBDC;}
</style>
<polygon class="st0" points="177.5,0 377,0 377,199.6 "/>
<path fill="#FAEBDC"  class="st0" d="M136.2,0l61.6,186.5h-45.7l-11.4-37.8H77.8l-11.6,37.8H21.3L83.6,0H136.2z M130.7,115.2l-21.4-76.9l-21.7,76.9
	H130.7z"/>
<path fill="#FAEBDC"  class="st0" d="M86.7,214.5c24,0,47.8,0.8,68.2,15.6c14.5,10.8,33.6,33.3,33.6,76.1c0,11.6-1.3,22.2-4.5,33
	c-3.4,12.4-15.3,46.8-53.9,57.9c-12.2,3.4-23.5,4-48.9,4H28.1V214.5H86.7z M84.1,365.1c6.9,0,13.7,0,20.6-0.3
	c4.2-0.5,18.8-1.6,28.5-12.7c13.5-15.1,13.2-40.7,13.2-44.4c0-14.8-2.6-30.6-12.4-43.1c-4.8-5.8-9.8-8.7-12.4-10
	c-6.9-3.2-15.1-4.2-30.4-4.2H69.8v114.7H84.1z"/>
<path fill="#FAEBDC"  class="st0" d="M335.1,274.9c-0.3-1.5-1.8-6.6-4.6-11.2c-4.1-6.4-13.8-15.8-32.1-15.8c-16.1,0-25.2,6.9-30.1,11.5
	c-8.4,7.9-16.6,21.9-16.6,47.6c0,5.4-0.5,35.7,19.4,51.5c4.3,3.6,13,9.2,27,9.2c20.9,0,30.6-12,34.4-19.6c2-4.1,2.8-8.2,3.6-12.7
	h42.5c-1,7.9-4.1,26.5-19.4,42.6c-10.4,11-28.3,23.2-62.2,23.2c-9.9,0-35.2-0.5-56.8-20.1c-12.2-11-28.8-33.6-28.5-73.1
	c0-12,1.5-24.5,5.1-35.9c16.8-53.3,63.2-57.3,82-57.3c40,0,60.4,19.6,68.8,34.1c6.4,11,8.2,22.2,8.9,26.5L335.1,274.9z"/>
</svg>
