<?xml version="1.0" encoding="utf-8"?>
<!-- Generator: Adobe Illustrator 27.2.0, SVG Export Plug-In . SVG Version: 6.00 Build 0)  -->
<svg version="1.1" id="Calque_1" xmlns="http://www.w3.org/2000/svg" xmlns:xlink="http://www.w3.org/1999/xlink" x="0px" y="0px"
	 viewBox="0 0 400 400" style="enable-background:new 0 0 400 400;" xml:space="preserve">
<g>
	<path fill="#FAEBDC"  d="M108.2,203.8c3.2,0.8,6.2,1.5,9.2,2.4c3.9,1.2,7.7,2.8,11,5.3c8,6.1,9.9,15.2,5.4,24.7c-4.5,9.5-11.8,16.4-20.6,21.9
		c-10.5,6.6-22,10.9-33.9,14.1c-10.3,2.7-20.7,4.5-31.3,5.4c-7.7,0.7-15.4,0.9-23.2,0.1c-1-0.1-1.5,0.2-2,1.1
		c-3.8,7.3-7.7,14.5-11.7,21.8c-1.7,3.1-5.4,4.3-8.5,2.8c-3-1.4-4.3-5.1-2.9-8.4c3-7,4.4-14.2,3.8-21.8c-0.1-1.8-0.5-3.6-0.8-5.5
		c-0.4-2.7,0.7-5.3,2.8-6.6c2.3-1.4,5.1-1.2,7.3,0.3c1.1,0.8,2.2,1.4,3.5,2.2c7.6-14.1,15-28,22.6-42.1c-1.1-0.2-2.1-0.3-2.9-0.7
		c-1.9-0.7-3.9-1.4-5.7-2.4c-2.2-1.3-3.1-4.1-2.4-6.7c0.7-2.6,2.8-4.7,5.4-4.6c2.1,0.1,3.8-0.8,5.7-1.1c2.6-0.4,5.2-1,7.8-1.4
		c0.9-0.1,1.4-0.5,1.8-1.2c7.3-13.7,14.7-27.4,22.1-41.1c5.8-10.7,11.5-21.4,17.3-32.2c1.7-3.2,5.4-4.3,8.5-2.7
		c3.2,1.7,4.4,5.5,2.7,8.7c-8.6,16.1-17.2,32.2-25.9,48.3c-3.1,5.8-6.2,11.5-9.2,17.3c-0.2,0.3-0.3,0.7-0.5,1.2
		c1.3-0.1,2.3-0.2,3.4-0.2c2.5-0.1,5.1-0.4,7.6-0.4c3,0.1,5.7-1,8.5-2c15.7-5.7,30.8-12.7,44.8-21.8c7.6-5,14.9-10.4,20.7-17.4
		c6.6-7.9,11.4-16.8,13.3-27.1c0.9-4.8,0.8-9.6-1.3-14.1c-2.7-5.5-7.3-8.4-13-9.9c-5.7-1.5-11.5-1.4-17.3-0.6
		c-13.2,1.9-25.6,6.5-37.5,12.2c-4.6,2.2-9,4.7-13.5,7.1c-0.7,0.4-1.2,0.9-1.8,1.4c-2.8,2.5-6.8,2.4-9.3-0.2c-2.4-2.6-2.3-6.7,0.6-9
		c2.7-2.2,5.7-4.2,8.7-5.9c13.1-7.2,26.8-12.6,41.3-16.3c8.4-2.2,17-3.3,25.7-2.2c7.5,0.9,14.5,3.2,20.4,8.3
		c7.4,6.4,10.5,14.7,10.4,24.3c-0.1,10.3-3.8,19.6-8.7,28.5c-5.9,10.7-14.3,19.1-24,26.3c-10.4,7.7-21.7,14.1-33.4,19.6
		C108.8,203.5,108.6,203.6,108.2,203.8z M30,265.2c0.6,0.1,1,0.1,1.4,0.1c0.2,0,0.5,0,0.8,0c12.3,0.4,24.4-1.2,36.5-3.7
		c9.6-2.1,19-4.8,28-9c7.4-3.4,14.3-7.5,19.9-13.5c3-3.2,5.6-6.8,6.6-11.2c0.6-2.5-0.1-4.5-2.2-6.1c-2.6-2-5.6-3.1-8.8-3.9
		c-8.8-2.3-17.7-2.9-26.7-3c-2.5,0-5.2-0.1-7.6,0.5c-7.7,2.2-15.4,4.3-23.3,5.6c-0.5,0.1-1.2,0.5-1.4,1
		c-6.6,12.3-13.2,24.6-19.9,36.9C32.3,260.9,31.2,263,30,265.2z"/>
	<path fill="#FAEBDC"  d="M363,151.2c-2.3,1.7-4.7,3.3-6.9,5.1c-9.3,7.5-17.2,16.4-24.3,25.9c-3,3.9-5.6,8.1-8.4,12.2c-1.2,1.8-2.8,2.6-4.9,2.5
		c-2.2-0.2-3.9-1.3-4.7-3.4c-0.4-1-0.4-2.1-0.5-3.2c-1.6,0.3-3.4,0.9-5.3,1c-1.7,0.1-2.8,0.8-4,2.1c-3.3,3.9-7.2,7.1-12.1,9
		c-4.5,1.7-9,2-13.2-0.8c-1.4-0.9-2.6-2.3-3.9-3.5c-0.9,0.9-1.8,1.9-2.8,2.9c-3.4,3.3-7.2,6-11.8,7.4c-3,0.9-5.9,1-8.9,0.3
		c-3.3-0.8-5.2-3-5.9-6.1c-0.9-3.9-0.2-7.7,0.7-11.5c1.7-7.2,4.5-14.1,7.5-20.8c3-6.8,6.3-13.5,9.5-20.2c0.4-0.8,0.7-1.7,1.1-2.6
		c-4.7,0.8-9.2,1.6-13.8,2.3c-18.6,3.2-37.2,6.3-55.8,9.5c-0.7,0.1-1.5,0.2-2.2,0.2c-2.9,0-5.1-2-5.3-4.8c-0.2-2.7,1.6-5,4.5-5.5
		c9.7-1.6,19.3-3.3,29-4.9c11.3-1.9,22.7-3.8,34-5.8c4.9-0.8,9.7-1.7,14.6-2.4c0.9-0.1,1.4-0.5,1.8-1.3c0.7-1.3,1.4-2.6,2.2-3.8
		c1.4-2.4,3.6-3.4,6-2.9c2.2,0.5,3.7,2.2,4.1,4.9c0,0.2,0.1,0.3,0.1,0.6c2.5-0.4,5-0.8,7.5-1.2c7.5-1.3,15-2.5,22.5-3.8
		c3.3-0.6,5.7,0.5,6.7,3c1.3,3.1-0.6,6.4-4.3,7.1c-3.2,0.6-6.4,1.1-9.5,1.6c-7.6,1.2-15.2,2.4-22.8,3.6c-1.5,0.2-3.1,0.4-4.6,0.6
		c-0.5,0.1-1,0.5-1.2,0.9c-6.9,12.6-13.4,25.5-18.3,39c-1.5,4.2-2.5,8.6-3.7,12.9c-0.1,0.2,0,0.4-0.1,0.9c0.9-0.3,1.8-0.4,2.5-0.7
		c3.9-1.7,6.6-4.7,9.2-8c1.7-2.1,3.2-4.4,4.7-6.6c0.3-0.5,0.6-1.1,0.7-1.7c2.1-9,6.4-16.8,12.9-23.5c1.2-1.3,2.6-2,4.4-2
		c0.4,0,1-0.4,1.3-0.7c2.1-2.2,4.5-4,7.4-5c6.3-2.1,12.5,0.7,15.1,6.8c2.2,5,2,10.1,0.9,15.3c-0.4,1.9-1.1,3.9-1.7,6.1
		c0.6-0.3,1-0.6,1.3-0.8c3.4-2.4,6.4-5.2,8.7-8.6c1.8-2.6,3-5.6,4.4-8.4c3.1-6,6.2-12,9.3-17.9c1.5-2.8,4.7-3.8,7.4-2.4
		c2.8,1.5,3.7,4.5,2.2,7.4c-0.7,1.3-1.3,2.6-1.8,4.1c0.3-0.2,0.6-0.5,0.9-0.7c5.3-4.6,10.9-8.8,17.3-11.6c1.7-0.7,3.4-1.3,5.2-1.9
		c6.3-2,9.9,3.4,8.8,8.3c-0.4,2.1-1.1,4.1-2,6c-3.4,7.1-7,14.1-10.6,21.1c-0.3,0.5-0.6,1.1-0.6,1.8c0.9-0.7,1.9-1.4,2.8-2.2
		c7.7-6.4,14.4-13.6,19.1-22.5c1.5-2.8,4.6-3.8,7.2-2.5c2.7,1.4,3.8,4.7,2.3,7.5c-1.1,2.1-2.3,4.1-3.6,6
		c-6.9,10.4-15.6,19-26.3,25.5c-2.4,1.5-5.2,2.4-7.9,3.5c-0.5,0.2-1.1,0.2-1.7,0.3c-5.5,0.5-8.8-3.3-7.2-8.6
		c1.1-3.6,2.8-7.1,4.5-10.5c3-6,6.2-11.9,9.2-17.8c0.3-0.5,0.5-1,0.8-1.6C363.2,151.4,363.1,151.3,363,151.2z M301,179.2
		c2.3-4.2,3.9-8.4,4.1-13.1c0.1-1.5-0.1-3-0.5-4.4c-0.4-1.6-1.4-1.8-2.8-1c-0.6,0.3-1.2,0.8-1.7,1.3c-2.3,2.4-3.6,5.3-3.5,8.7
		C296.7,174.1,297.9,177.1,301,179.2z M287.4,179c-1,1.8-1.9,3.5-2.9,5.1c-1.6,2.3-1.4,4.7-0.6,7.2c0.4,1.3,1.3,1.9,2.6,1.5
		c3.1-0.8,5.6-2.7,7.9-5C291.3,185.5,289,182.6,287.4,179z"/>
	<path fill="#FAEBDC"  d="M190.5,173.9c0.9-1,1.7-1.9,2.6-2.8c2.2-2.2,5.2-2.4,7.5-0.7c2.2,1.7,2.7,4.7,1.1,7.3c-4.4,7.1-8.3,14.4-11.5,22.1
		c-1.2,2.9-2.2,6-3.2,9c-0.1,0.3-0.2,0.7,0,1.3c1.4-0.9,2.8-1.8,4-2.9c2.1-1.8,4.1-3.7,6.1-5.6c0.4-0.4,0.6-1,0.9-1.5
		c1.1-1.9,2.2-3.9,3.3-5.7c0.4-0.6,1-1.1,1.6-1.4c1.3-0.4,1.9-1.4,2.5-2.5c0.6-1,1.2-1.9,1.7-2.9c1.3-2.2,2.4-4.4,2.7-7.1
		c0.8-6.1,4.4-10.7,9.3-14.2c5.2-3.7,11-6.6,17.3-8c2.6-0.5,5.3-0.9,8-1c4.1-0.2,7.2,4.2,5.6,8c-0.9,2.3-2.3,4.3-3.5,6.5
		c-0.8,1.5-1.8,2.9-2.4,4.5c-0.5,1.2-0.7,2.7-0.7,4c0.1,2.9-1.8,5.5-4.7,5.9c-2.9,0.4-5.3-1.4-5.9-4.4c-0.6-3-0.1-5.8,1-8.6
		c0.3-0.9,0.7-1.8,1.2-3c-0.8,0.3-1.4,0.5-2,0.7c-3.4,1.4-6.6,3.2-9.2,5.9c-1,1-1.7,2.2-2.5,3.3c-0.6,0.8-0.4,1.5,0.3,2.2
		c3,2.7,6,5.5,8.9,8.3c2.1,2,4.1,4.1,5.2,7c1.1,2.8,0.8,5.4-1.1,7.8c-2.9,3.7-6.6,6.2-10.9,7.7c-5.3,1.9-10.8,3-16.5,1.8
		c-2-0.4-3.9-1.3-6-2c-1.6,1.3-3.5,2.8-5.4,4.2c-3.1,2.2-6.4,3.9-10.2,4.6c-6.6,1.1-10.7-2.6-10.2-9.2c0.1-1.2,0.3-2.5,0.4-4.1
		c-0.6,0.7-1,1.1-1.3,1.5c-4.4,4.9-8.8,9.8-14.2,13.7c-1.7,1.2-3.6,2.3-5.6,3c-3.5,1.2-7.4-0.8-9.4-4.4c-2.1-3.8-2.4-7.9-1.6-12
		c3.5-17.1,13.2-29.6,29.1-36.9c3-1.4,6.4-2,9.6-2.7C185.7,169.8,188.4,171.1,190.5,173.9z M154.5,214.5c0.8-0.7,1.5-1.2,2.1-1.8
		c9.3-8.6,17.2-18.4,25.3-28c0.2-0.2,0.3-0.6,0.2-0.9c-0.2-0.7-0.4-1.3-0.7-2C169.4,183,153,202.8,154.5,214.5z M224.7,200
		c-2.7-2.5-5.3-4.8-7.9-7.1c-2.6,3.8-5.1,7.5-7.7,11.4C214.9,204.7,220,203.8,224.7,200z"/>
	<path fill="#FAEBDC"  d="M149.6,254.6c-3.5,0-5.5-1.8-5.8-4.7c-0.3-2.6,1.5-4.9,4.3-5.5c44.4-9.7,89.1-18.2,133.9-25.9c15.5-2.7,31-5.4,46.5-8.1
		c17.2-2.9,34.5-5.7,51.8-8.6c4.5-0.7,8.9-1.4,13.4-2.1c2.2-0.3,4.2,0.1,5.5,2.1c2.1,3.1,0.5,7.2-3.1,7.9
		c-6.3,1.2-12.5,2.1-18.8,3.1c-12.3,2-24.5,4-36.8,6.1c-18.3,3.1-36.6,6.1-54.9,9.4c-20.8,3.7-41.7,7.5-62.5,11.4
		c-14.3,2.7-28.6,5.5-42.8,8.4c-9.4,1.9-18.8,4.1-28.2,6.1C151,254.4,150.1,254.5,149.6,254.6z"/>
</g>
</svg>
