<?xml version="1.0" encoding="utf-8"?>
<!-- Generator: Adobe Illustrator 27.2.0, SVG Export Plug-In . SVG Version: 6.00 Build 0)  -->
<svg version="1.1" id="Calque_1" xmlns="http://www.w3.org/2000/svg" xmlns:xlink="http://www.w3.org/1999/xlink" x="0px" y="0px"
	 viewBox="0 0 400 400" style="enable-background:new 0 0 400 400;" xml:space="preserve">
<style type="text/css">
	.st0{fill:#282828;}
	.st1{fill-rule:evenodd;clip-rule:evenodd;fill:#282828;}
</style>
<path fill="#FAEBDC"  d="M0.2,200.1L0.2,200.1c0,68.6,52.2,121.9,121.3,134.6h0c15.4,3,31.1,4.5,46.7,4.5c131.7,0,231.1-77.8,231.1-139.1v0
	c0-61.3-99.5-139.1-231.1-139.1c-15.5,0-31.3,1.5-46.7,4.5h0C52.4,78.2,0.2,131.6,0.2,200.1L0.2,200.1L0.2,200.1z"/>
<g>
	<path fill="#FAEBDC"  class="st0" d="M68,161.9c-1.3-9.4-10.3-16.5-20.6-16.5c-18.6,0-25.6,15.9-25.6,32.4c0,15.7,7,31.6,25.6,31.6
		c12.7,0,19.8-8.7,21.4-21.2h20.1c-2.1,23.5-18.4,38.6-41.5,38.6c-29.2,0-46.4-21.8-46.4-49c0-28,17.2-49.8,46.4-49.8
		c20.8,0,38.2,12.2,40.7,34H68z"/>
	<path fill="#FAEBDC"  class="st0" d="M95.6,130.2h50.9c16.9,0,27.6,11.8,27.6,26c0,11.1-4.5,19.4-14.9,23.7v0.3c10.2,2.6,13.1,12.6,13.7,22.1
		c0.4,5.9,0.3,17.1,4,22.3h-20.8c-2.5-5.9-2.2-15.1-3.3-22.6c-1.5-9.9-5.3-14.3-15.7-14.3h-20.8v36.9H95.6V130.2z M116.3,172.9h22.7
		c9.3,0,14.3-4,14.3-13.5c0-9.1-5-13.1-14.3-13.1h-22.7V172.9z"/>
	<path fill="#FAEBDC"  class="st1" d="M302.5,130.2h-21.3L252,207.1h-46.8V184h39.3l6.1-16.1h-45.4v-20.2H255v-17.4h-70.6v94.4h82l7.4-21h35.3
		l7.1,21h21.5L302.5,130.2z M279.2,188.1l12.3-34.6h0.3l11.9,34.6H279.2z"/>
</g>
<g>
	<g>
		<polygon class="st0" points="206.1,239.3 195.1,239.3 196.1,240.4 196.1,243 204.7,243 204.7,245.6 196.1,245.6 196.1,249.6 
			206.6,249.6 206.6,252.3 193.3,252.3 193.3,236.6 206.1,236.6 		"/>
		<path fill="#FAEBDC"  class="st0" d="M216.8,236.6c1.1,0,2.1,0.2,3.1,0.6c1,0.4,1.8,1,2.5,1.7c0.7,0.7,1.3,1.6,1.7,2.5c0.4,1,0.6,2,0.6,3
			c0,1.1-0.2,2.1-0.6,3.1c-0.4,1-1,1.8-1.7,2.5c-0.7,0.7-1.5,1.3-2.5,1.7c-1,0.4-2,0.6-3.1,0.6H209v-15.8H216.8z M221.9,244.5
			c0-0.7-0.1-1.4-0.4-2c-0.3-0.6-0.6-1.2-1.1-1.6c-0.5-0.5-1-0.8-1.6-1.1s-1.3-0.4-2-0.4l-5,0v10.2h5c0.7,0,1.4-0.1,2-0.4
			c0.6-0.3,1.2-0.6,1.6-1.1c0.5-0.5,0.8-1,1.1-1.6C221.8,245.8,221.9,245.1,221.9,244.5"/>
		<path fill="#FAEBDC"  class="st0" d="M229.8,245.5c0,0.8,0.1,1.5,0.4,2.1c0.3,0.6,0.7,1,1.2,1.4c0.5,0.3,1,0.6,1.6,0.8c0.6,0.2,1.2,0.2,1.8,0.2
			c0.6,0,1.2-0.1,1.8-0.2c0.6-0.2,1.1-0.4,1.6-0.8c0.5-0.3,0.9-0.8,1.2-1.4c0.3-0.6,0.4-1.3,0.4-2.1v-8.9h2.8v9.3
			c0,1.1-0.2,2-0.6,2.9c-0.4,0.8-1,1.5-1.7,2.1c-0.7,0.6-1.6,1-2.5,1.3c-0.9,0.3-1.9,0.4-3,0.4c-1.1,0-2.1-0.1-3-0.4
			c-1-0.3-1.8-0.7-2.5-1.3c-0.7-0.6-1.3-1.3-1.7-2.1c-0.4-0.8-0.6-1.8-0.6-2.9v-9.3h2.9V245.5z"/>
		<path fill="#FAEBDC"  class="st0" d="M261.4,248.5c-0.3,0.7-0.7,1.3-1.3,1.8c-0.5,0.5-1.1,1-1.8,1.3c-0.7,0.4-1.4,0.6-2.2,0.8
			c-0.8,0.2-1.6,0.3-2.5,0.3c-1.3,0-2.5-0.2-3.6-0.6c-1.1-0.4-2-1-2.8-1.7c-0.8-0.7-1.4-1.6-1.8-2.6c-0.4-1-0.6-2.1-0.6-3.2
			c0-1.3,0.2-2.4,0.7-3.4c0.5-1,1.1-1.9,1.9-2.6c0.8-0.7,1.7-1.2,2.8-1.6c1.1-0.4,2.2-0.6,3.4-0.6c1.8,0,3.4,0.4,4.7,1.2
			c1.3,0.8,2.4,1.9,3.1,3.3L259,242c-0.3-0.4-0.6-0.9-1-1.2c-0.3-0.4-0.7-0.7-1.2-0.9c-0.4-0.2-0.9-0.4-1.4-0.6
			c-0.5-0.1-1.1-0.2-1.8-0.2c-0.8,0-1.6,0.1-2.3,0.4c-0.7,0.2-1.3,0.6-1.9,1.1c-0.5,0.5-1,1-1.3,1.7c-0.3,0.7-0.5,1.4-0.5,2.3
			c0,0.8,0.2,1.6,0.5,2.2c0.3,0.7,0.7,1.2,1.3,1.7c0.5,0.5,1.2,0.8,1.9,1.1c0.7,0.3,1.5,0.4,2.3,0.4c0.6,0,1.1-0.1,1.7-0.2
			c0.5-0.1,1-0.3,1.5-0.5c0.5-0.2,0.9-0.5,1.2-0.8c0.4-0.3,0.7-0.7,0.9-1.2L261.4,248.5z"/>
		<path fill="#FAEBDC"  class="st0" d="M274.3,236.6l7,15.8h-3l-1.5-3.3h-9l-1.4,3.3h-3.1l6.9-15.8H274.3z M272.2,238.8l-3.2,7.4h6.5L272.2,238.8z"
			/>
		<polygon class="st0" points="280.5,236.6 295.8,236.5 295.9,239.2 289.6,239.3 289.7,252.3 286.8,252.3 286.7,239.3 280.5,239.3 
					"/>
		<rect x="298.2" y="236.6" class="st0" width="3.1" height="15.8"/>
		<path fill="#FAEBDC"  class="st0" d="M303.7,244.5c0-1.2,0.2-2.3,0.7-3.3c0.5-1,1.1-1.9,1.9-2.6c0.8-0.7,1.7-1.3,2.8-1.7c1.1-0.4,2.2-0.6,3.4-0.6
			c1.2,0,2.4,0.2,3.4,0.6c1.1,0.4,2,1,2.8,1.7c0.8,0.7,1.4,1.6,1.9,2.6c0.5,1,0.7,2.1,0.7,3.3c0,1.2-0.2,2.3-0.7,3.3
			c-0.5,1-1.1,1.9-1.9,2.6c-0.8,0.7-1.7,1.3-2.8,1.7c-1.1,0.4-2.2,0.6-3.4,0.6c-1.2,0-2.4-0.2-3.4-0.6c-1.1-0.4-2-1-2.8-1.7
			c-0.8-0.7-1.4-1.6-1.9-2.6C303.9,246.8,303.7,245.7,303.7,244.5 M306.5,244.5c0,0.8,0.2,1.5,0.5,2.2c0.3,0.7,0.7,1.2,1.3,1.7
			c0.5,0.5,1.2,0.9,1.9,1.1c0.7,0.3,1.5,0.4,2.3,0.4c0.8,0,1.6-0.1,2.3-0.4c0.7-0.3,1.4-0.7,1.9-1.1c0.5-0.5,1-1.1,1.3-1.7
			c0.3-0.7,0.5-1.4,0.5-2.2c0-0.8-0.2-1.5-0.5-2.2c-0.3-0.7-0.7-1.2-1.3-1.7c-0.5-0.5-1.2-0.9-1.9-1.1c-0.7-0.3-1.5-0.4-2.3-0.4
			c-0.8,0-1.6,0.1-2.3,0.4c-0.7,0.3-1.4,0.7-1.9,1.1c-0.5,0.5-1,1.1-1.3,1.7C306.7,243,306.5,243.7,306.5,244.5"/>
		<polygon class="st0" points="336.6,247.2 336.6,236.6 339.6,236.6 339.6,252.3 337.1,252.3 326.7,239.9 326.7,252.3 323.8,252.3 
			323.8,236.6 327.7,236.6 		"/>
	</g>
	<g>
		<g>
			<path fill="#FAEBDC"  class="st0" d="M93.2,244.5c0-1.1,0.2-2.3,0.7-3.3c0.4-1,1-1.8,1.8-2.6c0.8-0.7,1.7-1.3,2.7-1.7c2.1-0.8,4.5-0.8,6.6,0
				c1,0.4,1.9,0.9,2.7,1.7c0.8,0.7,1.4,1.6,1.8,2.6c0.9,2.1,0.9,4.5,0,6.6c-0.4,1-1,1.8-1.8,2.6c-0.8,0.7-1.7,1.3-2.7,1.7
				c-1.1,0.4-2.2,0.6-3.3,0.6c-1.1,0-2.2-0.2-3.3-0.6c-1-0.4-1.9-0.9-2.7-1.7c-0.8-0.7-1.4-1.6-1.8-2.6
				C93.4,246.8,93.2,245.6,93.2,244.5 M95.9,244.5c0,0.8,0.1,1.5,0.5,2.2c0.3,0.6,0.7,1.2,1.2,1.7c0.5,0.5,1.2,0.9,1.8,1.1
				c1.5,0.5,3.1,0.5,4.5,0c0.7-0.3,1.3-0.6,1.8-1.1c1.6-1.6,2.1-4,1.2-6.1c-0.3-0.7-0.7-1.2-1.2-1.7c-0.5-0.5-1.2-0.9-1.8-1.1
				c-1.5-0.5-3.1-0.5-4.5,0c-0.7,0.3-1.3,0.6-1.8,1.1c-0.5,0.5-0.9,1.1-1.2,1.7C96.1,243,95.9,243.8,95.9,244.5"/>
			<polygon class="st0" points="130.9,236.6 130.9,252.3 128.2,252.3 128.2,245.1 128.2,239.4 122.8,252.3 120.5,252.3 115,239.4 
				115,252.3 112.3,252.3 112.3,236.6 116.8,236.6 121.6,248.2 126.4,236.6 			"/>
			<polygon class="st0" points="146.6,247.2 146.6,236.6 149.5,236.6 149.5,252.3 147.1,252.3 137,239.9 137,252.3 134.3,252.3 
				134.3,236.6 138,236.6 			"/>
			<polygon class="st0" points="165,239.3 154.4,239.3 155.3,240.4 155.3,243 163.7,243 163.7,245.7 155.3,245.7 155.3,249.6 
				165.4,249.6 165.4,252.3 152.6,252.3 152.6,236.6 165,236.6 			"/>
			<path fill="#FAEBDC"  class="st0" d="M179,240.7c-0.3-0.3-0.7-0.6-1.1-0.8c-0.4-0.2-0.8-0.4-1.2-0.5c-0.4-0.1-0.8-0.2-1.2-0.3
				c-0.3-0.1-0.7-0.1-1.1-0.1c-0.4,0-0.8,0-1.1,0.1c-0.4,0-0.8,0.1-1.2,0.3c-0.3,0.1-0.6,0.3-0.9,0.6c-0.2,0.3-0.4,0.6-0.4,1
				c0,0.3,0.1,0.5,0.2,0.7c0.2,0.3,0.5,0.5,0.9,0.6c0.4,0.1,0.8,0.2,1.2,0.3l1.5,0.3l1.4,0.2c0.5,0.1,0.9,0.2,1.2,0.2
				c0.6,0.1,1.2,0.4,1.8,0.7c0.4,0.3,0.8,0.6,1.1,1c0.3,0.4,0.5,0.8,0.6,1.2c0.1,0.5,0.2,0.9,0.2,1.4c0,0.8-0.1,1.5-0.5,2.2
				c-0.3,0.6-0.7,1.1-1.3,1.6c-0.6,0.4-1.2,0.7-1.9,0.9c-0.8,0.2-1.6,0.3-2.4,0.3c-1,0-2-0.1-2.9-0.3c-0.8-0.2-1.5-0.4-2.2-0.8
				c-0.6-0.3-1.1-0.6-1.5-1c-0.4-0.3-0.7-0.7-0.9-1.1l2.3-1.6c0.3,0.4,0.6,0.7,1,1c0.4,0.3,0.9,0.5,1.3,0.7c0.5,0.2,1,0.3,1.5,0.4
				c0.5,0.1,0.9,0.1,1.4,0.1c0.5,0,0.9,0,1.4-0.1c0.4-0.1,0.8-0.2,1.1-0.5c0.3-0.2,0.5-0.4,0.7-0.8c0.2-0.3,0.3-0.7,0.3-1.1
				c0-0.4-0.1-0.7-0.3-1c-0.2-0.3-0.5-0.5-0.8-0.6c-0.4-0.2-0.8-0.3-1.3-0.3c-0.5-0.1-1-0.1-1.6-0.2c-0.6-0.1-1.1-0.1-1.7-0.2
				c-0.6-0.1-1.2-0.2-1.8-0.4c-0.8-0.3-1.5-0.8-2.1-1.5c-0.5-0.6-0.7-1.4-0.7-2.2c-0.1-1.5,0.7-2.9,2-3.7c0.6-0.4,1.3-0.6,2-0.8
				c0.7-0.2,1.5-0.2,2.3-0.2c0.7,0,1.4,0.1,2.1,0.2c0.6,0.1,1.3,0.3,1.9,0.6c0.5,0.2,1.1,0.5,1.5,0.8c0.4,0.3,0.8,0.6,1.1,0.9
				L179,240.7z"/>
		</g>
		<g>
			<path fill="#FAEBDC"  class="st0" d="M88.6,245.2c-1.3,2-2.9,3.7-4.8,5.2c-3,2.2-6,3.7-9,3.1c-0.9-0.2-2.5-1.2-2.3-3.5c0.2-1.7,0.8-3.3,1.8-4.7
				c0,0-2,3-0.7,4.8c1.4,1.9,5.4-0.2,6-0.6c0,0,2.8-1.8,4.2-4.2H88.6z"/>
			<path fill="#FAEBDC"  class="st0" d="M70.3,243.7c1.3-2,2.9-3.7,4.8-5.2c3-2.2,6-3.7,9-3.1c0.9,0.2,2.5,1.2,2.3,3.5c-0.2,1.7-0.8,3.3-1.8,4.7
				c0,0,2-3,0.7-4.8c-1.4-1.9-5.4,0.2-6,0.6c0,0-2.7,1.8-4.2,4.2H70.3z"/>
		</g>
	</g>
</g>
</svg>
