<?xml version="1.0" encoding="utf-8"?>
<!-- Generator: Adobe Illustrator 19.0.0, SVG Export Plug-In . SVG Version: 6.00 Build 0)  -->
<svg version="1.1" id="layer" xmlns="http://www.w3.org/2000/svg" xmlns:xlink="http://www.w3.org/1999/xlink" x="0px" y="0px"
	 viewBox="-153 -46 652 652" style="enable-background:new -153 -46 652 652;" xml:space="preserve">
<style type="text/css">
	.st0{fill:#FAEBDC;}
	.st1{fill:#FAEBDC;}
</style>
<path class="st0" d="M6.7,313.7c2.2,3,5.6,4.8,9.3,4.9c3.4,0.3,6.3-2.2,6.6-5.6c0,0,0-0.1,0-0.1c0-5.8-8.1-6.5-13.1-9.8
	c-3-1.8-4.9-5-4.8-8.5c0-5.6,4.9-10.2,11.6-10.2c3.8,0,7.4,1.4,10.3,3.8l-3.2,4c-1.9-1.7-4.3-2.6-6.8-2.6c-3.2,0-6.4,1.8-6.4,5.1
	c0,4.8,8.1,5.9,13,9.2c3.1,1.8,5,5.2,5,8.7c0,6.7-5.2,11.1-11.8,11.1c-5.2,0-10.1-2.3-13.4-6.4L6.7,313.7z M49.7,323.3h-3.8
	l-12-38.1h5.5l8.5,27.7l9.3-27.7h3.8l9.3,27.7l8.5-27.7h5.6l-12,38.1h-3.8L59.1,295L49.7,323.3z M93.1,285.1h5.5v38.1h-5.5
	C93.1,323.2,93.1,285.1,93.1,285.1z M111.9,313.7c2.2,3,5.6,4.8,9.3,4.9c3.4,0.3,6.3-2.2,6.6-5.6c0,0,0-0.1,0-0.1
	c0-5.8-8.1-6.5-13.1-9.8c-3-1.7-4.9-5-4.8-8.5c0-5.6,4.9-10.2,11.6-10.2c3.8,0,7.4,1.4,10.3,3.8l-3.2,4c-1.9-1.7-4.3-2.6-6.8-2.6
	c-3.2,0-6.4,1.8-6.4,5.1c0,4.8,8.1,5.9,13,9.2c3.1,1.8,5,5.2,5,8.7c0,6.7-5.2,11.1-11.8,11.1c-5.2,0-10.1-2.3-13.4-6.4L111.9,313.7z
	 M144.3,313.7c2.2,3,5.7,4.8,9.4,4.9c3.4,0.3,6.4-2.2,6.7-5.6c0-0.1,0-0.1,0-0.2c0-5.8-8.1-6.5-13.1-9.8c-3-1.7-4.9-5-4.8-8.5
	c0-5.6,4.9-10.2,11.6-10.2c3.8,0,7.4,1.4,10.3,3.8l-3.2,4c-1.9-1.7-4.3-2.6-6.8-2.6c-3.2,0-6.4,1.8-6.4,5.1c0,4.8,8.1,5.9,13,9.2
	c3.1,1.8,5,5.2,5,8.7c0,6.7-5.2,11.1-11.8,11.1c-5.2,0-10.1-2.3-13.4-6.4L144.3,313.7z M217.5,313.5h-16.1l-4,9.8h-5.7l15.8-38.1
	h3.8l15.8,38.1h-5.7L217.5,313.5z M203.6,308.3h11.8l-5.9-14.2L203.6,308.3z M265.8,316.7c-3.6,4.4-9.1,7-14.8,7.1
	c-10.8,0.3-19.9-8.3-20.2-19.1c-0.3-10.8,8.3-19.9,19.1-20.2c5.5-0.1,10.7,2,14.5,5.9l-3.7,3.6c-2.7-2.7-6.4-4.3-10.3-4.2
	c-8,0.7-13.8,7.8-13.1,15.7c0.6,7.1,6.4,12.7,13.6,13.1c3.5,0.1,6.8-1.2,9.4-3.6v-9.8h-10.9v-5.2h16.4L265.8,316.7L265.8,316.7z
	 M295.6,300.1v5.2H283v12.8H300v5.2h-22.4v-38.1h21.8v5.2H283v9.8L295.6,300.1L295.6,300.1z M315,295.3v27.9h-5.5v-38.1h3.8
	l22.9,28.1v-28.1h5.5v38.1h-3.8L315,295.3z M371.4,284.5c5.3-0.1,10.3,2.1,14,5.9l-3.7,3.6c-2.7-2.7-6.4-4.3-10.3-4.2
	c-8,0.7-13.8,7.7-13.1,15.7c0.6,7.1,6.4,12.7,13.5,13.1c4.3-0.1,8.3-2,11-5.4l3.9,3.5c-7,8.3-19.3,9.4-27.6,2.4
	c-8.3-7-9.4-19.3-2.4-27.6C360.3,287.1,365.7,284.6,371.4,284.5z M395.4,285.1h5.5v38.1h-5.5C395.4,323.2,395.4,285.1,395.4,285.1z
	 M431.6,300.1v5.2h-12.6v12.8H436v5.2h-22.4v-38.1h21.8v5.2h-16.4v9.8L431.6,300.1L431.6,300.1z M447.3,313.7c2.2,3,5.6,4.8,9.3,4.9
	c3.4,0.3,6.4-2.2,6.6-5.6c0,0,0-0.1,0-0.1c0-5.8-8.1-6.5-13.1-9.8c-3-1.8-4.9-5-4.8-8.5c0-5.6,4.9-10.2,11.6-10.2
	c3.8,0.1,7.4,1.4,10.2,3.9l-3.2,4c-1.9-1.7-4.3-2.6-6.8-2.6c-3.2,0-6.4,1.8-6.4,5.1c0,4.8,8.1,5.9,13,9.2c3.1,1.8,5,5.2,5,8.7
	c0,6.7-5.2,11.1-11.9,11.1c-5.2,0-10.1-2.3-13.4-6.4L447.3,313.7z M11.6,262.1h16.9v5.2H6.2v-38.1h5.5v33L11.6,262.1z M55.2,244.1
	v5.2H42.6v12.8h16.9v5.2H37.2v-38.1H59v5.2H42.6v9.8h12.6L55.2,244.1z M92.2,257.4H76.1l-4,9.8h-5.7l15.8-38.1H86l15.8,38.1h-5.7
	L92.2,257.4z M78.3,252.2h11.8L84.2,238L78.3,252.2z M110.2,267.2v-38.1h11.5c4.6-0.3,9.3,1,13.1,3.6c8.6,6.6,10.1,18.9,3.5,27.5
	c-1,1.3-2.2,2.5-3.5,3.5c-3.9,2.6-8.5,3.9-13.1,3.6L110.2,267.2L110.2,267.2z M132.3,237.4c-2.4-2.1-5.6-3.2-10.9-3.2h-5.7v27.9h5.7
	c5.4,0,8.5-1.1,10.9-3.2c5.9-5.5,6.2-14.8,0.7-20.7C132.8,237.9,132.6,237.7,132.3,237.4L132.3,237.4z M152.7,229h5.5v38.1h-5.5V229
	z M176.4,239.2v28.1h-5.5v-38.1h3.8l22.9,28.1V229h5.5v38.1h-3.8L176.4,239.2z M248.1,260.7c-3.6,4.4-9.1,7-14.8,7.1
	c-10.6,0.4-19.5-7.9-19.8-18.5c0-0.4,0-0.7,0-1.1c-0.2-10.7,8.4-19.5,19.1-19.7c5.4-0.1,10.5,2.1,14.2,5.9l-3.7,3.6
	c-2.7-2.7-6.4-4.3-10.3-4.2c-7.7,0-13.9,6.3-13.9,14c0,0.2,0,0.3,0,0.5c-0.3,7.7,5.7,14.1,13.3,14.5c0.3,0,0.7,0,1,0
	c3.5,0.1,6.9-1.2,9.4-3.6v-9.8h-10.9v-5.2h16.4L248.1,260.7L248.1,260.7z"/>
<polygon class="st1" points="-73.9,262 -89.4,262 -89.4,246.5 -94.6,246.5 -94.6,262 -110.1,262 -110.1,267.2 -94.6,267.2 
	-94.6,282.7 -89.4,282.7 -89.4,267.2 -73.9,267.2 "/>
<path class="st0" d="M-73.9,332.4c-31.7,0-57.3-25.7-57.3-57.3s25.7-57.3,57.3-57.3s57.3,25.7,57.3,57.3
	C-16.6,306.7-42.3,332.4-73.9,332.4z M-73.9,222.9c-28.8,0-52.1,23.3-52.1,52.1s23.3,52.1,52.1,52.1c28.8,0,52.1-23.3,52.1-52.1
	C-21.9,246.3-45.2,223-73.9,222.9L-73.9,222.9z"/>
</svg>
