<svg enable-background="new 0 0 400 400" version="1.1" viewBox="0 0 400 400" xml:space="preserve" xmlns="http://www.w3.org/2000/svg"><g fill="#231f20">
<path fill="#FAEBDC"  d="m124.91 236.07c-11.802 0-18.846-5.8456-18.846-15.645 0-9.7949 7.0437-15.642 18.846-15.642 12.045 0 19.52 5.991 19.52 15.642 0 9.6571-7.4747 15.645-19.52 15.645zm0-37.742c-16.115 0-26.527 8.673-26.527 22.096 0 13.416 10.412 22.092 26.527 22.092 16.512 0 27.178-8.6762 27.178-22.092 0-13.423-10.665-22.096-27.178-22.096"/><path fill="#FAEBDC"  d="m356.19 234.26h-19.076v-27.936h19.076c7.9144 0 16.368 3.667 16.368 13.963 0 10.298-8.4538 13.974-16.368 13.974zm0-34.323h-26.736v40.717h26.736c14.815 0 24.022-7.7987 24.022-20.367 0-13.318-8.3156-20.349-24.022-20.349"/><path fill="#FAEBDC"  d="m310.78 230.44-33.767-30.507h-8.8277v40.717h7.486v-32.131l35.514 31.969 0.17535 0.16193h7.0862v-40.717h-7.6674v30.507"/><path fill="#FAEBDC"  d="m168.37 206.32h23.452c6.5834 0 9.5636 2.6813 9.5636 5.172 0 5.1474-5.097 5.9146-8.1423 5.9146h-24.873zm40.725 5.5001c0-7.4555-6.4612-11.887-17.273-11.887h-31.07v40.717h7.5843v-16.84h17.92l14.665 16.84h10.117l-15.367-17.477c11.626-0.59153 13.424-7.2906 13.424-11.352"/><path fill="#FAEBDC"  d="m59.011 230.31v-30.356h-10.232l-29.126 40.701h8.6808l23.011-31.543v31.543h9.1977l21.728-31.447v31.447h7.6702v-40.701h-10.106l-20.823 30.356"/><path fill="#FAEBDC"  d="m247.17 223.43h-17.28l8.7573-16.311zm-12.374-23.494-22.67 40.713h8.4285l5.8754-10.829h24.086l5.6423 10.833h8.4817l-22.153-40.717h-7.6913"/><path fill="#FAEBDC"  d="m221.18 106.15c-1.7787-1.3642-3.7527 2.3359-3.1223 3.6125 3.0234-0.58183 4.8984-2.2383 3.1223-3.6125"/><path fill="#FAEBDC"  d="m189.93 143.02c-4.0861-2.7072-8.0991-7.3917-8.0991-7.9025-0.4118 2.146-0.41977 2.7451-0.41977 3.9712l-9.2747-3.3634c-1.4433-0.67282-6.5296-2.4954-6.5967-3.0911-0.38589-3.7254-2.846-6.1969-2.846-6.1969l-4.0821 9.8565 0.18331 4.3704s4.6812-0.50678 5.7611 0.33142c0.74456 0.58515 8.2406 4.6261 12.747 7.0357-1.7707 1.0089-2.0922 2.3625-3.1781 3.9433 5.2418-1.1504 7.7059-1.7236 12.194 1.1245 1.6246 0.5061 2.5292-1.505 4.3212-3.1828 1.8072-1.6817 5.2205-5.3879 5.2205-5.3879s-3.6165 0.0339-5.9312-1.5084"/><path fill="#FAEBDC"  d="m143.88 130.78c0.3374-1.9421 3.0612-1.9999 5.2776 0.42574l-2.2217-5.7877c-5.4091 0.8827-5.3427 4.654-4.7675 6.5243 0.20524 0.67681 1.3642 0.62234 1.4791-0.0738 0.0246-0.15741 0.15609-0.94315 0.23247-1.0886"/><path fill="#FAEBDC"  d="m149.59 132.61 1.6558 4.3358s-2.8381 0.54796-2.0789 2.7896c0.39651 0.73459-0.49084 1.7554-1.5203 0.64426-2.2204-2.4004-2.3499-6.3416 1.9434-7.7696"/><path fill="#FAEBDC"  d="m147.41 111.54 14.963 0.1076-3.2764 8.2585-8.4896-0.19128zm8.839 30.536c0-4.3763 3.8988-15.412 3.8988-15.412l3.75-8.9745 3.8297-8.6384-24.788-0.22516 3.2572 8.1894 3.0094 7.1918s4.4633 14.304 4.4633 18.057v3.7526h-8.5135v3.2319h19.234v-2.6554h-8.1403v-4.5165"/><path fill="#FAEBDC"  d="m213.06 157.47c-1.8418 1.1889-8.6331 1.7149-9.5543-1.6379 3.0539 0.70868 8.3933 0.85413 10.758-1.9248 1.0773 4.4168 2.9025 6.2008 4.6493 7.2662-1.2148 0.78108-4.4872-0.35268-5.8535-3.7035zm8.1257-51.316c1.776 1.3742-0.099 3.0307-3.1223 3.6125-0.63032-1.2766 1.3436-4.9768 3.1223-3.6125zm-9.9515 4.8519c-0.76182-1.3217-2.1307-1.1583-2.8009-0.52669-0.67681 0.63562-0.83688 1.6465-2.7843 1.8019-1.9407 0.16074-2.7457-0.94115-2.7457-2.0258 0-1.5124 1.9906-2.5691 4.1439-2.5704 2.0563-0.0139 4.2309 0.95576 4.8997 2.6813zm56.039 10.581c-3.5999 3.5102-14.129-0.47224-18.961 2.4316 1.0414-2.0576 2.5053-4.092 2.9696-4.8924 2.5804-4.3584 1.3981-9.7476-6.9441-8.3422 2.0762 3.3707-0.81761 7.2722-2.6727 9.8811-1.8697 2.6116-12.119 11.301-4.3909 23.488 5.0857 8.0453 11.747 16.293 15.651 22.722 5.6462 9.3172 1.711 18.177-7.8088 17.266-2.1241-0.12354-3.0533-1.3642-3.1848-3.4777-0.097-1.4772-0.64427-3.8775-3.665-7.3134-0.0293-0.0193-0.0319-0.0464-0.0412-0.069-2.7072-3.8556-11.892-6.8518-13.312-7.8739-1.4287-1.0421-2.5697-3.2565-1.6478-4.3225 1.8212 1.6658 5.2418 2.9902 5.2418 2.9902s0.0279-0.59312 0.0644-1.337c0.18863-3.1549-0.60906-5.261-2.767-6.6797-1.5183-1.0009-2.5817-2.6966-1.8411-4.0801 0.19726 0.19527 4.9508 2.7026 4.9508 2.7026s-0.0139-1.1304-0.0318-2.5259c-0.022-2.5618 0.30684-4.7111-2.8527-6.4227-0.89931-0.49615-2.4263-2.5664-1.0879-4.379 1.9839 1.4778 3.8622 2.6773 3.8622 2.6773s0.0963-1.0368 0.17601-2.1128c0.27165-3.5448-0.0432-5.9146-2.8414-7.2177-2.0988-1.0175-1.5077-3.0499-1.1969-4.1585 0.78839 0.57452 2.7557 2.5159 4.1864 2.5159v-3.2452c0-3.2671-1.353-3.7473-2.6966-4.2302-0.32479-0.12288-0.59047-0.26833-0.78374-0.47822-1.7209-1.8318-1.0448-3.3209-0.62434-4.0382 0.95444 0.50279 1.7986 2.3519 3.7806 2.1526 0.32412-2.7212 0.4729-5.3055 0.26036-8.133-0.1501-1.9009-1.0116-3.2339-2.9829-3.1794-0.80167 0.0252-1.8092 0.42375-2.4303 0.7419-2.8042 1.4473-3.9373 0.8382-4.9535-0.66153 1.5921-0.51674 2.5319-0.96175 3.2399-1.3383 7.4907-3.9811-2.1294-10.63-4.9097-4.9488-0.71001 1.3363-1.4127 3.1144-1.4127 3.1144-0.50213-0.93186 0.29423-2.8294-2.761-3.2598-0.90795-0.11822-3.669-0.36929-6.1032-0.28626-2.6382 0.0863-4.9867 0.67747-6.4486 2.4528-0.91525 0-5.4171-0.0817-6.2101-0.0936-1.7754-0.0312-2.3027 0.85414-2.227 1.7674 0.19527 2.2098 2.1068 1.9839 2.5458 2.0224 0.81761 0 1.26-0.90329 1.26-0.90329s0 1.2945-0.0711 1.4984c-0.20457 0.67283-1.5077 1.0826-3.1742 0.78441 0 0-0.17269 2.4203 0.14347 3.3056 0.31815 0.8827 0.95111 2.2423 5.0199 2.3452 4.0834 0.0963 5.5307 0.39055 7.1971 0.39055 1.6751 0 3.8662 1.3689 3.6603 5.5506 0 0-2.8241-3.3103-7.308-3.115-4.4793 0.1966-11.324 0.37991-13.38 0.46626-2.0643 0.0771-3.222-3.9825-4.9987-2.5186-1.7667 1.4605-0.21121 4.8685 3.4425 4.7808 3.6623-0.10228 14.002-0.29424 14.622-0.29424 0.627 0 1.3636 0.19196 1.3636 1.4659v0.87541l-6.3795 0.29755s-0.0976 2.8201 0.85082 4.1857c0.92986 1.3656 2.0742 2.2396 1.0375 3.5082 2.9178 0.10229 3.8523-3.4106 4.0675-4.3803 1.7926 0.18863 3.3369 0.25171 4.6553 0.16205 2.6428-0.16205 8.4033-1.7289 10.598-6.8929 1.6797 1.4665 1.3722 8.1768-9.3916 9.4839-0.60242 0.0744-1.2314 0.20722-1.8943 0.28426-0.62698 1.5588-0.49216 2.0324-0.9956 3.0533-1.167 2.316-1.7276 2.4276-1.7276 2.4276s2.1493 0.34737 4.7655-0.34936c0 0-0.36862 1.7827-1.8498 2.5299-2.7079 1.3729-6.7574-0.3301-8.4923 5.3161 3.4305 0.10162 5.6662 0.19329 5.6662 0.19329s-0.68079 2.8328-2.953 2.5385c-4.1625-0.54463-7.132 0.74589-8.0891 4.4633 2.7683 0.0392 4.6028 0.68079 6.5037 0.73924-0.83688 1.3928-1.9912 1.8391-2.9888 2.0948-1.8199-0.081-8.8091-0.25572-10.435-0.50146-1.612-0.25638-3.645-2.2861-4.5331-2.7882-0.0897 1.1922 1.8146 5.9591 0.91259 4.6393-1.5316 0.11756-15.573-0.0219-15.573-0.0219l-3.034 0.0259c2.597-8.0845-6.966-6.6153-6.966-6.6153v2.6229c-7.3585-5.273-13.997-1.4287-13.79 6.0368 0.0225 1.0846 1.6352 1.2918 1.7163 0 0.0698-1.3357 1.7222-3.5155 5.6648-1.3031 2.5212 1.4147 3.7221 2.3439 3.7221 2.3439-0.52272 0.1873-2.3014 0.8754-2.8155 1.0574-3.578 1.2792-4.6108 5.6708-2.949 8.2837 0.6343 0.99893 0.75252 1.246 1.2181 1.9447 0.79238 1.1749 2.3871 0.69341 1.8564-0.26899-1.2573-2.2689 0.0166-3.8955 1.3901-3.9944 0.47954-0.0425 3.7327-0.14545 4.2727-0.17136 1.877-0.0823 3.9493-1.3158 4.632-3.3037 0.21121-1.9089 2.8866-2.5671 2.767-0.65688-0.11755 1.9122-1.2978 2.4522 0.99097 2.5571 2.2682 0.12951 12.62-0.39387 17.683 0.94248-1.1085 1.4718-1.5721 4.3159-1.6631 4.6466-0.0963 0.33276 7.5551-1.5137 9.814-1.5137 2.2396 0 27.938-1.6027 27.99-1.6173 0.51873 1.9613-1.8491 2.8998-3.9313 2.9762-1.1922 0.0518-4.7961 0.33409-4.7961 0.33409 0.94912 2.0556 4.9874 4.2362 9.6559 5.4596 4.8638 1.2686 7.1978 1.6379 6.7674 4.0143-6.1577-1.0268-18.044-1.3483-30.628 6.0468-0.62566 0.37061-1.2228 0.73924-1.792 1.1006h59.181c7.9669-3.6125 9.2322-13.739 3.9672-23.381-0.54728-0.98565-1.1364-1.9241-1.7601-2.7836-4.1292-5.5931-8.6577-10.324-12.517-16.409-3.8636-6.0879-5.3162-12.811-0.79968-14.182 4.5251-1.3629 5.7293 2.7424 6.6525 5.3527 0.94049 2.6136 1.3284 7.2449 7.4475 7.2449-0.90063-1.5994-0.5619-3.2831-0.54264-4.4653 0.079-4.727-0.23312-7.4389-2.668-9.3976-1.26-1.0162-3.7766-1.4506-3.7766-1.4506s1.8092-0.90396 4.2063-0.63231c1.236 0.13417 2.1692 0.5008 3.0074 0.88271 10.656 4.8306 14.015-2.8155 11.156-7.1706"/><path fill="#FAEBDC"  d="m164.85 267.96c-0.25505-0.15203-0.22516-0.75524 0.0578-0.88005 1.1464-0.19998 2.3745-0.45297 3.4803-0.73007 1.0454-0.24362 2.2788-0.78015 2.3532-0.78015 0.22583 0 0.37195 0.18398 0.39852 0.34923-0.29889 0.73186-0.72064 1.9168-1.0547 2.9237l-3.0592 9.6486c-0.59113 1.9124-0.4191 2.156 0.83156 2.3407l0.91923 0.12271c0.25771 0.12688 0.18067 0.78173-0.11357 0.88135-1.258-0.0511-2.6634-0.0776-4.2103-0.0776-1.349 0-2.5877 0.0264-3.736 0.0776-0.27165-0.22494-0.1986-0.72982 0.0671-0.88135l0.88204-0.12271c1.3483-0.20341 1.5296-0.42835 2.128-2.3407l2.5306-7.9708c0.37592-1.1789 0.45363-1.505 0.45363-1.806 0.0279-0.38065-0.27497-0.57732-0.80166-0.62839l-1.1265-0.12613"/><path fill="#FAEBDC"  d="m193.84 269.22c0-1.2599-0.7047-2.3929-2.0517-2.3929-1.2852 0-2.1646 1.1104-2.1646 2.3929 0 1.7103 1.1829 2.5618 2.4117 3.3375 0.95112-0.39432 1.8046-1.8828 1.8046-3.3375zm-4.6639 4.9702c-1.25 0.75657-2.1825 2.2178-2.1825 3.8787 0 1.6086 0.93252 2.8407 2.506 2.8407 1.3808 0 2.5146-1.0567 2.5146-2.6687 0-2.1122-1.604-3.2397-2.8381-4.0508zm-5.2763 3.9763c0-2.3643 1.9421-3.8702 4.2727-4.8014-0.92522-0.70204-1.5263-1.8112-1.5263-2.8897 0-2.8407 2.4801-4.8021 5.2869-4.8021 2.5106 0 4.7104 1.1789 4.7104 3.8463 0 2.0125-1.8345 3.2158-3.5833 3.8647 1.1544 0.80586 2.156 1.9155 2.156 3.7254 0 2.967-2.4993 4.9516-6.2613 4.9516-2.8573 0-5.0551-1.2819-5.0551-3.8948"/><path fill="#FAEBDC"  d="m219.4 269.22c0-1.2599-0.70868-2.3929-2.0497-2.3929-1.2878 0-2.1679 1.1104-2.1679 2.3929 0 1.7103 1.1862 2.5618 2.409 3.3375 0.96041-0.39432 1.8086-1.8828 1.8086-3.3375zm-4.654 4.9702c-1.2606 0.75657-2.1852 2.2178-2.1852 3.8787 0 1.6086 0.92454 2.8407 2.4987 2.8407 1.3802 0 2.51-1.0567 2.51-2.6687 0-2.1122-1.6086-3.2397-2.8234-4.0508zm-5.2949 3.9763c0-2.3643 1.9554-3.8702 4.2814-4.8014-0.92721-0.70204-1.5223-1.8112-1.5223-2.8897 0-2.8407 2.486-4.8021 5.2823-4.8021 2.5046 0 4.7144 1.1789 4.7144 3.8463 0 2.0125-1.8338 3.2158-3.5873 3.8647 1.1484 0.80586 2.1619 1.9155 2.1619 3.7254 0 2.967-2.506 4.9516-6.2766 4.9516-2.854 0-5.0538-1.2819-5.0538-3.8948"/><path fill="#FAEBDC"  d="m247.84 271c0 3.4218-2.3346 6.9884-5.4829 9.0998-2.5352 1.711-6.6419 3.0957-8.6218 3.1642-0.27763-0.1222-0.37327-0.64421-0.15078-0.87408 2.8792-0.68209 5.3879-2.0369 7.065-3.7233 2.2609-2.2097 3.8895-5.732 3.8895-8.8729 0-1.3551-0.22384-2.9675-1.7807-2.9675-1.8292 0-2.9829 2.891-2.9829 4.8013 0 1.4633 0.42708 2.1612 1.2493 2.541 0.35467 0.15097 0.73592 0.2047 1.3556 0.22257 0.10628 0.10095 0.10628 0.40841 0 0.60919-0.55061 0.39905-1.6292 0.65483-2.2802 0.65483-2.1307 0-3.5813-1.4659-3.5813-3.8237 0-3.2672 2.9324-6.159 6.42-6.159 3.1775 0 4.901 2.1088 4.901 5.3275"/><path fill="#FAEBDC"  d="m145.95 274.64h-66.147v-1.9788h66.147v1.9788"/><path fill="#FAEBDC"  d="m329.89 274.64h-66.154v-1.9788h66.154v1.9788"/></g></svg>
