<svg width="478" height="478" viewBox="0 0 478 478" fill="none" xmlns="http://www.w3.org/2000/svg">
  <path fill-rule="evenodd" clip-rule="evenodd" d="M96.9004 332.7H194.4V234.7H96.9004V332.7Z" fill="#FAEBDC"/>
  <path fill-rule="evenodd" clip-rule="evenodd" d="M289.2 39H192.9V233.3H288.9C342 233.3 384.9 189.9 384.9 136.3C384.9 82.7 342.1 39 289.2 39Z" fill="#FAEBDC"/>
  <path fill-rule="evenodd" clip-rule="evenodd" d="M105.901 392.2V408.8C106.901 409 107.901 409 109.101 409C111.301 409 113.001 408.3 114.201 406.8C115.401 405.3 115.901 403.1 115.901 400.7C115.901 395.1 113.501 392.2 108.601 392.2H105.901ZM105.901 413.2V422.2L110.001 422.7C110.001 422.9 110.001 423.4 110.001 423.7C110.001 424.7 109.801 425.7 109.501 426.6H93.0008C92.8008 425.1 92.8008 424.2 92.8008 423.7C93.0008 423.2 93.5008 423 94.3008 422.7C95.0008 422.5 96.0008 422.2 97.0008 422.2V392.5L92.9008 392C92.9008 391.3 92.9008 390.5 92.9008 389.8C92.9008 389.3 93.1008 388.6 93.4008 387.8H109.501C114.601 387.8 118.801 388.8 121.401 390.7C124.101 392.7 125.501 395.6 125.501 399.5C125.501 402.2 124.801 404.6 123.501 406.6C122.301 408.6 120.301 410.3 118.101 411.2C115.701 412.2 113.001 412.9 109.601 412.9C108.601 413.4 107.401 413.2 105.901 413.2Z" fill="#FAEBDC"/>
  <path fill-rule="evenodd" clip-rule="evenodd" d="M143.4 420.2C144.4 418.7 144.6 416.5 144.6 413.4C144.6 409.5 144.1 406.8 142.9 404.9C141.9 402.9 140.5 402.2 138.8 402.2C137.3 402.2 136.1 402.9 135.4 404.4C134.4 405.9 134.2 408.1 134.2 411.2C134.2 414.9 134.7 417.8 135.9 419.7C136.9 421.7 138.3 422.6 140 422.6C141.5 422.4 142.5 421.7 143.4 420.2ZM131.7 424.9C129.7 423.9 128 422.2 127.1 420.3C125.9 418.3 125.4 415.9 125.4 413.2C125.4 410 126.1 407.3 127.4 405.2C128.6 403 130.6 401.3 132.8 400.1C135 398.9 137.7 398.4 140.6 398.4C143.3 398.4 145.5 398.9 147.7 400.1C149.7 401.1 151.4 402.8 152.3 404.7C153.5 406.7 154 409.1 154 411.8C154 415 153.3 417.7 152 420.1C150.8 422.3 148.8 424.2 146.6 425.5C144.4 426.7 141.7 427.2 138.8 427.2C136.1 426.6 133.7 426.1 131.7 424.9Z" fill="#FAEBDC"/>
  <path fill-rule="evenodd" clip-rule="evenodd" d="M157.801 423.9C158.001 423.7 158.501 423.2 159.301 422.9C160.001 422.7 160.801 422.4 161.701 422.4V391L158.001 390.3C158.001 390.1 158.001 389.6 158.001 389.1C158.001 388.4 158.001 387.6 158.201 386.9C160.901 385.9 164.501 385.7 168.901 385.7L170.101 385.9V422.5L174.001 422.7C174.001 422.9 174.001 423.2 174.001 423.7C174.001 424.4 173.801 425.4 173.501 426.1H157.901C157.801 425.3 157.801 424.6 157.801 423.9Z" fill="#FAEBDC"/>
  <path fill-rule="evenodd" clip-rule="evenodd" d="M181.7 433.4C181.7 432.7 181.7 431.4 181.9 430.2C182.4 430.4 182.9 430.4 183.9 430.4C184.6 430.4 185.4 430.6 185.9 430.6C187.6 430.6 189.3 430.4 190.8 429.6C192.3 428.9 193.2 427.6 194 426.2C192.5 426.4 191.6 426.4 190.8 426.4L181.8 402.3L178.4 401.8C178.4 400.3 178.4 399.1 178.6 398.1H194.4C194.6 399.3 194.6 400.3 194.6 400.8C194.4 401 194.1 401.5 193.4 401.8C192.9 402 192.2 402.3 191.4 402.3L196 415.7C196.2 416.7 196.5 417.7 196.7 418.9H196.9L202.5 402.1L198.8 401.6C198.8 401.4 198.8 401.1 198.8 400.6C198.8 399.9 199 398.9 199.3 397.9H210.5C210.7 398.9 210.7 399.9 210.7 400.6C210.5 400.8 210 401.3 209.2 401.6C208.5 401.8 207.5 402.1 206.5 402.1L197.2 427C196.2 429.7 195.2 431.9 194 433.6C192.8 435.3 191.3 436.5 189.4 437.5C187.4 438.5 185.3 438.7 182.3 438.7C182 437 181.7 435.3 181.7 433.4Z" fill="#FAEBDC"/>
  <path fill-rule="evenodd" clip-rule="evenodd" d="M226.801 412.7C227.501 411.7 227.801 410.5 227.801 408.8C227.801 407.1 227.301 405.6 226.601 404.4C225.901 403.2 224.901 402.7 223.401 402.7C222.201 402.7 221.401 403.2 220.701 404.2C220.001 405.2 219.701 406.4 219.701 408.1C219.701 409.8 220.201 411.5 220.901 412.7C221.601 413.9 222.601 414.4 223.801 414.4C225.301 414.1 226.101 413.6 226.801 412.7ZM217.301 427.3C216.801 428 216.601 429 216.601 430C216.601 431.5 217.301 432.7 218.801 433.4C220.301 434.1 222.201 434.6 224.701 434.6C226.701 434.6 227.901 434.4 229.101 433.9C230.101 433.4 230.801 432.7 230.801 431.7C230.801 431.2 230.601 430.7 230.301 430.5C229.801 430.3 229.301 430 228.301 429.8C227.301 429.6 225.901 429.3 223.901 429.1C220.701 428.5 218.801 428 217.301 427.3ZM239.001 401.5C239.001 402.2 239.001 402.7 238.801 403.5H234.401C235.101 405 235.601 406.4 235.601 408.1C235.601 410.1 235.101 411.5 234.101 413.2C233.101 414.7 231.701 415.9 229.701 416.9C227.701 417.9 225.601 418.4 223.101 418.4C221.901 418.4 220.901 418.4 219.901 418.2L219.401 420.4C219.901 420.6 220.901 420.9 222.301 421.1C223.801 421.3 225.701 421.6 228.201 421.8C231.601 422 234.101 422.8 235.801 424C237.501 425 238.201 426.9 238.201 429.4C238.201 432.8 236.701 435.3 233.801 436.7C230.901 438.2 227.201 439.1 223.101 439.1C219.201 439.1 216.301 438.4 214.101 437.1C211.901 435.9 210.701 434.2 210.701 431.7C210.701 430.5 211.201 429.3 211.901 428.3C212.601 427.3 213.601 426.6 214.801 426.1C213.801 425.1 213.301 423.9 213.301 422.2C213.301 422 213.301 421.5 213.301 421L216.701 416.9C215.201 416.2 214.301 414.9 213.501 413.5C212.801 412 212.501 410.8 212.501 409.1C212.501 407.1 213.001 405.4 214.001 404C215.001 402.3 216.401 401.1 218.101 400.1C220.101 399.1 222.201 398.6 224.701 398.6C227.601 398.6 230.101 399.3 231.801 400.6C234.001 399.4 236.201 398.4 238.101 397.9C238.801 398.8 239.001 400 239.001 401.5Z" fill="#FAEBDC"/>
  <path fill-rule="evenodd" clip-rule="evenodd" d="M267.002 401.2C267.202 402.7 267.502 404.4 267.502 406.1C265.302 406.1 263.102 406.3 261.202 406.6C259.202 407.1 257.502 407.8 256.302 408.8V422.5L261.402 423C261.402 423.7 261.402 424.5 261.402 425C261.402 425.5 261.202 426 260.902 426.7H243.302C243.102 425.5 243.102 424.7 243.102 424C243.302 423.8 243.802 423.3 244.602 423C245.302 422.8 246.302 422.5 247.302 422.5V403.7L243.402 403C243.402 402.8 243.402 402.3 243.402 401.8C243.402 400.8 243.402 400.3 243.602 399.6C246.502 398.6 250.202 398.4 254.102 398.4L255.602 398.6V405.7C256.302 404 257.802 402.5 259.702 401.1C261.702 399.6 263.602 398.7 265.602 398.2C266.102 398.8 266.502 399.8 267.002 401.2Z" fill="#FAEBDC"/>
  <path fill-rule="evenodd" clip-rule="evenodd" d="M287.301 419.3V413.4L285.301 413.6C281.901 413.8 279.901 415.3 279.901 417.7C279.901 418.7 280.101 419.4 280.601 419.9C281.101 420.4 281.801 420.6 282.801 420.6C284.601 421 285.801 420.5 287.301 419.3ZM299.201 421C299.701 421.7 299.901 422.7 299.901 423.9C299.401 424.6 298.401 425.4 297.201 425.9C296.001 426.4 294.801 426.6 293.501 426.6C292.001 426.6 290.801 426.4 289.801 425.6C288.801 424.9 288.101 423.9 287.601 422.7C286.601 423.9 285.601 424.9 284.201 425.6C282.701 426.3 281.001 426.8 279.101 426.8C276.701 426.8 275.001 426.1 273.501 424.8C272.001 423.6 271.301 421.6 271.301 419.4C271.301 414 275.701 410.9 284.701 410.4L286.901 410.2V406.8C286.901 405.3 286.401 404.1 285.701 403.4C285.001 402.7 283.701 402.2 282.301 402.2C282.101 402.2 281.301 402.2 280.301 402.2L279.301 408.1C278.801 408.1 278.301 408.1 277.801 408.1C276.801 408.1 275.801 407.9 274.901 407.6C273.901 407.4 273.401 406.9 272.901 406.6C272.701 405.1 272.701 403.7 272.701 402.2C273.701 401 275.101 400 277.301 399C279.501 398 281.901 397.5 284.601 397.5C288.301 397.5 290.701 398.5 292.401 400.2C294.101 401.9 294.801 404.1 294.801 406.8V418.3C294.801 419 294.801 419.5 294.801 420C294.801 420.5 295.001 420.7 295.301 421H299.201Z" fill="#FAEBDC"/>
  <path fill-rule="evenodd" clip-rule="evenodd" d="M303.4 401.9L300 401.4C300 399.9 300 398.7 300.2 397.7H315.8C316 398.9 316 399.9 316 400.4C315.8 400.6 315.5 401.1 314.8 401.4C314.3 401.6 313.6 401.9 312.8 401.9L317.4 415.6C317.6 416.6 318.1 417.6 318.1 418.8H318.3L323.9 402L320.2 401.5C320.2 401.3 320.2 400.8 320.2 400.3C320.2 399.3 320.4 398.6 320.7 397.6H332.2C332.4 398.8 332.4 399.6 332.4 400.3C332.2 400.5 331.7 401 330.9 401.3C330.2 401.5 329.2 401.8 328.2 401.8L319.9 425C319.2 425.2 318.4 425.7 317.5 425.7C316.5 425.9 315.3 425.9 314.3 425.9C313.8 425.9 313.3 425.9 312.6 425.9L303.4 401.9Z" fill="#FAEBDC"/>
  <path fill-rule="evenodd" clip-rule="evenodd" d="M372.602 419.3V413.4L370.602 413.6C367.202 413.8 365.202 415.3 365.202 417.7C365.202 418.7 365.402 419.4 365.902 419.9C366.402 420.4 367.102 420.6 368.102 420.6C369.902 421 371.102 420.5 372.602 419.3ZM384.502 421C385.002 421.7 385.202 422.7 385.202 423.9C384.702 424.6 383.702 425.4 382.502 425.9C381.302 426.4 380.102 426.6 378.802 426.6C377.302 426.6 376.102 426.4 375.102 425.6C374.102 424.9 373.402 423.9 372.902 422.7C371.902 423.9 370.902 424.9 369.502 425.6C368.002 426.3 366.302 426.8 364.402 426.8C362.002 426.8 360.302 426.1 358.802 424.8C357.302 423.5 356.602 421.6 356.602 419.4C356.602 414 361.002 410.9 370.002 410.4L372.202 410.2V406.8C372.202 405.3 371.702 404.1 371.002 403.4C370.302 402.7 369.002 402.2 367.602 402.2C367.402 402.2 366.602 402.2 365.602 402.2L364.602 408.1C364.102 408.1 363.602 408.1 363.102 408.1C362.102 408.1 361.102 407.9 360.202 407.6C359.202 407.4 358.702 406.9 358.202 406.6C358.002 405.1 358.002 403.7 358.002 402.2C359.002 401 360.402 400 362.602 399C364.802 398 367.202 397.5 369.902 397.5C373.602 397.5 376.002 398.5 377.702 400.2C379.402 401.9 380.102 404.1 380.102 406.8V418.3C380.102 419 380.102 419.5 380.102 420C380.102 420.5 380.302 420.7 380.602 421H384.502Z" fill="#FAEBDC"/>
  <path fill-rule="evenodd" clip-rule="evenodd" d="M332.4 423.6C332.6 423.4 333.1 422.9 333.9 422.6C334.6 422.4 335.4 422.1 336.3 422.1V403.1L332.6 402.4C332.6 402.2 332.6 401.7 332.6 401.2C332.6 400.2 332.6 399.5 332.8 399C335.7 398 339.1 397.8 343.5 397.8L344.7 398V422.1L348.6 422.6C348.6 422.8 348.6 423.3 348.6 423.6C348.6 424.6 348.4 425.3 348.1 426.3H332.5C332.6 425.3 332.4 424.4 332.4 423.6Z" fill="#FAEBDC"/>
  <path fill-rule="evenodd" clip-rule="evenodd" d="M346.7 387.8C346.7 391.2 344 393.9 340.6 393.9C337.2 393.9 334.5 391.2 334.5 387.8C334.5 384.4 337.2 381.7 340.6 381.7C343.8 381.7 346.7 384.4 346.7 387.8Z" fill="#FAEBDC"/>
  </svg>
  