<svg width="157" height="157" viewBox="0 0 157 157" fill="none" xmlns="http://www.w3.org/2000/svg">
  <g clip-path="url(#clip0_506_3107)">
  <mask id="mask0_506_3107" style="mask-type:luminance" maskUnits="userSpaceOnUse" x="1" y="53" width="155" height="49">
  <path d="M156 53H1V102H156V53Z" fill="white"/>
  </mask>
  <g mask="url(#mask0_506_3107)">
  <path d="M6.58672 90.4851C5.08715 90.4791 3.6486 91.0746 2.59689 92.1366C1.54518 93.1987 0.969296 94.6375 0.999679 96.1271C0.988006 99.1735 3.46418 101.652 6.53036 101.664C9.59656 101.676 12.0916 99.2155 12.1033 96.1691V96.0641C12.1455 94.589 11.5812 93.1605 10.5403 92.1079C9.49948 91.0552 8.07186 90.4692 6.58672 90.4851ZM6.58672 100.376C5.46105 100.36 4.38956 99.8931 3.61501 99.0814C2.84046 98.2697 2.4284 97.1817 2.47218 96.0641C2.42027 94.9555 2.82657 93.874 3.59686 93.0704C4.36715 92.2667 5.43453 91.8107 6.5515 91.8081C7.67845 91.8242 8.75104 92.2919 9.52583 93.1052C10.3006 93.9184 10.7118 95.0082 10.6661 96.1271C10.7159 97.2345 10.3088 98.3141 9.53872 99.1162C8.76865 99.9183 7.70241 100.373 6.58672 100.376Z" fill="#FAEBDC"/>
  <path d="M20.3749 98.052C20.4186 98.6704 20.1983 99.2785 19.7681 99.7274C19.3377 100.176 18.7371 100.424 18.1133 100.411C16.8099 100.411 15.9997 99.557 15.9997 98.143V93.446H14.5906V98.437C14.5906 100.411 15.8165 101.685 17.7258 101.685C18.7555 101.718 19.7327 101.234 20.3256 100.397V101.524H21.7347V93.446H20.3256L20.3749 98.052Z" fill="#FAEBDC"/>
  <path d="M26.4763 91.0729H25.0672V93.4459H23.9822V94.6989H25.0813V99.3329C25.0084 99.9687 25.2313 100.603 25.6868 101.055C26.1422 101.508 26.7804 101.729 27.4204 101.657C27.9321 101.664 28.4377 101.546 28.8929 101.314H28.9492V100.04L28.7942 100.117C28.4539 100.289 28.0771 100.378 27.6951 100.376C27.3652 100.427 27.0303 100.321 26.7907 100.09C26.5512 99.8586 26.4347 99.5291 26.4763 99.1999V94.7199H28.9845V93.4669H26.4763V91.0729Z" fill="#FAEBDC"/>
  <path d="M40.729 93.278C38.3943 93.278 36.5017 95.1584 36.5017 97.478C36.5017 99.7975 38.3943 101.678 40.729 101.678C43.0637 101.678 44.9563 99.7975 44.9563 97.478C44.9563 95.1584 43.0637 93.278 40.729 93.278ZM40.729 100.439C39.9546 100.426 39.2182 100.103 38.6874 99.543C38.1565 98.9826 37.8765 98.2328 37.9108 97.464C37.8744 96.7047 38.1503 95.9632 38.6752 95.4101C39.2 94.8569 39.9287 94.5396 40.6938 94.531C41.4695 94.5472 42.2058 94.8735 42.7362 95.4361C43.2666 95.9986 43.5463 96.7499 43.5119 97.52C43.5444 98.2769 43.2668 99.0147 42.7424 99.5647C42.2179 100.115 41.4915 100.43 40.729 100.439Z" fill="#FAEBDC"/>
  <path d="M50.3177 90.149C49.6642 90.119 49.0255 90.3481 48.5422 90.786C48.0383 91.3666 47.7851 92.1212 47.8377 92.886V93.46H46.7527V94.699H47.8377V101.524H49.2468V94.699H51.7408V93.474H49.2326V92.949C49.2326 91.878 49.6343 91.381 50.5009 91.381C50.8796 91.3918 51.2546 91.4578 51.614 91.577L51.755 91.619V90.38H51.6845C51.2476 90.2179 50.7839 90.1395 50.3177 90.149Z" fill="#FAEBDC"/>
  <path d="M66.3882 95.3921H60.4278V90.6671H58.9976V101.517H60.4278V96.7361H66.3882V101.517H67.8114V90.6671H66.3882V95.3921Z" fill="#FAEBDC"/>
  <path d="M74.66 93.278C72.3252 93.278 70.4326 95.1584 70.4326 97.478C70.4326 99.7975 72.3252 101.678 74.66 101.678C76.9949 101.678 78.8873 99.7975 78.8873 97.478C78.8873 95.1584 76.9949 93.278 74.66 93.278ZM74.66 100.439C73.8857 100.426 73.1488 100.103 72.6183 99.543C72.0877 98.9826 71.8073 98.2328 71.8419 97.464C71.8052 96.7047 72.0814 95.9632 72.6063 95.4101C73.1312 94.8569 73.8597 94.5396 74.6248 94.531C75.4005 94.5472 76.1368 94.8735 76.6673 95.4361C77.1978 95.9986 77.4775 96.7499 77.443 97.52C77.4754 98.2769 77.1978 99.0147 76.6729 99.5647C76.1487 100.115 75.4224 100.43 74.66 100.439Z" fill="#FAEBDC"/>
  <path d="M90.4771 93.278C89.3597 93.2504 88.3099 93.8054 87.7082 94.741C87.201 93.8134 86.2125 93.2478 85.1507 93.278C84.1742 93.2627 83.2555 93.7362 82.706 94.538V93.446H81.2969V101.524H82.706V96.925C82.6489 96.3278 82.8441 95.7341 83.2449 95.2855C83.6458 94.8369 84.2158 94.5738 84.8196 94.559C86.0314 94.559 86.7501 95.392 86.7501 96.792V101.524H88.1591V96.883C88.1591 95.28 89.2019 94.559 90.2376 94.559C91.4705 94.559 92.1751 95.385 92.1751 96.82V101.524H93.5842V96.547C93.4855 94.531 92.323 93.278 90.4771 93.278Z" fill="#FAEBDC"/>
  <path d="M99.7202 93.278C97.4938 93.278 95.817 95.091 95.817 97.478C95.7712 98.5749 96.177 99.6431 96.9421 100.436C97.7066 101.228 98.7634 101.677 99.8681 101.678C101.157 101.714 102.39 101.156 103.208 100.166L103.285 100.082L102.39 99.284L102.32 99.361C101.71 100.051 100.828 100.444 99.9033 100.439C98.521 100.459 97.3585 99.4135 97.2402 98.045H103.489V97.947C103.489 97.758 103.489 97.632 103.489 97.52C103.511 95 101.989 93.278 99.7202 93.278ZM99.6849 94.482C101.235 94.482 101.939 95.714 102.087 96.911H97.2402C97.3106 95.5994 98.3653 94.5517 99.6849 94.482Z" fill="#FAEBDC"/>
  <path d="M116.355 96.3861L112.452 90.6671H111.121V101.517H112.516V93.1591L116.306 98.6051H116.426L120.16 93.1451V101.517H121.583V90.6671L120.167 90.7161L116.355 96.3861Z" fill="#FAEBDC"/>
  <path d="M128.092 93.278C125.866 93.278 124.189 95.091 124.189 97.478C124.146 98.5756 124.553 99.6437 125.319 100.436C126.084 101.229 127.142 101.677 128.247 101.678C129.536 101.712 130.768 101.154 131.587 100.166L131.657 100.082L130.763 99.284L130.692 99.361C130.083 100.053 129.201 100.447 128.276 100.439C126.893 100.462 125.731 99.4141 125.619 98.045H131.869V97.947C131.869 97.758 131.869 97.632 131.869 97.52C131.89 95 130.361 93.278 128.092 93.278ZM128.092 94.482C129.642 94.482 130.34 95.714 130.488 96.911H125.648C125.717 95.6095 126.755 94.5654 128.064 94.482H128.092Z" fill="#FAEBDC"/>
  <path d="M140.57 94.727C139.885 93.8071 138.799 93.2684 137.647 93.278C135.765 93.278 133.765 94.748 133.765 97.478C133.691 98.5534 134.065 99.6116 134.798 100.405C135.532 101.199 136.562 101.659 137.647 101.678C138.814 101.684 139.91 101.116 140.57 100.159V101.517H141.98V90.205H140.57V94.727ZM137.865 100.425C136.315 100.425 135.188 99.193 135.188 97.464C135.188 95.735 136.287 94.545 137.865 94.545C138.626 94.5628 139.348 94.8862 139.866 95.4414C140.383 95.9965 140.653 96.7362 140.613 97.492C140.664 99.0539 139.437 100.364 137.865 100.425Z" fill="#FAEBDC"/>
  <path d="M146.453 90.436H144.889V91.948H146.453V90.436Z" fill="#FAEBDC"/>
  <path d="M146.362 93.446H144.967V101.517H146.362V93.446Z" fill="#FAEBDC"/>
  <path d="M155.09 94.2229C154.37 93.5869 153.424 93.2642 152.462 93.3269C151.446 93.3336 150.446 93.5732 149.538 94.0269L149.447 94.0689L149.877 95.2309L149.982 95.1749C150.717 94.8177 151.524 94.631 152.342 94.6289C153.801 94.6289 154.569 95.3289 154.569 96.6449V96.7499C153.819 96.5425 153.043 96.4412 152.265 96.4489C150.081 96.4489 148.742 97.4499 148.742 99.1509C148.742 100.852 150.285 101.706 151.807 101.706C152.843 101.734 153.84 101.316 154.541 100.558V101.545H155.95V96.6449C156.015 95.7538 155.704 94.8759 155.09 94.2229ZM154.59 97.8769V98.4999C154.59 99.6409 153.505 100.502 152.061 100.502C151.159 100.502 150.186 100.047 150.186 99.0109C150.186 98.1079 151.032 97.5409 152.385 97.5409C153.132 97.5499 153.874 97.6631 154.59 97.8769Z" fill="#FAEBDC"/>
  <path d="M112.12 71.788C109.077 71.011 108.323 70.64 108.323 69.485V69.436C108.323 68.582 109.098 67.91 110.584 67.91C111.795 67.9529 112.976 68.2997 114.015 68.918C114.271 69.0618 114.561 69.1366 114.854 69.135C115.281 69.1408 115.682 68.9263 115.911 68.568L117.186 66.734C115.33 65.2558 113.012 64.4683 110.634 64.508C107.033 64.508 104.469 66.608 104.469 69.786V69.835C104.469 73.335 106.759 74.287 110.31 75.19C113.262 75.946 113.832 76.443 113.832 77.416V77.5C113.832 78.529 112.874 79.152 111.289 79.152C110.036 79.1914 108.793 78.9093 107.682 78.333C106.773 77.85 106.47 77.633 106.075 77.633C105.691 77.6087 105.324 77.7937 105.117 78.116L103.792 79.705L103.955 79.838C105.991 81.5532 108.577 82.4913 111.247 82.4841C115.051 82.4841 117.721 80.538 117.721 77.059V77.01C117.714 74 115.699 72.712 112.12 71.788Z" fill="#FAEBDC"/>
  <path d="M67.2268 64.6199H61.5904C60.7644 64.6365 60.0738 65.2485 59.9629 66.0619V82.2529H63.8449V76.8909H66.7899C70.7494 76.8909 73.9196 74.7909 73.9196 70.7309V70.6749C73.9478 67.0979 71.4047 64.6199 67.2268 64.6199ZM70.0449 70.8009C70.0449 72.3059 68.9106 73.4609 66.966 73.4609H63.8942V68.0989H66.8956C68.8331 68.0989 70.0449 69.0229 70.0449 70.7519V70.8009Z" fill="#FAEBDC"/>
  <path d="M99.0586 64.6129H97.3818V82.2739H99.0586V64.6129Z" fill="#FAEBDC"/>
  <path d="M50.5645 64.6199H47.8379C47.341 64.6959 46.9043 64.9886 46.6472 65.4179L46.4852 65.7959L39.4397 82.2599H43.3922L45.0056 78.3329H52.4315L53.6222 81.2239C53.8524 81.846 54.4486 82.2595 55.1158 82.2599H58.0961L50.5645 64.6199ZM46.3865 74.9309L48.7327 69.2539L51.0717 74.9309H46.3865Z" fill="#FAEBDC"/>
  <path d="M155.999 82.2599L148.44 64.6199H145.713C145.216 64.6959 144.779 64.9886 144.523 65.4179L144.36 65.7959L137.314 82.2599H141.275L142.881 78.3329H150.363L151.553 81.2239C151.782 81.8473 152.38 82.2616 153.047 82.2599H155.999ZM144.261 74.9309L146.601 69.2539L148.954 74.9309H144.261Z" fill="#FAEBDC"/>
  <path d="M86.2986 72.18H84.3823V74.105C84.3823 74.8781 85.0135 75.505 85.7913 75.505H88.2643V78.011C87.187 78.7341 85.9076 79.1015 84.6077 79.061C81.4866 79.061 79.2743 76.709 79.2743 73.503V73.454C79.2743 70.479 81.5148 67.994 84.3329 67.994C85.4489 67.9609 86.553 68.232 87.5245 68.778C87.8662 69.0169 88.2643 69.164 88.68 69.205C89.1562 69.2048 89.6065 68.9913 89.9059 68.624C89.9482 68.582 90.1525 68.323 90.1525 68.323L91.3854 66.846C89.4839 65.1733 86.9961 64.3109 84.4598 64.445C82.0143 64.3918 79.6512 65.325 77.9103 67.0316C76.1687 68.7381 75.1964 71.0727 75.2161 73.503V73.559C75.2161 78.732 78.9925 82.561 84.4879 82.561C87.2568 82.5619 89.932 81.5673 92.0195 79.761V72.18H86.2986Z" fill="#FAEBDC"/>
  <path d="M130.559 72.1799H128.642V74.1049C128.642 74.8782 129.273 75.5049 130.051 75.5049H132.517V78.0109C131.439 78.7341 130.16 79.1015 128.861 79.0609C125.74 79.0609 123.527 76.7089 123.527 73.5029V73.4539C123.527 70.4789 125.768 67.9939 128.586 67.9939C129.702 67.961 130.805 68.2321 131.777 68.7779C132.122 69.0169 132.522 69.1639 132.94 69.2049C133.413 69.2028 133.861 68.9895 134.159 68.6239L134.405 68.3229L135.645 66.8459C133.741 65.1722 131.251 64.3098 128.713 64.4449C126.267 64.3919 123.904 65.325 122.163 67.0316C120.421 68.7382 119.449 71.0728 119.469 73.5029V73.5589C119.469 78.7319 123.245 82.5609 128.734 82.5609C131.505 82.5642 134.183 81.5695 136.272 79.7609V72.1799H130.559Z" fill="#FAEBDC"/>
  <path d="M7.1293 79.6491C7.14359 80.8186 6.44549 81.8809 5.36203 82.3384C4.27856 82.7958 3.02432 82.5578 2.18682 81.7358C1.34933 80.9138 1.09446 79.6706 1.5416 78.5886C1.98875 77.5066 3.04935 76.8001 4.22657 76.8001C5.81762 76.7961 7.11382 78.0684 7.1293 79.6491Z" fill="#FAEBDC"/>
  <path d="M14.9777 79.649C14.992 80.8186 14.2939 81.8809 13.2104 82.3383C12.127 82.7958 10.8727 82.5578 10.0352 81.7357C9.19773 80.9137 8.94283 79.6706 9.39 78.5886C9.83718 77.5066 10.8977 76.8001 12.075 76.8C13.6645 76.7999 14.9584 78.0699 14.9777 79.649Z" fill="#FAEBDC"/>
  <path d="M14.9779 71.823C14.9808 72.9902 14.2753 74.0439 13.1909 74.4925C12.1064 74.9411 10.8568 74.6961 10.0251 73.8718C9.19349 73.0476 8.94386 71.8066 9.39273 70.728C9.8416 69.6495 10.9005 68.946 12.0751 68.946C13.6755 68.946 14.974 70.233 14.9779 71.823Z" fill="#FAEBDC"/>
  <path d="M22.8405 79.6489C22.8547 80.8171 22.1582 81.8785 21.0765 82.3367C19.9947 82.795 18.7416 82.5595 17.9031 81.7404C17.0644 80.9213 16.8061 79.6805 17.2488 78.5981C17.6915 77.5157 18.7477 76.8056 19.9237 76.7999C21.5202 76.7882 22.825 78.0627 22.8405 79.6489Z" fill="#FAEBDC"/>
  <path d="M19.9235 74.707C21.5266 74.707 22.8262 73.4157 22.8262 71.823C22.8262 70.2302 21.5266 68.939 19.9235 68.939C18.3203 68.939 17.0208 70.2302 17.0208 71.823C17.0208 73.4157 18.3203 74.707 19.9235 74.707Z" fill="#FAEBDC"/>
  <path d="M22.8407 64.0039C22.8407 65.171 22.1327 66.223 21.0472 66.669C19.9617 67.115 18.7126 66.867 17.883 66.0407C17.0533 65.2144 16.8067 63.9728 17.2583 62.8954C17.7097 61.8179 18.7703 61.117 19.945 61.1199C20.7143 61.1199 21.4518 61.424 21.9951 61.965C22.5383 62.506 22.8425 63.2396 22.8407 64.0039Z" fill="#FAEBDC"/>
  <path d="M30.6683 79.6491C30.6827 80.8192 29.9838 81.882 28.8994 82.339C27.8152 82.796 26.5604 82.5568 25.7234 81.7333C24.8864 80.9098 24.6333 79.6656 25.0827 78.5838C25.5321 77.502 26.5948 76.7973 27.7727 76.8001C29.361 76.8 30.6529 78.0711 30.6683 79.6491Z" fill="#FAEBDC"/>
  <path d="M30.6679 71.8231C30.6707 72.9909 29.9645 74.0451 28.8792 74.4932C27.7939 74.9414 26.5437 74.6951 25.7126 73.8694C24.8815 73.0436 24.6336 71.8015 25.0847 70.7232C25.5358 69.6449 26.5969 68.9433 27.7721 68.9461C29.3714 68.9461 30.6679 70.2342 30.6679 71.8231Z" fill="#FAEBDC"/>
  <path d="M30.6679 64.0039C30.6679 65.171 29.9599 66.223 28.8743 66.669C27.7887 67.115 26.5397 66.867 25.7101 66.0407C24.8804 65.2144 24.6339 63.9728 25.0854 62.8954C25.5369 61.8179 26.5975 61.117 27.7722 61.1199C28.5413 61.1199 29.279 61.424 29.8222 61.965C30.3655 62.506 30.6697 63.2396 30.6679 64.0039Z" fill="#FAEBDC"/>
  <path d="M30.6679 56.178C30.6679 57.3451 29.9599 58.3971 28.8743 58.8431C27.7887 59.2891 26.5397 59.041 25.7101 58.2148C24.8804 57.3885 24.6339 56.1469 25.0854 55.0694C25.5369 53.992 26.5975 53.2911 27.7722 53.294C28.5413 53.294 29.279 53.598 29.8222 54.1391C30.3655 54.6801 30.6697 55.4137 30.6679 56.178Z" fill="#FAEBDC"/>
  </g>
  </g>
  <defs>
  <clipPath id="clip0_506_3107">
  <rect width="155" height="49" fill="white" transform="translate(1 53)"/>
  </clipPath>
  </defs>
  </svg>
  