<?xml version="1.0" encoding="UTF-8" standalone="no"?>
<!-- Created with Inkscape (http://www.inkscape.org/) -->

<svg
   width="400mm"
   height="400mm"
   viewBox="0 0 400 400"
   version="1.1"
   id="svg324"
   xml:space="preserve"
   xmlns="http://www.w3.org/2000/svg"
   xmlns:svg="http://www.w3.org/2000/svg"><defs
	 id="defs321" /><g
	 id="g459"
	 transform="matrix(0.11418651,0,0,0.11418651,36.090971,162.07295)">
	<g
   id="g455">
		<path fill="#FAEBDC" 
   class="st0"
   d="m 619.7,146.5 c 15.3,0.1 30.7,0.1 46,0.1 10.2,0 13.5,-3.3 13.5,-13.6 0,-31.9 -0.1,-63.8 0.1,-95.7 0,-6.8 -2,-11.7 -8.6,-14.3 -89.1,0 -178.2,0 -267.3,0 -6.4,2.8 -8.3,7.8 -8.3,14.6 0.2,31.5 0.1,63 0.1,94.4 0,11.1 3.4,14.5 14.4,14.5 15.3,0 30.7,0 46.5,0 -1.3,3.7 -2.5,7.1 -3.7,10.5 -32.3,89.5 -64.6,179.1 -96.9,268.6 -1.9,5.3 -1.9,5.3 -10.1,4.9 -34.3,-94.3 -68.7,-188.9 -103.3,-284 1.8,0 3.1,0 4.4,0 15,0 29.9,0 44.8,0 8.9,0 12.7,-3.5 12.7,-12.4 0.1,-32.8 0.1,-65.6 0,-98.5 0,-6.2 -2.9,-10.4 -8.7,-12.6 -89.1,0 -178.2,0 -267.2,0 -2.7,2.7 -5.4,5.4 -8.1,8.1 0,35.8 0,71.6 0,107.4 2.4,6.3 7.3,8.2 13.7,8.1 14.8,-0.2 29.6,0 44.4,-0.2 3.3,0 4.9,0.8 6.1,4 20.3,51.8 40.7,103.5 61.1,155.2 33.6,85.1 67.1,170.1 100.8,255.1 5.5,13.8 11.4,27.6 18.3,40.7 9.6,18.2 25.8,27.8 46.2,28.4 25.9,0.7 51.9,0.7 77.9,0 19.9,-0.5 35.7,-9.7 45.7,-27.2 4.9,-8.6 9.3,-17.6 12.9,-26.8 55.9,-142 111.6,-284 167.3,-426 1.1,-2.7 2.6,-3.4 5.3,-3.3 z"
   id="path441" />
		<path fill="#FAEBDC" 
   class="st0"
   d="m 1912.5,541.2 c -2.2,-0.3 -4.6,-0.2 -6.8,-0.3 -5.2,0 -10.4,0 -15.9,0 0,-2.2 0,-3.8 0,-5.4 0,-52.2 0,-104.4 0,-156.6 0,-19.1 -1.9,-38.1 -6.4,-56.8 -13.8,-57.7 -48.9,-94.6 -107.1,-107.9 -43.2,-9.9 -86.3,-7.9 -128.9,4 -31.5,8.8 -60,23.4 -83.6,46.6 -6.6,6.5 -6.9,10 -1.6,17.5 11.7,16.7 23.8,33.2 35.1,50.3 5.5,8.2 13.1,9.1 20.5,3.6 10.3,-7.7 21.4,-13.9 33.3,-18.6 21,-8.2 42.9,-11.2 65.2,-11 13.9,0.1 27.6,2.3 40.2,8.8 25.8,13.4 33.5,42.9 31.3,71.6 -1.7,0 -3.4,0 -5.1,0 -34.8,0.4 -69.7,-1.5 -104.4,3.3 -26,3.7 -51.2,9.7 -74.7,21.8 -25,12.9 -44.4,31.1 -55.2,57.5 -8.4,20.7 -9.8,42.2 -7.5,64.2 5.4,50.9 38.8,88.8 88.7,100.4 7,1.6 14.1,2.7 21.2,4 10.2,0 20.4,0 30.7,0 0.9,-0.3 1.8,-0.6 2.6,-0.8 7.3,-1.3 14.7,-2 21.8,-3.9 40.7,-10.4 70.9,-34.8 92.3,-70.6 0.8,-1.4 1.7,-2.8 2.5,-4.2 0.4,0.1 0.8,0.2 1.2,0.3 0,1.5 0,3.1 0,4.6 0.2,12.6 -0.3,25.3 0.9,37.9 1.5,16.6 11.8,27.6 28.3,28.4 26.3,1.1 52.7,0.7 79.1,0.6 7.5,0 11.5,-5.3 11.5,-12.8 0,-22.1 0,-44.1 0,-66.2 0.1,-6.4 -2.7,-9.5 -9.2,-10.3 z m -124.2,-49 c 0,0.9 -0.5,1.8 -1,2.6 -17.2,23.4 -38.6,40.9 -67.9,46.2 -18.1,3.3 -36,2.4 -52.5,-6.9 -20.7,-11.7 -27.5,-40.5 -13.9,-58.6 7.4,-9.9 18,-14.6 29.4,-18.1 14.9,-4.5 30.3,-6.3 45.8,-6.6 19.1,-0.4 38.2,-0.2 57.3,-0.3 0.8,0 1.6,0.1 2.9,0.2 -0.1,14.1 -0.1,27.8 -0.1,41.5 z"
   id="path443" />
		<path fill="#FAEBDC" 
   class="st0"
   d="m 1081.7,435.2 c -15.7,-14.7 -34.4,-24.6 -54.6,-31 -23.7,-7.5 -47.8,-13.6 -71.7,-20.4 -15.1,-4.3 -30.4,-8.3 -43.8,-16.8 -9,-5.7 -15.8,-13 -17.2,-24.1 -2.4,-19.1 7.6,-35.6 26.5,-42.1 22.2,-7.6 44.3,-5.2 65.2,4 21.8,9.6 35.9,25.1 34.6,51 -0.5,8.8 5.3,13.8 14.2,13.8 17.1,0 34.2,0 51.3,0 10.9,0 15.7,-4.7 15.7,-15.7 0,-40.1 0,-80.2 0,-120.3 0,-1.8 0,-3.5 0,-5.2 -0.3,-8.7 -5,-13.3 -13.7,-13.3 -14,0 -28,0 -42,0 -8.5,0 -13.5,5.2 -13.2,13.8 0.1,3.5 0.6,7 0.9,10.5 0.4,4.5 0.7,9.1 1.1,13.6 -1.8,-0.8 -2.7,-1.8 -3.5,-2.8 -12.5,-15.4 -27.9,-26.9 -46.6,-33.4 -38.5,-13.4 -77.2,-13 -115.3,1.1 -29.7,11 -51.4,31.4 -64.3,60.5 -11.3,25.5 -13.9,52.3 -9.7,79.8 4.9,32.3 22.2,56.5 49.6,73.9 13.8,8.8 28.6,15.6 44.2,20.4 24.6,7.6 49.5,14.5 74.1,21.9 11.5,3.5 22.7,7.7 31.8,15.9 4.6,4.1 7.6,9 8.3,15.2 1.9,16.7 -6.6,30.8 -22.6,37.4 -11.9,4.9 -24.4,6 -37.2,5.6 -21.1,-0.6 -40.9,-5.8 -57.2,-19.7 -13.2,-11.2 -25.2,-23.4 -24.8,-43 0.2,-8.1 -5.1,-11.9 -13.2,-12 -18,-0.1 -36.1,-0.1 -54.1,0 -8.3,0 -13.5,5.1 -13.5,13.3 -0.3,43.3 -0.6,86.6 -0.8,130 0,8.8 5.3,13.9 14.1,13.9 15.2,0 30.4,0 45.6,0 8.6,0 13.6,-4.8 13.6,-13.4 0,-5.8 -0.5,-11.6 -0.6,-17.3 -0.1,-4.6 0,-9.1 0,-14.2 2.2,2.7 3.9,5.1 5.9,7.2 20.8,22.2 46.6,35.5 76.3,41.6 7.2,1.5 14.5,2.2 21.7,3.3 6.7,0 13.4,0 20.2,0 4.4,-0.5 8.8,-0.8 13.1,-1.5 2.1,-0.4 4.4,-1.3 5.9,-2.7 35.3,-34.9 70.5,-69.9 105.7,-105 4.1,-4 9.5,-7.8 11.3,-12.7 1.8,-5 0.2,-11.4 -0.4,-17.1 -2.8,-25 -12.3,-46.7 -30.9,-64 z"
   id="path445" />
		<path fill="#FAEBDC" 
   class="st0"
   d="m 2064.6,541.4 c -5.1,-0.6 -10.2,-0.3 -15.3,-0.5 -1.5,0 -3.1,-0.2 -5.1,-0.2 0,-2.2 0,-4.1 0,-6 0,-164.3 0,-328.6 0.1,-492.9 0,-8.6 -1.5,-15.7 -10.7,-18.8 -49.3,0 -98.5,0 -147.8,0 -5.5,2.3 -7.7,6.4 -7.7,12.3 0.1,21.7 0,43.3 0.1,65 0,8.3 4.2,12.4 12.5,12.4 12,0 24,0 35.9,0 1.5,0 2.9,0 4.9,0 0,2.4 0,4.4 0,6.4 0,165.1 0,330.2 0,495.3 0,1.9 0,3.8 0.2,5.6 0.5,5.2 3.6,8.3 8.3,9.9 2,0.6 4.2,0.8 6.4,0.8 37.6,0 75.1,0 112.6,0 2.1,0 4.3,-0.2 6.4,-0.8 5.2,-1.4 8.5,-5.5 8.5,-10.9 0.1,-22.6 0.1,-45.2 0,-67.8 -0.1,-5.5 -3.4,-9.2 -9.3,-9.8 z"
   id="path447" />
		<path fill="#FAEBDC" 
   class="st0"
   d="m 1519.4,215.2 c -44.7,0 -89.3,0 -134,0 -10,0 -13.8,3.8 -13.8,14 0,21 0,42 0,63 0,9.6 3.2,12.8 12.9,12.8 11.6,0 23.1,0 35.2,0 0.1,1.8 0.2,3.1 0.2,4.4 0,57.3 0,114.6 -0.1,172 0,2.9 -0.5,5.9 -1.5,8.7 -5.9,16.5 -16.1,29.7 -31.3,38.6 -18.1,10.7 -37.8,12.4 -58.1,9 -24.2,-4.1 -39.3,-18.5 -46.3,-41.7 -4.1,-13.4 -5.4,-27.1 -5.4,-41 -0.1,-66.7 0,-133.5 0,-200.2 0,-1.9 0,-3.8 -0.1,-5.7 -1.1,-13.4 -5.9,-24.9 -19.3,-30.1 -5.7,-2.2 -12.2,-3.5 -18.5,-3.5 -38.6,-0.3 -77.2,-0.2 -115.8,-0.1 -8.3,0 -12.2,3.6 -12.2,12 -0.1,22.2 -0.1,44.4 0,66.6 0,8.2 3.2,11.1 11.4,11.1 12.4,0.1 24.8,0 37.1,0 1.4,0 2.9,0 4.7,0 0,2.3 0,4 0,5.7 0,59.7 -0.1,119.5 0.1,179.2 0,8.2 1,16.4 1.8,24.5 0.2,2 1.5,4.3 2.9,5.8 37.3,37.5 74.7,74.9 112.1,112.3 1.7,1.7 4.5,2.9 6.9,3.3 14.3,2.1 28.7,2.3 43.1,0.9 22.5,-2.2 43.8,-8.4 62.5,-21.5 16.9,-11.8 29,-27.4 37.3,-46.2 0.6,-1.3 1.6,-2.4 2.4,-3.6 0.4,0.2 0.8,0.4 1.2,0.6 0.1,1.2 0.2,2.4 0.2,3.5 0.1,9.8 -0.1,19.7 0.5,29.5 1,18.7 12.7,31.1 31.3,32 18.1,0.9 36.3,0.6 54.5,0.4 7.3,-0.1 11.2,-4.8 11.2,-12.5 0,-130.2 0,-260.5 0,-390.7 -0.1,-9.6 -3.8,-13.1 -13.1,-13.1 z"
   id="path449" />
		<path fill="#FAEBDC" 
   class="st0"
   d="m 2414.8,498.1 c -3,-28.9 -15.5,-52.5 -38.6,-70.3 -17.6,-13.6 -37.7,-22.2 -58.8,-28.4 -23.6,-6.9 -47.4,-12.9 -71.1,-19.5 -11.9,-3.3 -23.6,-7.5 -34,-14.5 -6.9,-4.6 -12.3,-10.4 -14.7,-18.6 -5.4,-17.9 3.5,-38.2 21.9,-45 31.3,-11.7 60.8,-6.8 87.2,13.9 8.2,6.4 13.7,15.2 15.6,25.7 0.8,4.3 0.5,8.8 0.6,13.3 0.3,9.5 5.2,14.4 14.5,14.4 17.2,0 34.5,0 51.7,0 10.5,0 15.2,-4.7 15.2,-15.3 0,-41.4 0,-82.9 -0.1,-124.3 0,-2.4 -0.2,-4.9 -0.9,-7.1 -1.5,-4.9 -5.5,-7.9 -10.5,-7.9 -15.2,-0.1 -30.4,-0.1 -45.6,0 -6.4,0.1 -11,4.3 -11.6,10.7 -0.4,4 0.2,8 0.5,12 0.4,5 0.9,10 1.3,15 -0.3,0.1 -0.6,0.3 -0.9,0.4 -0.8,-1 -1.7,-1.9 -2.5,-2.8 -13,-16.1 -29.2,-27.9 -48.8,-34.4 -38.5,-12.8 -77,-12.2 -114.9,2.4 -31.9,12.3 -54,35.1 -66,67.2 -8,21.3 -10,43.4 -7.7,65.9 2.9,28.7 14.9,52.7 37.4,71.2 18.8,15.5 40.7,25 63.6,32.1 21.4,6.7 43.1,12.3 64.6,18.7 11.2,3.3 22.3,7.2 31.9,14.3 6.3,4.6 10.9,10.3 11.8,18.4 1.8,16.3 -6.5,30.1 -22.2,36.9 -9.3,4 -19.1,5.5 -29.1,5.8 -26.3,0.8 -50.7,-4.7 -70.4,-23.4 -11.2,-10.6 -21.1,-22.1 -20.5,-39.3 0.3,-7.9 -5,-12 -13.2,-12 -17.9,-0.1 -35.8,0 -53.7,0 -9,0 -13.9,5 -14.1,14 -0.1,6.5 0,12.9 0,19.4 -0.2,36.7 -0.6,73.4 -0.7,110.2 0,8.9 5.2,14 14.1,14 15.3,0.1 30.7,0.1 46,0 8,0 13.3,-5.4 13.4,-13.5 0,-4.7 -0.3,-9.4 -0.5,-14.1 -0.3,-5.8 -0.5,-11.6 -0.8,-17.4 1.6,0.9 2.5,2.1 3.4,3.2 1,1.3 2,2.5 3.1,3.7 14.6,15.8 32.1,27.5 52.3,34.7 46.3,16.4 92.1,13.3 136.7,-6.2 27.3,-11.9 46.5,-32.5 57.5,-60.3 8,-20.5 9.8,-41.6 7.6,-63.2 z"
   id="path451" />
		<path fill="#FAEBDC" 
   class="st0"
   d="m 758,540.9 c -3.7,0 -7.5,0 -11.7,0 0,-3.2 0,-5.6 0,-8 0,-101.8 0,-203.7 0,-305.5 0,-10.8 -3.3,-14 -13.9,-14 -40.3,0 -80.7,0 -121.1,0 -9.5,0 -12.5,3 -12.5,12.6 0,21.7 0,43.3 0,65 0,9.3 3,12.3 12.3,12.3 7.2,0 14.5,0 21.9,0 0,79.4 0,158.3 0,237.7 -1.8,0 -3.4,0 -5,0 -12.1,0 -24.2,-0.1 -36.3,0 -7.9,0 -11.1,3.2 -11.1,11 -0.1,22.3 -0.1,44.7 0,67 0,8 3.9,12.1 11.8,12.1 55,0 110.1,0 165.1,0 8.7,0 12.8,-4.3 12.8,-13 0,-21.7 0,-43.3 0,-65 -0.1,-8.8 -3.3,-12 -12.3,-12.2 z"
   id="path453" />
	</g>
	<path fill="#FAEBDC" 
   class="st0"
   d="m 2660.1,259.7 c -105.4,0 -190.8,85.4 -190.8,190.8 0,105.4 85.4,190.8 190.8,190.8 105.4,0 190.8,-85.4 190.8,-190.8 0.1,-105.4 -85.4,-190.8 -190.8,-190.8 z m 99.6,224 h -66.4 v 66.4 h -66.4 v -66.4 h -66.4 v -66.4 h 66.4 V 351 h 66.4 v 66.4 h 66.4 z"
   id="path457" />
</g></svg>
