<svg width="514" height="514" viewBox="0 0 514 514" fill="none" xmlns="http://www.w3.org/2000/svg">
  <path d="M290.401 57.1C284.301 57.1 279.301 62.1 279.301 68.2V101.5H445.901C452.001 101.5 457.001 96.5 457.001 90.4V57.1H290.401Z" fill="#FAEBDC"/>
  <path d="M456.9 179.3V157C456.9 150.9 451.9 145.9 445.8 145.9H279.2V101.5H245.9C239.8 101.5 234.8 106.5 234.8 112.6V234.8H190.4V68.2C190.4 62.1 185.4 57.1 179.3 57.1H157C150.9 57.1 145.9 62.1 145.9 68.2V234.8H101.4V68.2C101.4 62.1 96.4 57.1 90.3 57.1H57V223.7C57 229.8 62 234.8 68.1 234.8H101.4V271.7V279.2H223.6C229.7 279.2 234.7 274.2 234.7 268.1V242.3V234.8H279.1V190.4H445.7C452 190.4 456.9 185.4 456.9 179.3Z" fill="#FAEBDC"/>
  <path d="M223.6 323.6H101.4V279.2H68.1C62 279.2 57 284.2 57 290.3V412.5V456.9H234.7V423.6C234.7 417.5 229.7 412.5 223.6 412.5H101.4V368.1H223.6C229.7 368.1 234.7 363.1 234.7 357V334.8C234.7 328.6 229.8 323.6 223.6 323.6Z" fill="#FAEBDC"/>
  <path d="M445.901 234.8H279.301V268.1C279.301 274.2 284.301 279.2 290.401 279.2H412.601V323.6H445.901C452.001 323.6 457.001 318.6 457.001 312.5V279.2V245.9C457.001 239.8 452.001 234.8 445.901 234.8Z" fill="#FAEBDC"/>
  <path d="M445.901 412.5H323.701V368.1H290.401C284.301 368.1 279.301 373.1 279.301 379.2V412.5V445.8C279.301 451.9 284.301 456.9 290.401 456.9H457.001V423.6C457.001 417.5 452.001 412.5 445.901 412.5Z" fill="#FAEBDC"/>
  <path d="M412.599 357V323.7H334.799C328.699 323.7 323.699 328.7 323.699 334.8V368.1H401.499C407.599 368.1 412.599 363.1 412.599 357Z" fill="#FAEBDC"/>
  </svg>
  