<svg width="599" height="599" viewBox="0 0 599 599" fill="none" xmlns="http://www.w3.org/2000/svg">
  <path d="M347.31 212.68C333.51 212.68 322.33 223.86 322.33 237.66V313.03C322.33 326.02 311.76 336.59 298.77 336.59C285.78 336.59 275.21 326.02 275.21 313.03V237.66C275.21 223.86 264.03 212.68 250.23 212.68C236.43 212.68 225.25 223.86 225.25 237.66V313.03C225.25 353.57 258.23 386.55 298.77 386.55C339.31 386.55 372.29 353.57 372.29 313.03V237.66C372.29 223.86 361.11 212.68 347.31 212.68Z" fill="#FAEBDC"/>
  <path d="M188.06 212.68C174.26 212.68 163.08 223.86 163.08 237.66V252.56V313.02C163.08 326.01 152.51 336.58 139.52 336.58C126.53 336.58 115.96 326.01 115.96 313.02V237.65C115.96 223.85 104.78 212.67 90.98 212.67C77.18 212.67 66 223.85 66 237.65V313.02C66 353.56 98.98 386.54 139.52 386.54C147.76 386.54 155.68 385.16 163.08 382.64V432.24C163.08 446.03 174.26 457.22 188.06 457.22C201.86 457.22 213.04 446.04 213.04 432.24V313.02V252.56V237.66C213.04 223.86 201.86 212.68 188.06 212.68Z" fill="#FAEBDC"/>
  <path d="M458.02 212.68C449.78 212.68 441.86 214.06 434.46 216.58V166.98C434.46 153.18 423.28 142 409.48 142C395.68 142 384.5 153.18 384.5 166.98V286.2V346.66V361.56C384.5 375.35 395.68 386.54 409.48 386.54C423.27 386.54 434.46 375.36 434.46 361.56V346.66V286.2C434.46 273.21 445.03 262.64 458.02 262.64C471.01 262.64 481.58 273.21 481.58 286.2V361.57C481.58 375.36 492.76 386.55 506.56 386.55C520.35 386.55 531.54 375.37 531.54 361.57V286.2C531.54 245.66 498.56 212.68 458.02 212.68Z" fill="#FAEBDC"/>
  </svg>
  