<svg width="2320" height="2320" viewBox="0 0 2320 2320" fill="none" xmlns="http://www.w3.org/2000/svg">
  <path d="M1317.86 632.875C1273 632.875 1236.63 669.243 1236.63 714.103V959.213C1236.63 1001.46 1202.25 1035.84 1159.99 1035.84C1117.74 1035.84 1083.37 1001.46 1083.37 959.206L1083.37 714.103C1083.37 669.243 1047 632.875 1002.14 632.868C957.265 632.868 920.905 669.243 920.905 714.103L920.904 959.206C920.904 1091.04 1028.15 1198.29 1159.99 1198.3C1291.83 1198.3 1399.09 1091.05 1399.09 959.213V714.103C1399.09 669.243 1362.72 632.875 1317.86 632.875Z" fill="#FAEBDC"/>
  <path d="M799.957 632.868C755.096 632.868 718.726 669.235 718.726 714.095L718.725 762.567V959.206C718.725 1001.45 684.342 1035.83 642.087 1035.83C599.832 1035.83 565.462 1001.45 565.462 959.206L565.462 714.095C565.462 669.235 529.093 632.868 484.232 632.868C439.36 632.868 403.001 669.235 403.001 714.095L403 959.206C403 1091.04 510.248 1198.29 642.087 1198.29C668.893 1198.29 694.648 1193.8 718.724 1185.63L718.723 1346.94C718.723 1391.8 755.094 1428.17 799.954 1428.17C844.814 1428.17 881.185 1391.8 881.185 1346.94L881.187 959.206L881.187 762.567V714.095C881.187 669.243 844.817 632.868 799.957 632.868Z" fill="#FAEBDC"/>
  <path d="M1677.9 632.876C1651.1 632.876 1625.35 637.378 1601.28 645.547V484.243C1601.28 439.368 1564.91 403 1520.03 403C1475.17 403 1438.8 439.368 1438.8 484.243V871.969V1068.61V1117.07C1438.8 1161.94 1475.17 1198.31 1520.03 1198.31C1564.9 1198.31 1601.28 1161.94 1601.28 1117.07V1068.61V871.969C1601.28 829.719 1635.65 795.339 1677.9 795.339C1720.16 795.339 1754.53 829.719 1754.53 871.977V1117.07C1754.53 1161.94 1790.9 1198.32 1835.76 1198.32C1880.63 1198.32 1917 1161.95 1917 1117.07V871.977C1917 740.141 1809.74 632.876 1677.9 632.876Z" fill="#FAEBDC"/>
  <path d="M932.66 1410.24V1314.03C932.66 1304.95 940.001 1297.22 949.274 1297.22C958.547 1297.22 965.888 1304.95 965.888 1314.03V1398.84H1004.72C1012.64 1398.84 1019.21 1405.21 1019.21 1413.33C1019.21 1421.44 1012.64 1427.82 1004.72 1427.82H950.241C938.842 1427.82 932.66 1421.64 932.66 1410.24Z" fill="#FAEBDC"/>
  <path d="M1084.51 1403.86V1395.55C1081.42 1391.31 1074.46 1388.98 1067.89 1388.98C1059.97 1388.98 1053.02 1392.46 1053.02 1399.8C1053.02 1407.14 1059.97 1410.62 1067.89 1410.62C1074.46 1410.62 1081.42 1408.3 1084.51 1403.86ZM1114.26 1369.48V1413.91C1114.26 1422.41 1107.88 1429.56 1099.38 1429.56C1092.43 1429.56 1086.25 1424.92 1084.32 1418.55C1078.71 1425.5 1067.51 1430.14 1055.53 1430.14C1041.23 1430.14 1023.46 1420.48 1023.46 1399.42C1023.46 1376.82 1041.23 1370.06 1055.53 1370.06C1067.89 1370.06 1078.91 1373.92 1084.51 1380.87V1369.09C1084.51 1360.98 1077.55 1355.57 1065.58 1355.57C1059.2 1355.57 1052.83 1357.11 1046.45 1360.59C1044.91 1361.36 1043.17 1361.94 1041.43 1361.94C1035.44 1361.94 1030.42 1356.92 1030.42 1350.93C1030.42 1346.88 1032.93 1343.01 1036.21 1341.27C1047.42 1334.9 1059.59 1332.19 1070.79 1332.19C1093.2 1332.19 1114.26 1340.5 1114.26 1369.48Z" fill="#FAEBDC"/>
  <path d="M1226.89 1416.62C1226.89 1422.6 1222.83 1427.24 1217.42 1428.59C1214.14 1429.56 1209.89 1430.14 1205.25 1430.14C1186.32 1430.14 1176.08 1420.67 1176.08 1402.71V1360.4H1171.83C1164.68 1360.4 1158.89 1354.41 1158.89 1347.45C1158.89 1340.31 1164.68 1334.51 1171.83 1334.51H1176.08V1322.15C1176.08 1314.03 1182.65 1307.27 1190.96 1307.27C1199.07 1307.27 1205.64 1314.03 1205.64 1322.15V1334.51H1213.37C1220.51 1334.51 1226.31 1340.31 1226.31 1347.45C1226.31 1354.41 1220.51 1360.4 1213.37 1360.4H1205.64V1394.39C1205.64 1399.61 1208.53 1403.67 1213.37 1403.86H1216.26C1222.64 1404.25 1226.89 1410.05 1226.89 1416.62Z" fill="#FAEBDC"/>
  <path d="M1324.45 1347.65V1414.68C1324.45 1422.99 1318.07 1429.94 1309.57 1429.94C1301.84 1429.94 1295.47 1424.34 1294.5 1417C1288.71 1423.37 1278.08 1430.14 1262.43 1430.14C1241.18 1430.14 1231.72 1418.16 1231.72 1400.97V1347.65C1231.72 1339.54 1238.48 1332.77 1246.59 1332.77C1254.9 1332.77 1261.47 1339.54 1261.47 1347.65V1388.8C1261.47 1400 1267.27 1403.86 1276.93 1403.86C1285.43 1403.86 1291.22 1399.23 1294.7 1394.79V1347.65C1294.7 1339.54 1301.46 1332.77 1309.57 1332.77C1317.88 1332.77 1324.45 1339.54 1324.45 1347.65Z" fill="#FAEBDC"/>
  <path d="M1393.42 1403.86V1395.55C1390.32 1391.31 1383.37 1388.98 1376.8 1388.98C1368.88 1388.98 1361.93 1392.46 1361.93 1399.8C1361.93 1407.14 1368.88 1410.62 1376.8 1410.62C1383.37 1410.62 1390.32 1408.3 1393.42 1403.86ZM1423.17 1369.48V1413.91C1423.17 1422.41 1416.8 1429.56 1408.3 1429.56C1401.34 1429.56 1395.16 1424.92 1393.23 1418.55C1387.62 1425.5 1376.42 1430.14 1364.44 1430.14C1350.14 1430.14 1332.37 1420.48 1332.37 1399.42C1332.37 1376.82 1350.14 1370.06 1364.44 1370.06C1376.8 1370.06 1387.82 1373.92 1393.42 1380.87V1369.09C1393.42 1360.98 1386.46 1355.57 1374.48 1355.57C1368.11 1355.57 1361.73 1357.11 1355.36 1360.59C1353.82 1361.36 1352.07 1361.94 1350.34 1361.94C1344.35 1361.94 1339.32 1356.92 1339.32 1350.93C1339.32 1346.88 1341.84 1343.01 1345.12 1341.27C1356.32 1334.9 1368.5 1332.19 1379.7 1332.19C1402.11 1332.19 1423.17 1340.5 1423.17 1369.48Z" fill="#FAEBDC"/>
  <path d="M1533.86 1403.86V1395.55C1530.77 1391.31 1523.83 1388.98 1517.26 1388.98C1509.33 1388.98 1502.38 1392.46 1502.38 1399.8C1502.38 1407.14 1509.33 1410.62 1517.26 1410.62C1523.83 1410.62 1530.77 1408.3 1533.86 1403.86ZM1563.61 1369.48V1413.91C1563.61 1422.41 1557.24 1429.56 1548.74 1429.56C1541.79 1429.56 1535.61 1424.92 1533.67 1418.55C1528.08 1425.5 1516.87 1430.14 1504.89 1430.14C1490.6 1430.14 1472.82 1420.48 1472.82 1399.42C1472.82 1376.82 1490.6 1370.06 1504.89 1370.06C1517.26 1370.06 1528.26 1373.92 1533.86 1380.87V1369.09C1533.86 1360.98 1526.92 1355.57 1514.94 1355.57C1508.56 1355.57 1502.19 1357.11 1495.81 1360.59C1494.26 1361.36 1492.53 1361.94 1490.79 1361.94C1484.8 1361.94 1479.78 1356.92 1479.78 1350.93C1479.78 1346.88 1482.28 1343.01 1485.57 1341.27C1496.78 1334.9 1508.95 1332.19 1520.15 1332.19C1542.56 1332.19 1563.61 1340.5 1563.61 1369.48Z" fill="#FAEBDC"/>
  <path d="M1645.53 1381.07C1645.53 1367.16 1636.64 1358.47 1625.05 1358.47C1618.68 1358.47 1610.95 1361.94 1607.28 1366.97V1395.36C1610.95 1400.19 1618.68 1403.86 1625.05 1403.86C1636.64 1403.86 1645.53 1395.17 1645.53 1381.07ZM1675.86 1381.07C1675.86 1412.75 1658.28 1430.14 1634.91 1430.14C1624.48 1430.14 1615 1426.27 1607.28 1417V1450.23C1607.28 1458.34 1600.71 1465.1 1592.41 1465.1C1584.29 1465.1 1577.53 1458.34 1577.53 1450.23V1347.65C1577.53 1339.15 1583.9 1332.19 1592.41 1332.19C1599.75 1332.19 1606.31 1337.79 1607.66 1344.94C1615 1336.06 1624.48 1332.19 1634.91 1332.19C1658.28 1332.19 1675.86 1349.58 1675.86 1381.07Z" fill="#FAEBDC"/>
  <path d="M1751.79 1381.07C1751.79 1367.16 1742.9 1358.47 1731.31 1358.47C1724.94 1358.47 1717.21 1361.94 1713.53 1366.97V1395.36C1717.21 1400.19 1724.94 1403.86 1731.31 1403.86C1742.9 1403.86 1751.79 1395.17 1751.79 1381.07ZM1782.12 1381.07C1782.12 1412.75 1764.54 1430.14 1741.16 1430.14C1730.73 1430.14 1721.26 1426.27 1713.53 1417V1450.23C1713.53 1458.34 1706.96 1465.1 1698.66 1465.1C1690.55 1465.1 1683.78 1458.34 1683.78 1450.23V1347.65C1683.78 1339.15 1690.16 1332.19 1698.66 1332.19C1706 1332.19 1712.57 1337.79 1713.92 1344.94C1721.26 1336.06 1730.73 1332.19 1741.16 1332.19C1764.54 1332.19 1782.12 1349.58 1782.12 1381.07Z" fill="#FAEBDC"/>
  <path d="M1804.72 1393.82C1814.58 1393.82 1822.88 1402.12 1822.88 1411.98C1822.88 1421.83 1814.58 1430.14 1804.72 1430.14C1794.87 1430.14 1786.56 1421.83 1786.56 1411.98C1786.56 1402.12 1794.87 1393.82 1804.72 1393.82Z" fill="#FAEBDC"/>
  <path d="M932.66 1605.94V1507.23C932.66 1498.14 940.001 1490.41 949.274 1490.41C958.547 1490.41 965.888 1498.14 965.888 1507.23V1605.94C965.888 1615.02 958.547 1622.75 949.274 1622.75C940.001 1622.75 932.66 1615.02 932.66 1605.94Z" fill="#FAEBDC"/>
  <path d="M1079.29 1609.81C1079.29 1615.79 1075.23 1620.43 1069.82 1621.79C1066.54 1622.75 1062.29 1623.33 1057.65 1623.33C1038.72 1623.33 1028.48 1613.86 1028.48 1595.9V1553.59H1024.23C1017.08 1553.59 1011.29 1547.6 1011.29 1540.64C1011.29 1533.5 1017.08 1527.7 1024.23 1527.7H1028.48V1515.34C1028.48 1507.23 1035.05 1500.46 1043.36 1500.46C1051.47 1500.46 1058.04 1507.23 1058.04 1515.34V1527.7H1065.77C1072.92 1527.7 1078.71 1533.5 1078.71 1540.64C1078.71 1547.6 1072.92 1553.59 1065.77 1553.59H1058.04V1587.59C1058.04 1592.81 1060.94 1596.86 1065.77 1597.06H1068.67C1075.04 1597.44 1079.29 1603.24 1079.29 1609.81Z" fill="#FAEBDC"/>
  <path d="M1176.85 1540.84V1607.88C1176.85 1616.18 1170.47 1623.13 1161.97 1623.13C1154.25 1623.13 1147.87 1617.54 1146.91 1610.19C1141.11 1616.57 1130.48 1623.33 1114.84 1623.33C1093.59 1623.33 1084.12 1611.35 1084.12 1594.16V1540.84C1084.12 1532.73 1090.88 1525.96 1099 1525.96C1107.3 1525.96 1113.87 1532.73 1113.87 1540.84V1581.99C1113.87 1593.19 1119.67 1597.06 1129.33 1597.06C1137.83 1597.06 1143.62 1592.42 1147.1 1587.97V1540.84C1147.1 1532.73 1153.86 1525.96 1161.97 1525.96C1170.28 1525.96 1176.85 1532.73 1176.85 1540.84Z" fill="#FAEBDC"/>
  <path d="M1255.86 1574.26C1255.86 1561.9 1248.52 1551.66 1235.38 1551.66C1222.44 1551.66 1215.29 1561.9 1215.29 1574.26C1215.29 1586.81 1222.44 1597.06 1235.38 1597.06C1248.52 1597.06 1255.86 1586.81 1255.86 1574.26ZM1184.58 1574.26C1184.58 1547.99 1203.7 1525.39 1235.38 1525.39C1267.45 1525.39 1286.39 1547.99 1286.39 1574.26C1286.39 1600.53 1267.45 1623.33 1235.38 1623.33C1203.7 1623.33 1184.58 1600.53 1184.58 1574.26Z" fill="#FAEBDC"/>
  <path d="M1294.31 1607.88V1540.84C1294.31 1532.73 1301.07 1525.96 1309.18 1525.96C1317.5 1525.96 1324.06 1532.73 1324.06 1540.84V1607.88C1324.06 1615.99 1317.5 1622.75 1309.18 1622.75C1301.07 1622.75 1294.31 1615.99 1294.31 1607.88ZM1292.18 1498.53C1292.18 1489.07 1299.72 1481.53 1309.18 1481.53C1318.65 1481.53 1326.19 1489.07 1326.19 1498.53C1326.19 1508 1318.65 1515.73 1309.18 1515.73C1299.72 1515.73 1292.18 1508 1292.18 1498.53Z" fill="#FAEBDC"/>
  <path d="M1374.48 1604.4C1374.48 1597.63 1379.89 1592.42 1386.46 1592.42C1388.39 1592.42 1390.32 1593 1391.87 1593.77C1399.98 1597.83 1409.26 1600.92 1416.98 1600.92C1425.87 1600.92 1429.54 1598.02 1429.54 1593.97C1429.54 1589.13 1423.17 1587.4 1413.51 1585.85C1397.67 1583.15 1375.26 1579.87 1375.26 1556.1C1375.26 1539.68 1389.35 1525.39 1415.24 1525.39C1426.64 1525.39 1436.69 1528.09 1445.58 1532.73C1449.05 1534.46 1451.76 1538.14 1451.76 1542.58C1451.76 1548.76 1446.74 1553.78 1440.74 1553.78C1438.81 1553.78 1437.08 1553.21 1435.53 1552.43C1429.74 1549.34 1422.58 1547.21 1415.44 1547.21C1408.48 1547.21 1403.65 1549.53 1403.65 1553.59C1403.65 1557.84 1408.67 1559.39 1418.53 1561.12C1434.37 1563.83 1457.94 1567.69 1457.94 1592.42C1457.94 1610.19 1442.29 1623.33 1415.44 1623.33C1403.46 1623.33 1391.1 1620.43 1381.05 1615.02C1377.38 1613.09 1374.48 1609.04 1374.48 1604.4Z" fill="#FAEBDC"/>
  <path d="M1534.45 1574.26C1534.45 1561.9 1527.11 1551.66 1513.97 1551.66C1501.02 1551.66 1493.88 1561.9 1493.88 1574.26C1493.88 1586.81 1501.02 1597.06 1513.97 1597.06C1527.11 1597.06 1534.45 1586.81 1534.45 1574.26ZM1463.15 1574.26C1463.15 1547.99 1482.28 1525.39 1513.97 1525.39C1546.04 1525.39 1564.97 1547.99 1564.97 1574.26C1564.97 1600.53 1546.04 1623.33 1513.97 1623.33C1482.28 1623.33 1463.15 1600.53 1463.15 1574.26Z" fill="#FAEBDC"/>
  <path d="M1576.75 1607.88V1505.29C1576.75 1497.18 1583.51 1490.41 1591.62 1490.41C1599.94 1490.41 1606.5 1497.18 1606.5 1505.29V1607.88C1606.5 1615.99 1599.94 1622.75 1591.62 1622.75C1583.51 1622.75 1576.75 1615.99 1576.75 1607.88Z" fill="#FAEBDC"/>
  <path d="M1683.2 1588.56V1559.96C1679.33 1554.94 1671.6 1551.66 1665.23 1551.66C1653.44 1551.66 1644.75 1560.35 1644.75 1574.26C1644.75 1588.17 1653.44 1597.06 1665.23 1597.06C1671.6 1597.06 1679.33 1593.58 1683.2 1588.56ZM1712.76 1505.29V1607.88C1712.76 1616.18 1706.38 1623.33 1697.88 1623.33C1690.54 1623.33 1684.17 1617.72 1682.81 1610.58C1675.08 1619.47 1665.62 1623.33 1655.57 1623.33C1632.58 1623.33 1614.23 1605.94 1614.23 1574.26C1614.23 1543.74 1632.19 1525.39 1655.57 1525.39C1665.81 1525.39 1675.67 1529.25 1683.2 1538.71V1505.29C1683.2 1497.18 1689.76 1490.41 1697.88 1490.41C1706.19 1490.41 1712.76 1497.18 1712.76 1505.29Z" fill="#FAEBDC"/>
  <path d="M1730.72 1607.88V1540.84C1730.72 1532.73 1737.48 1525.96 1745.59 1525.96C1753.91 1525.96 1760.47 1532.73 1760.47 1540.84V1607.88C1760.47 1615.99 1753.91 1622.75 1745.59 1622.75C1737.48 1622.75 1730.72 1615.99 1730.72 1607.88ZM1728.59 1498.53C1728.59 1489.07 1736.13 1481.53 1745.59 1481.53C1755.07 1481.53 1762.6 1489.07 1762.6 1498.53C1762.6 1508 1755.07 1515.73 1745.59 1515.73C1736.13 1515.73 1728.59 1508 1728.59 1498.53Z" fill="#FAEBDC"/>
  <path d="M1789.45 1587.01C1799.3 1587.01 1807.61 1595.31 1807.61 1605.17C1807.61 1615.02 1799.3 1623.33 1789.45 1623.33C1779.6 1623.33 1771.29 1615.02 1771.29 1605.17C1771.29 1595.31 1779.6 1587.01 1789.45 1587.01Z" fill="#FAEBDC"/>
  <path d="M991.13 1878.82H403.404L403 1880.74H990.726L991.13 1878.82ZM702.578 1793.85C708.079 1793.85 712.026 1789.91 712.368 1784.84C712.71 1779.78 708.98 1775.86 704.039 1775.86C698.538 1775.86 694.591 1779.78 694.249 1784.84C693.907 1789.91 697.637 1793.85 702.578 1793.85ZM955.243 1856.07C951.638 1854.82 948.562 1852.9 946.137 1850.42H930.691L929.666 1854.95C928.64 1855.38 927.428 1855.76 926.123 1856.07H955.243ZM437.786 1856.07H498.98C495.53 1854.8 492.639 1852.87 490.371 1850.42H438.998L437.786 1856.07ZM546.965 1856.07C544.852 1855.73 542.831 1855.3 540.967 1854.85L541.93 1850.42H529.592C526.702 1852.87 523.376 1854.8 519.616 1856.07H546.965ZM602.41 1856.07C598.742 1855.01 595.883 1853.12 594.018 1850.42H579.846C577.018 1853.18 573.133 1855.04 568.534 1856.07H602.41ZM622.206 1850.42L621.087 1855.41C620.341 1855.67 619.534 1855.88 618.694 1856.07H630.1L631.312 1850.42H622.206ZM647.752 1850.42L646.54 1856.07H679.95L681.194 1850.42H647.752ZM697.168 1850.42L695.955 1856.07H706.958L708.2 1850.42H697.168ZM724.703 1848.48H745.028L750.187 1824.24C751.648 1817.81 750.747 1812.19 743.195 1812.19C737.352 1812.19 731.727 1816.14 729.24 1827.6L724.703 1848.48ZM744.625 1850.42H724.299L723.056 1856.07H743.443L744.625 1850.42ZM760.754 1850.42L759.511 1856.07H779.961C776.946 1854.89 774.46 1852.96 772.782 1850.42H760.754ZM803.922 1850.42C801.715 1852.93 798.825 1854.89 795.5 1856.07H802.866L804.047 1850.42H803.922ZM818.374 1850.42L817.13 1856.07H827.262L828.506 1850.42H818.374ZM845.008 1848.48H865.334L870.492 1824.24C871.953 1817.81 871.051 1812.19 863.5 1812.19C857.657 1812.19 852.032 1816.14 849.546 1827.6L845.008 1848.48ZM864.929 1850.42H844.604L843.36 1856.07H863.717L864.929 1850.42ZM881.059 1850.42L879.816 1856.07H909.061C905.02 1855.01 901.54 1853.15 898.867 1850.42H881.059ZM445.525 1819.18H452.3C462.866 1819.18 468.616 1813.55 468.616 1804.45C468.616 1797.33 465.011 1794.32 457.583 1794.32H450.839L445.525 1819.18ZM501.466 1828.19C499.104 1839.79 504.17 1844.82 510.603 1844.82C517.005 1844.82 522.506 1839.66 524.868 1828.19C527.355 1816.7 522.289 1811.53 515.886 1811.53C509.453 1811.53 503.828 1816.6 501.466 1828.19ZM798.67 1831.21C790.465 1831.21 785.524 1834.38 785.524 1840C785.524 1843.82 787.886 1846.06 792.485 1846.06C798.919 1846.06 804.295 1841.56 806.222 1834.94L806.906 1831.77C803.736 1831.33 800.255 1831.21 798.67 1831.21ZM970.876 1810.63C964.101 1810.63 959.035 1815.58 956.673 1823.12H979.547C979.64 1822.1 979.765 1821.2 979.765 1820.17C979.765 1814.24 976.159 1810.63 970.876 1810.63ZM982.22 1855.41C981.505 1855.64 980.728 1855.86 979.92 1856.07H995.956L995.552 1857.99H407.795L408.199 1856.07H421.563L422.775 1850.42H409.443L409.846 1848.48H423.179L437.569 1780.46H458.484C475.236 1780.46 485.056 1789.47 485.056 1803.3C485.056 1821.89 472.439 1833.01 449.813 1833.01H442.728L439.402 1848.48H488.817C485.026 1843.23 483.596 1836.18 484.933 1828.19C487.636 1811.41 499.57 1798.58 517.223 1798.58C534.906 1798.58 544.23 1811.41 541.432 1828.19C540.127 1836.18 536.74 1843.23 531.643 1848.48H542.334L543.67 1842.24C547.151 1843.36 553.678 1844.94 559.552 1844.94C564.151 1844.94 569.684 1844.17 569.684 1839.66C569.684 1831.89 548.737 1834.72 548.737 1817.72C548.737 1806.12 558.184 1799.14 573.817 1799.14C579.006 1799.14 584.756 1799.94 589.604 1801.28L586.901 1813.99C584.539 1813.34 577.422 1811.29 572.356 1811.29C567.073 1811.29 563.716 1812.53 563.716 1816.04C563.716 1823.78 584.632 1820.77 584.632 1838.2C584.632 1842.36 583.513 1845.79 581.524 1848.48H592.93C591.438 1845.23 591.096 1841.12 592.184 1836.18L602.626 1788.44L619.409 1784.75L616.021 1800.29H633.239L630.659 1812.53H613.349L608.034 1837.3C606.915 1842.92 610.179 1844.51 614.809 1844.51C617.731 1844.51 621.087 1843.82 623.791 1843.14L622.61 1848.48H631.716L646.074 1780.46H688.279L685.14 1794.75H659.594L655.864 1812.65H680.075L677.153 1826.95H652.819L648.188 1848.48H681.597L692.008 1800.29H707.983L697.572 1848.48H708.604L719.016 1800.29H733.964L732.504 1806.9C737.911 1801.16 744.22 1798.58 750.747 1798.58C762.557 1798.58 770.109 1807.12 766.597 1823.44L761.158 1848.48H771.724C770.885 1846.62 770.451 1844.51 770.451 1842.14C770.451 1827.51 783.255 1821.33 799.26 1821.33C801.063 1821.33 804.886 1821.63 808.926 1822.1L809.143 1820.98C809.361 1820.08 809.361 1819.18 809.361 1818.37C809.361 1813.99 806.347 1811.41 797.893 1811.41C791.584 1811.41 784.498 1813.34 780.893 1814.33L783.597 1801.4C786.083 1800.6 793.604 1798.92 801.063 1798.92C819.617 1798.92 824.901 1807.37 824.901 1816.91C824.901 1819.31 824.683 1821.76 824.123 1824.12L818.809 1848.48H828.909L839.321 1800.29H854.269L852.809 1806.9C858.216 1801.16 864.526 1798.58 871.051 1798.58C882.861 1798.58 890.413 1807.12 886.902 1823.44L881.463 1848.48H897.188C894.237 1844.57 892.527 1839.29 892.527 1832.57C892.527 1812.31 907.631 1799.14 925.284 1799.14C930.474 1799.14 935.633 1800.29 940.046 1801.84L937.343 1814.67C933.52 1813.21 929.666 1812.19 926.309 1812.19C915.618 1812.19 908.843 1821.07 908.843 1831.77C908.843 1840.91 913.816 1844.04 921.119 1844.04C925.501 1844.04 929.231 1843.05 932.587 1841.8L931.126 1848.48H944.491C941.476 1844.51 939.797 1839.35 939.797 1833.13C939.797 1815.02 951.95 1798.58 971.995 1798.58C987.409 1798.58 994.62 1808.71 994.62 1821.07C994.62 1825.15 993.812 1829.53 992.476 1833.91H955.336C955.679 1842.59 961.988 1845.07 969.167 1845.07C975.351 1845.07 980.2 1843.7 985.141 1842.03L983.743 1848.48H997.541L997.138 1850.42H983.307L982.22 1855.41ZM406.667 1863.66L406.232 1865.59H993.896L994.331 1863.66H406.667ZM405.017 1871.24L404.582 1873.17H992.339L992.743 1871.24H405.017ZM1098.5 1800.18C1098.5 1800.39 1088.83 1846.54 1088.83 1846.64H1052.04C1052.04 1846.64 1044.7 1880.64 1044.7 1880.73H1003.74C1003.87 1880.64 1006.35 1868.58 1006.35 1868.49H1034.14C1034.14 1868.49 1041.56 1834.73 1041.56 1834.49H1078.36L1083.21 1812.2H1046.2C1046.41 1811.98 1054.06 1775.87 1054.06 1775.87H1029.75C1029.75 1775.87 1021.98 1811.86 1021.86 1811.86H1009.06C1009.06 1811.64 1019.41 1763.94 1019.41 1763.72H1069.47C1069.38 1764.06 1061.49 1800.18 1061.49 1800.18H1098.5Z" fill="#FAEBDC"/>
  <path d="M1478.45 1793.05H1493.62V1778.38H1478.45V1793.05ZM1346.36 1791.15C1347.63 1790.22 1349.09 1789.5 1350.74 1789.04C1352.42 1788.57 1354.1 1788.35 1355.78 1788.35C1360.13 1788.35 1363.89 1789.22 1367.12 1790.96C1370.35 1792.7 1373.18 1794.66 1375.67 1796.87H1376.16L1381.88 1784.78C1380.89 1783.85 1379.52 1782.73 1377.81 1781.48C1376.13 1780.18 1374.11 1779 1371.84 1777.91C1369.55 1776.79 1366.97 1775.86 1364.07 1775.11C1361.19 1774.34 1357.99 1773.96 1354.5 1773.96C1350.77 1773.96 1347.23 1774.58 1343.87 1775.8C1340.52 1777.03 1337.56 1778.78 1334.95 1781.02C1332.38 1783.29 1330.32 1786.02 1328.77 1789.25C1327.25 1792.45 1326.5 1796.06 1326.5 1800.07C1326.5 1805.66 1327.78 1810.2 1330.32 1813.68C1332.87 1817.16 1335.92 1819.92 1339.5 1821.98C1342.38 1823.65 1345.39 1825.15 1348.54 1826.36C1351.68 1827.6 1354.56 1828.9 1357.17 1830.24C1359.82 1831.61 1361.99 1833.16 1363.67 1834.9C1365.38 1836.65 1366.22 1838.89 1366.22 1841.59C1366.22 1843.36 1365.85 1844.97 1365.07 1846.37C1364.33 1847.77 1363.33 1848.93 1362.09 1849.79C1360.87 1850.69 1359.45 1851.38 1357.89 1851.84C1356.31 1852.31 1354.75 1852.53 1353.23 1852.53C1348.41 1852.53 1344.19 1851.6 1340.58 1849.73C1336.94 1847.87 1333.93 1845.76 1331.44 1843.36H1330.95L1325.23 1855.48C1326.22 1856.57 1327.62 1857.81 1329.43 1859.18C1331.19 1860.52 1333.34 1861.79 1335.8 1862.91C1338.25 1864.06 1341.02 1865.02 1344.12 1865.8C1347.23 1866.54 1350.62 1866.95 1354.26 1866.95C1357.92 1866.95 1361.4 1866.33 1364.7 1865.08C1368.03 1863.87 1370.94 1862.13 1373.49 1859.86C1376.04 1857.62 1378.09 1854.89 1379.62 1851.65C1381.14 1848.43 1381.88 1844.82 1381.88 1840.81C1381.88 1835.22 1380.61 1830.68 1378.09 1827.2C1375.54 1823.72 1372.46 1820.95 1368.89 1818.9C1366 1817.31 1362.99 1815.85 1359.85 1814.58C1356.71 1813.31 1353.82 1812 1351.21 1810.7C1348.56 1809.39 1346.4 1807.87 1344.72 1806.12C1343 1804.39 1342.17 1802.15 1342.17 1799.41C1342.17 1797.55 1342.54 1795.94 1343.31 1794.59C1344.06 1793.23 1345.09 1792.08 1346.36 1791.15ZM1478.7 1865.03H1493.37V1803.89H1478.7V1865.03ZM1594.94 1833.69C1593.04 1832.26 1590.92 1831.05 1588.63 1830.12C1586.33 1829.18 1584.12 1828.38 1582 1827.69C1579.36 1826.85 1577.15 1825.95 1575.32 1824.96C1573.49 1823.99 1572.59 1822.53 1572.59 1820.58C1572.59 1818.61 1573.36 1817.12 1574.91 1816.1C1576.5 1815.1 1578.74 1814.58 1581.63 1814.58C1583.99 1814.58 1586.48 1815.1 1589.06 1816.16C1591.67 1817.25 1594.06 1818.61 1596.27 1820.32H1596.77L1600.87 1809.23C1597.89 1806.87 1594.62 1805.07 1591.11 1803.82C1587.59 1802.58 1584.05 1801.96 1580.48 1801.96C1577.15 1801.96 1574.14 1802.46 1571.44 1803.45C1568.7 1804.41 1566.37 1805.75 1564.41 1807.46C1562.46 1809.14 1560.93 1811.22 1559.85 1813.71C1558.73 1816.16 1558.2 1818.83 1558.2 1821.73C1558.2 1824.96 1558.79 1827.63 1560.03 1829.8C1561.27 1831.98 1562.83 1833.79 1564.76 1835.21C1566.65 1836.67 1568.76 1837.85 1571.07 1838.78C1573.33 1839.72 1575.54 1840.53 1577.68 1841.21C1580.29 1842.05 1582.53 1842.98 1584.37 1843.95C1586.17 1844.91 1587.1 1846.4 1587.1 1848.33C1587.1 1850.29 1586.33 1851.78 1584.8 1852.8C1583.28 1853.83 1581.23 1854.33 1578.68 1854.33C1575.29 1854.33 1572.15 1853.61 1569.26 1852.21C1566.37 1850.82 1563.8 1849.11 1561.49 1847.06H1561L1556.92 1858.02C1559.88 1860.82 1563.35 1863 1567.37 1864.59C1571.34 1866.14 1575.51 1866.94 1579.83 1866.94C1582.97 1866.94 1585.86 1866.45 1588.5 1865.48C1591.14 1864.49 1593.41 1863.15 1595.31 1861.45C1597.23 1859.77 1598.72 1857.72 1599.84 1855.29C1600.93 1852.87 1601.49 1850.16 1601.49 1847.18C1601.49 1844.04 1600.87 1841.37 1599.66 1839.16C1598.41 1836.96 1596.83 1835.15 1594.94 1833.69ZM1445.2 1840.31H1444.7L1431.43 1803.88H1421.24L1408.65 1839.94H1408.12L1399.2 1814.08H1384.2L1402.29 1865.02H1412.48L1425.97 1826.55H1426.5L1440.48 1865.02H1450.43L1472.21 1803.88H1457.94L1445.2 1840.31ZM1655.5 1807.58H1655C1652.79 1805.87 1650.37 1804.53 1647.73 1803.51C1645.09 1802.48 1642.38 1801.98 1639.58 1801.98C1635.08 1801.98 1630.97 1802.88 1627.27 1804.72C1623.58 1806.55 1620.44 1808.98 1617.8 1812.02C1615.15 1815.1 1613.14 1818.61 1611.74 1822.62C1610.34 1826.6 1609.66 1830.77 1609.66 1835.09C1609.66 1839.68 1610.3 1843.91 1611.61 1847.82C1612.91 1851.74 1614.85 1855.1 1617.36 1857.95C1619.85 1860.78 1622.83 1863.02 1626.31 1864.58C1629.8 1866.16 1633.71 1866.94 1638.06 1866.94C1641.01 1866.94 1643.94 1866.34 1646.76 1865.23C1649.62 1864.08 1652.11 1862.53 1654.22 1860.56V1891.77H1668.86V1803.88H1655.5V1807.58ZM1654.22 1847.82C1652.45 1849.78 1650.4 1851.21 1648.1 1852.14C1645.83 1853.1 1643.44 1853.58 1640.98 1853.58C1638.34 1853.58 1636.04 1853.08 1634.02 1852.08C1632.03 1851.12 1630.36 1849.82 1628.95 1848.14C1627.53 1846.49 1626.47 1844.53 1625.75 1842.23C1625.04 1839.93 1624.66 1837.51 1624.66 1834.96C1624.66 1829.18 1626.22 1824.49 1629.32 1820.82C1632.41 1817.18 1636.6 1815.35 1641.85 1815.35C1644.09 1815.35 1646.29 1815.72 1648.56 1816.5C1650.8 1817.24 1652.7 1818.36 1654.22 1819.79V1847.82ZM1909.54 1810.63C1907.21 1807.93 1904.38 1805.78 1901.06 1804.26C1897.76 1802.74 1894.06 1801.96 1889.99 1801.96C1885.24 1801.96 1881.01 1802.87 1877.31 1804.63C1873.61 1806.44 1870.51 1808.86 1868.02 1811.91C1865.5 1814.95 1863.61 1818.5 1862.3 1822.48C1860.97 1826.48 1860.31 1830.68 1860.31 1835.09C1860.31 1839.94 1861.09 1844.29 1862.68 1848.21C1864.23 1852.13 1866.44 1855.45 1869.23 1858.21C1872.03 1860.98 1875.33 1863.13 1879.09 1864.65C1882.87 1866.17 1887.01 1866.95 1891.51 1866.95C1896.36 1866.95 1900.84 1866.11 1904.97 1864.46C1909.08 1862.78 1912.58 1860.45 1915.48 1857.38L1909.97 1847.18H1909.48C1906.84 1849.39 1904.1 1851.09 1901.28 1852.28C1898.41 1853.49 1895.43 1854.08 1892.29 1854.08C1889.8 1854.08 1887.6 1853.65 1885.61 1852.8C1883.59 1851.94 1881.88 1850.79 1880.45 1849.3C1878.99 1847.81 1877.84 1846.03 1877.01 1844.01C1876.16 1841.96 1875.7 1839.75 1875.6 1837.39H1917V1832.55C1917 1828.13 1916.35 1824.06 1915.01 1820.3C1913.7 1816.57 1911.87 1813.37 1909.54 1810.63ZM1876.35 1825.92C1877.12 1822.69 1878.68 1819.99 1881.07 1817.78C1883.46 1815.58 1886.51 1814.46 1890.24 1814.46C1892.11 1814.46 1893.79 1814.77 1895.28 1815.42C1896.77 1816.04 1898.01 1816.91 1899.04 1818.03C1900.06 1819.12 1900.87 1820.36 1901.46 1821.73C1902.05 1823.07 1902.33 1824.46 1902.33 1825.92H1876.35ZM1837.13 1783.5H1822.49V1803.89H1808.47V1816.63H1822.49V1843.61C1822.49 1848.3 1822.93 1852.03 1823.83 1854.82C1824.7 1857.62 1826.03 1859.93 1827.84 1861.72C1831.32 1865.18 1836.2 1866.95 1842.47 1866.95C1847.14 1866.95 1851.52 1866.08 1855.59 1864.4V1853.06H1855.09C1854.5 1853.21 1853.39 1853.46 1851.71 1853.74C1850.06 1854.05 1848.38 1854.21 1846.67 1854.21C1845.05 1854.21 1843.59 1854.02 1842.23 1853.68C1840.86 1853.33 1839.71 1852.65 1838.78 1851.65C1838.28 1851.07 1837.88 1850.29 1837.56 1849.36C1837.29 1848.43 1837.13 1847.15 1837.13 1845.53V1816.63H1855.59V1803.89H1837.13V1783.5ZM1797.01 1811.08C1794.21 1808.22 1790.86 1806.01 1786.94 1804.4C1783.06 1802.78 1778.77 1801.98 1774.07 1801.98C1769.41 1801.98 1765.12 1802.78 1761.21 1804.4C1757.32 1806.01 1753.96 1808.28 1751.17 1811.21C1748.34 1814.13 1746.16 1817.64 1744.58 1821.71C1743.02 1825.78 1742.25 1830.26 1742.25 1835.1C1742.25 1839.68 1743.02 1843.9 1744.58 1847.75C1746.16 1851.64 1748.34 1855 1751.17 1857.82C1753.96 1860.68 1757.32 1862.89 1761.21 1864.51C1765.12 1866.12 1769.41 1866.93 1774.07 1866.93C1778.77 1866.93 1783.06 1866.12 1786.94 1864.51C1790.86 1862.89 1794.21 1860.62 1797.01 1857.7C1799.81 1854.78 1801.98 1851.27 1803.57 1847.19C1805.15 1843.12 1805.93 1838.65 1805.93 1833.83C1805.93 1829.23 1805.15 1825 1803.57 1821.15C1801.98 1817.27 1799.81 1813.94 1797.01 1811.08ZM1789.61 1842.03C1788.78 1844.37 1787.59 1846.39 1786.13 1848.1C1784.64 1849.78 1782.87 1851.11 1780.85 1852.1C1778.8 1853.06 1776.53 1853.56 1774.07 1853.56C1771.62 1853.56 1769.38 1853.06 1767.33 1852.1C1765.31 1851.11 1763.53 1849.78 1762.04 1848.1C1760.55 1846.39 1759.4 1844.37 1758.53 1842.03C1757.69 1839.71 1757.26 1837.18 1757.26 1834.46C1757.26 1831.75 1757.69 1829.2 1758.53 1826.87C1759.4 1824.54 1760.55 1822.52 1762.04 1820.84C1763.53 1819.13 1765.31 1817.79 1767.33 1816.8C1769.38 1815.84 1771.62 1815.34 1774.07 1815.34C1776.53 1815.34 1778.8 1815.84 1780.85 1816.8C1782.87 1817.79 1784.64 1819.13 1786.13 1820.84C1787.59 1822.52 1788.78 1824.54 1789.61 1826.87C1790.49 1829.2 1790.89 1831.75 1790.89 1834.46C1790.89 1837.18 1790.49 1839.71 1789.61 1842.03ZM1717.53 1840.44C1717.53 1843.18 1717.31 1845.2 1716.91 1846.56C1716.47 1847.9 1715.88 1849.04 1715.1 1849.98C1714.17 1851.19 1712.96 1852.13 1711.47 1852.8C1710.01 1853.46 1708.39 1853.8 1706.71 1853.8C1705 1853.8 1703.42 1853.46 1701.93 1852.8C1700.43 1852.13 1699.22 1851.19 1698.29 1849.98C1697.55 1849.04 1696.93 1847.9 1696.52 1846.56C1696.08 1845.2 1695.87 1843.18 1695.87 1840.44V1803.89H1681.23V1838.92C1681.23 1844.01 1681.85 1848.21 1683.06 1851.54C1684.31 1854.82 1686.01 1857.59 1688.22 1859.8C1690.43 1862.01 1693.07 1863.75 1696.11 1865.02C1699.19 1866.3 1702.49 1866.95 1706.06 1866.95C1709.98 1866.95 1713.52 1866.27 1716.69 1864.96C1719.89 1863.66 1722.62 1861.85 1724.93 1859.55C1727.19 1857.35 1729 1854.61 1730.27 1851.31C1731.54 1848.05 1732.17 1843.92 1732.17 1838.92V1803.89H1717.53V1840.44ZM1542.58 1833.69C1540.68 1832.26 1538.57 1831.05 1536.27 1830.12C1533.97 1829.18 1531.77 1828.38 1529.65 1827.69C1527.01 1826.85 1524.8 1825.95 1522.97 1824.96C1521.14 1823.99 1520.23 1822.53 1520.23 1820.58C1520.23 1818.61 1521.01 1817.12 1522.6 1816.1C1524.15 1815.1 1526.39 1814.58 1529.27 1814.58C1531.64 1814.58 1534.12 1815.1 1536.7 1816.16C1539.31 1817.25 1541.71 1818.61 1543.92 1820.32H1544.41L1548.51 1809.23C1545.53 1806.87 1542.27 1805.07 1538.75 1803.82C1535.24 1802.58 1531.7 1801.96 1528.13 1801.96C1524.8 1801.96 1521.79 1802.46 1519.09 1803.45C1516.35 1804.41 1514.02 1805.75 1512.06 1807.46C1510.14 1809.14 1508.57 1811.22 1507.49 1813.71C1506.37 1816.16 1505.85 1818.83 1505.85 1821.73C1505.85 1824.96 1506.43 1827.63 1507.68 1829.8C1508.92 1831.98 1510.48 1833.79 1512.4 1835.21C1514.3 1836.67 1516.41 1837.85 1518.71 1838.78C1520.98 1839.72 1523.19 1840.53 1525.33 1841.21C1527.94 1842.05 1530.18 1842.98 1532.01 1843.95C1533.85 1844.91 1534.75 1846.4 1534.75 1848.33C1534.75 1850.29 1533.97 1851.78 1532.44 1852.8C1530.92 1853.83 1528.87 1854.33 1526.32 1854.33C1522.93 1854.33 1519.8 1853.61 1516.91 1852.21C1514.02 1850.82 1511.44 1849.11 1509.13 1847.06H1508.64L1504.57 1858.02C1507.52 1860.82 1511 1863 1515.01 1864.59C1518.99 1866.14 1523.15 1866.94 1527.48 1866.94C1530.61 1866.94 1533.5 1866.45 1536.14 1865.48C1538.78 1864.49 1541.05 1863.15 1542.95 1861.45C1544.88 1859.77 1546.37 1857.72 1547.49 1855.29C1548.58 1852.87 1549.14 1850.16 1549.14 1847.18C1549.14 1844.04 1548.51 1841.37 1547.3 1839.16C1546.06 1836.96 1544.48 1835.15 1542.58 1833.69ZM1287.58 1779.68C1282.23 1774.34 1275.96 1770.14 1268.71 1767.07C1261.5 1764.01 1253.8 1762.49 1245.56 1762.49C1237.29 1762.49 1229.58 1764.01 1222.37 1767.07C1215.13 1770.14 1208.85 1774.34 1203.51 1779.68C1198.17 1785.03 1193.97 1791.31 1190.89 1798.55C1187.84 1805.76 1186.32 1813.46 1186.32 1821.7C1186.32 1829.94 1187.84 1837.67 1190.89 1844.89C1193.97 1852.13 1198.17 1858.4 1203.51 1863.75C1208.85 1869.1 1215.13 1873.29 1222.37 1876.37C1229.58 1879.41 1237.29 1880.94 1245.56 1880.94C1253.8 1880.94 1261.5 1879.41 1268.71 1876.37C1275.96 1873.29 1282.23 1869.1 1287.58 1863.75C1292.92 1858.4 1297.12 1852.13 1300.19 1844.89C1303.24 1837.67 1304.76 1829.94 1304.76 1821.7C1304.76 1813.46 1303.24 1805.76 1300.19 1798.55C1297.12 1791.31 1292.92 1785.03 1287.58 1779.68ZM1275.36 1846.69H1265.04V1835.22C1265.04 1833.6 1264.86 1832.29 1264.51 1831.33C1264.17 1830.34 1263.68 1829.53 1262.99 1828.85C1261.63 1827.48 1259.95 1826.8 1257.9 1826.8C1255.85 1826.8 1254.17 1827.48 1252.8 1828.85C1252.12 1829.53 1251.62 1830.34 1251.27 1831.33C1250.93 1832.29 1250.78 1833.6 1250.78 1835.22V1846.69H1240.31V1835.22C1240.31 1833.6 1240.15 1832.29 1239.81 1831.33C1239.47 1830.34 1238.97 1829.53 1238.29 1828.85C1236.91 1827.48 1235.24 1826.8 1233.18 1826.8C1231.13 1826.8 1229.46 1827.48 1228.09 1828.85C1227.4 1829.53 1226.91 1830.34 1226.57 1831.33C1226.23 1832.29 1226.04 1833.6 1226.04 1835.22V1846.69H1215.72V1816.48H1275.36V1846.69ZM1275.36 1807.06H1215.75V1796.75H1275.36V1807.06Z" fill="#FAEBDC"/>
  </svg>
  